<?xml version="1.0" encoding="utf-8"?>
<!-- Generator: Adobe Illustrator 16.0.0, SVG Export Plug-In . SVG Version: 6.00 Build 0)  -->
<!DOCTYPE svg PUBLIC "-//W3C//DTD SVG 1.1//EN" "http://www.w3.org/Graphics/SVG/1.1/DTD/svg11.dtd">
<svg version="1.1" id="Layer_1" xmlns="http://www.w3.org/2000/svg" xmlns:xlink="http://www.w3.org/1999/xlink" x="0px" y="0px"
	 width="166.037px" height="157.782px" viewBox="0 0 166.037 157.782" enable-background="new 0 0 166.037 157.782"
	 xml:space="preserve">
<g>
	<g>
		<defs>
			<rect id="SVGID_1_" x="-104.081" y="-7221.907" width="1200" height="7589.755"/>
		</defs>
		<clipPath id="SVGID_2_">
			<use xlink:href="#SVGID_1_"  overflow="visible"/>
		</clipPath>
		<path clip-path="url(#SVGID_2_)" fill="#434048" d="M74.98,124.786l-48.215-24.45l2.893-54.006l0.15-0.098l45.133-29.432
			l0.193,0.125l45.13,29.383l2.932,53.981l-0.205,0.104L74.98,124.786z M27.495,99.912l47.485,24.08l47.486-24.125l-2.89-53.162
			L74.941,17.644L30.345,46.727L27.495,99.912z"/>
		<path clip-path="url(#SVGID_2_)" fill="#FFFFFF" d="M67.045,112.057L21.444,92.508l0.031-0.262l5.76-49.05l39.731-29.719
			l39.81,29.672l5.871,49.268L67.045,112.057z M22.208,92.065l44.837,19.222l44.837-19.313l-5.772-48.439L66.967,14.361
			L27.903,43.58L22.208,92.065z"/>
		<path clip-path="url(#SVGID_2_)" fill="#FFFFFF" d="M59.112,99.327L16.117,84.686l0.058-0.305l8.639-44.32l0.091-0.08
			l34.087-29.833L93.29,39.99l8.816,44.557L59.112,99.327z M16.929,84.214L59.111,98.58l42.181-14.502l-8.648-43.713l-33.651-29.28
			L25.461,40.434L16.929,84.214z"/>
		<path clip-path="url(#SVGID_2_)" fill="#FFFFFF" d="M51.177,86.646l-40.401-9.73l0.103-0.356l11.511-39.59l0.059-0.062
			L51.016,6.846l0.258,0.269l28.53,29.763l0.024,0.083L91.577,76.73L51.177,86.646z M11.662,76.399l39.513,9.519l39.513-9.698
			L79.174,37.243L51.019,7.872L23.02,37.332L11.662,76.399z"/>
		<path clip-path="url(#SVGID_2_)" fill="#FFFFFF" d="M43.242,73.933l-0.046-0.006L5.411,69.124l0.177-0.428l14.403-34.89
			L43.042,3.484L66.339,33.77l14.733,35.124L43.242,73.933z M6.418,68.538L43.24,73.22l36.822-4.905L65.704,34.087L43.046,4.649
			L20.583,34.197L6.418,68.538z"/>
		<path clip-path="url(#SVGID_2_)" fill="#FFFFFF" d="M0,61.294l0.304-0.532L35.067,0l35.548,61.017L0,61.294z M35.073,1.415
			L1.222,60.581l68.164-0.268L35.073,1.415z"/>
		<path clip-path="url(#SVGID_2_)" fill="#434048" d="M91.057,32.996l48.215,24.45l-2.893,54.005l-0.151,0.099l-45.132,29.433
			l-0.194-0.126l-45.129-29.382l-2.932-53.982l0.205-0.104L91.057,32.996z M138.541,57.869L91.057,33.791L43.571,57.915
			l2.889,53.162l44.636,29.062l44.596-29.083L138.541,57.869z"/>
		<path clip-path="url(#SVGID_2_)" fill="#FFFFFF" d="M98.991,45.727l45.602,19.549l-0.031,0.262l-5.761,49.05l-39.73,29.719
			l-39.81-29.673l-5.872-49.267L98.991,45.727z M143.828,65.717L98.991,46.495L54.154,65.808l5.773,48.439l39.142,29.175
			l39.065-29.22L143.828,65.717z"/>
		<path clip-path="url(#SVGID_2_)" fill="#FFFFFF" d="M106.925,58.455l42.994,14.643l-0.058,0.303l-8.638,44.322l-0.091,0.079
			l-34.088,29.834l-34.297-29.844l-8.816-44.558L106.925,58.455z M149.107,73.568l-42.181-14.365L64.746,73.704l8.648,43.713
			l33.651,29.279l33.531-29.347L149.107,73.568z"/>
		<path clip-path="url(#SVGID_2_)" fill="#FFFFFF" d="M114.86,71.138l40.401,9.729l-0.104,0.357l-11.51,39.59l-0.059,0.061
			l-28.568,30.062l-0.257-0.269l-28.531-29.763l-0.024-0.083L74.46,81.051L114.86,71.138z M154.375,81.382l-39.514-9.518
			l-39.512,9.698l11.513,38.978l28.155,29.371l27.999-29.461L154.375,81.382z"/>
		<path clip-path="url(#SVGID_2_)" fill="#FFFFFF" d="M122.794,83.85l0.047,0.006l37.785,4.803l-0.177,0.429l-14.403,34.889
			l-23.052,30.322l-23.296-30.285L84.965,88.889L122.794,83.85z M159.618,89.243l-36.821-4.68l-36.823,4.905l14.359,34.227
			l22.657,29.438l22.464-29.549L159.618,89.243z"/>
		<path clip-path="url(#SVGID_2_)" fill="#FFFFFF" d="M166.037,96.489l-0.304,0.531l-34.763,60.762L95.421,96.766L166.037,96.489z
			 M130.964,156.367l33.851-59.166L96.65,97.47L130.964,156.367z"/>
		<polygon clip-path="url(#SVGID_2_)" fill="#FFFFFF" points="133.716,108.339 133.716,49.686 82.919,20.358 32.123,49.686 
			32.123,108.339 82.919,137.666 		"/>
		<path clip-path="url(#SVGID_2_)" fill="#434048" d="M38.641,73.06l1.519-1.806c1.375,1.191,2.75,1.868,4.536,1.868
			c1.559,0,2.545-0.718,2.545-1.806v-0.041c0-1.027-0.576-1.58-3.244-2.196c-3.057-0.74-4.782-1.643-4.782-4.29v-0.042
			c0-2.461,2.053-4.165,4.905-4.165c2.094,0,3.756,0.636,5.213,1.806l-1.354,1.908c-1.293-0.964-2.586-1.477-3.9-1.477
			c-1.477,0-2.339,0.76-2.339,1.704v0.039c0,1.109,0.657,1.602,3.407,2.259c3.037,0.738,4.618,1.827,4.618,4.208v0.041
			c0,2.688-2.114,4.289-5.131,4.289C42.438,75.359,40.365,74.599,38.641,73.06"/>
		<polygon clip-path="url(#SVGID_2_)" fill="#434048" points="55.554,63.126 50.998,63.126 50.998,60.787 62.656,60.787 
			62.656,63.126 58.099,63.126 58.099,75.153 55.554,75.153 		"/>
		<polygon clip-path="url(#SVGID_2_)" fill="#434048" points="80.139,63.126 75.582,63.126 75.582,60.787 87.241,60.787 
			87.241,63.126 82.684,63.126 82.684,75.153 80.139,75.153 		"/>
		<polygon clip-path="url(#SVGID_2_)" fill="#434048" points="89.497,60.787 100.148,60.787 100.148,63.046 92.021,63.046 
			92.021,66.779 99.226,66.779 99.226,69.037 92.021,69.037 92.021,72.896 100.251,72.896 100.251,75.153 89.497,75.153 		"/>
		<path clip-path="url(#SVGID_2_)" fill="#434048" d="M101.872,73.06l1.52-1.806c1.375,1.191,2.75,1.868,4.535,1.868
			c1.56,0,2.545-0.718,2.545-1.806v-0.041c0-1.027-0.575-1.58-3.243-2.196c-3.058-0.74-4.782-1.643-4.782-4.29v-0.042
			c0-2.461,2.053-4.165,4.905-4.165c2.094,0,3.756,0.636,5.213,1.806l-1.354,1.908c-1.293-0.964-2.586-1.477-3.9-1.477
			c-1.477,0-2.339,0.76-2.339,1.704v0.039c0,1.109,0.656,1.602,3.407,2.259c3.037,0.738,4.617,1.827,4.617,4.208v0.041
			c0,2.688-2.113,4.289-5.131,4.289C105.669,75.359,103.597,74.599,101.872,73.06"/>
		<path clip-path="url(#SVGID_2_)" fill="#434048" d="M38.62,87.837v-0.041c0-4.084,3.058-7.43,7.409-7.43
			c2.648,0,4.248,0.924,5.623,2.238l-1.621,1.868c-1.149-1.068-2.381-1.786-4.022-1.786c-2.75,0-4.742,2.257-4.742,5.069v0.04
			c0,2.813,1.992,5.11,4.742,5.11c1.764,0,2.893-0.717,4.125-1.867l1.621,1.643c-1.498,1.559-3.14,2.545-5.828,2.545
			C41.739,95.227,38.62,91.962,38.62,87.837"/>
		<polygon clip-path="url(#SVGID_2_)" fill="#434048" points="53.992,80.613 56.516,80.613 56.516,86.586 63.371,86.586 
			63.371,80.613 65.895,80.613 65.895,94.979 63.371,94.979 63.371,88.926 56.516,88.926 56.516,94.979 53.992,94.979 		"/>
		<polygon clip-path="url(#SVGID_2_)" fill="#434048" points="84.981,80.613 87.321,80.613 95.018,90.548 95.018,80.613 
			97.501,80.613 97.501,94.979 95.386,94.979 87.464,84.76 87.464,94.979 84.981,94.979 		"/>
		<path clip-path="url(#SVGID_2_)" fill="#434048" d="M100.148,87.837v-0.041c0-4.021,3.078-7.43,7.409-7.43
			c2.504,0,4.043,0.699,5.521,1.95l-1.601,1.909c-1.108-0.944-2.196-1.539-4.022-1.539c-2.649,0-4.66,2.319-4.66,5.069v0.04
			c0,2.956,1.95,5.132,4.885,5.132c1.355,0,2.586-0.432,3.468-1.087v-2.69h-3.674v-2.195h6.116v6.033
			c-1.416,1.211-3.447,2.238-5.992,2.238C103.104,95.227,100.148,92.024,100.148,87.837"/>
		<polygon clip-path="url(#SVGID_2_)" fill="#434048" points="116.464,80.613 127.116,80.613 127.116,82.872 118.988,82.872 
			118.988,86.605 126.193,86.605 126.193,88.863 118.988,88.863 118.988,92.722 127.219,92.722 127.219,94.979 116.464,94.979 		"/>
		<polygon clip-path="url(#SVGID_2_)" fill="#434048" points="76.405,75.153 68.914,60.684 61.424,75.153 		"/>
		<polygon clip-path="url(#SVGID_2_)" fill="#434048" points="82.954,95.031 75.463,80.562 67.972,95.031 		"/>
		<path clip-path="url(#SVGID_2_)" fill="#434048" d="M115.701,66.441v-0.017c0-1.662,1.282-3.052,3.095-3.052
			s3.078,1.374,3.078,3.036v0.016c0,1.662-1.281,3.053-3.095,3.053C116.966,69.478,115.701,68.103,115.701,66.441 M120.786,66.441
			v-0.017c0-1.146-0.835-2.1-2.007-2.1c-1.172,0-1.99,0.936-1.99,2.084v0.016c0,1.147,0.835,2.1,2.007,2.1
			C119.969,68.524,120.786,67.589,120.786,66.441"/>
		<polygon clip-path="url(#SVGID_2_)" fill="#434048" points="122.736,63.473 127.131,63.473 127.131,64.417 123.773,64.417 
			123.773,66.029 126.751,66.029 126.751,66.973 123.773,66.973 123.773,69.376 122.736,69.376 		"/>
		<rect x="116.011" y="71.624" clip-path="url(#SVGID_2_)" fill="#434048" width="11.119" height="0.944"/>
	</g>
</g>
</svg>
