<?xml version="1.0" encoding="UTF-8"?>
<svg width="97px" height="38px" viewBox="0 0 97 38" version="1.1" xmlns="http://www.w3.org/2000/svg" xmlns:xlink="http://www.w3.org/1999/xlink">
    <!-- Generator: Sketch 47.1 (45422) - http://www.bohemiancoding.com/sketch -->
    <title>logo</title>
    <desc>Created with Sketch.</desc>
    <defs></defs>
    <g id="Page-1" stroke="none" stroke-width="1" fill="none" fill-rule="evenodd">
        <g id="logo" fill-rule="nonzero" fill="#FFFFFF">
            <g id="Clipped">
                <path d="M0.021,13.604 L1.677,11.635 C3.176,12.933 4.675,13.671 6.623,13.671 C8.323,13.671 9.397,12.889 9.397,11.702 L9.397,11.658 C9.397,10.539 8.77,9.935 5.862,9.263 C2.528,8.458 0.648,7.473 0.648,4.586 L0.648,4.541 C0.648,1.857 2.885,0 5.997,0 C8.279,0 10.091,0.693 11.68,1.969 L10.204,4.05 C8.793,2.998 7.384,2.438 5.952,2.438 C4.34,2.438 3.4,3.267 3.4,4.296 L3.4,4.34 C3.4,5.549 4.116,6.086 7.115,6.802 C10.426,7.607 12.149,8.793 12.149,11.389 L12.149,11.434 C12.149,14.365 9.844,16.11 6.555,16.11 C4.162,16.11 1.901,15.283 0.021,13.604" id="Shape"></path>
            </g>
            <g id="Clipped" transform="translate(13.000000, 0.000000)">
                <polygon id="Shape" points="5.462 2.773 0.494 2.773 0.494 0.224 13.204 0.224 13.204 2.773 8.236 2.773 8.236 15.887 5.462 15.887"></polygon>
            </g>
            <g id="Clipped" transform="translate(40.000000, 0.000000)">
                <polygon id="Shape" points="5.266 2.773 0.298 2.773 0.298 0.224 13.008 0.224 13.008 2.773 8.041 2.773 8.041 15.887 5.266 15.887"></polygon>
            </g>
            <g id="Clipped" transform="translate(55.000000, 0.000000)">
                <polygon id="Shape" points="0.469 0.223 12.082 0.223 12.082 2.685 3.222 2.685 3.222 6.757 11.075 6.757 11.075 9.218 3.222 9.218 3.222 13.425 12.195 13.425 12.195 15.886 0.469 15.886"></polygon>
            </g>
            <g id="Clipped" transform="translate(68.000000, 0.000000)">
                <path d="M0.962,13.604 L2.617,11.635 C4.117,12.933 5.616,13.671 7.563,13.671 C9.264,13.671 10.337,12.889 10.337,11.702 L10.337,11.658 C10.337,10.539 9.711,9.935 6.802,9.263 C3.468,8.458 1.588,7.473 1.588,4.586 L1.588,4.541 C1.588,1.857 3.826,0 6.937,0 C9.219,0 11.031,0.693 12.62,1.969 L11.143,4.05 C9.733,2.998 8.323,2.438 6.892,2.438 C5.28,2.438 4.341,3.267 4.341,4.296 L4.341,4.34 C4.341,5.549 5.057,6.086 8.055,6.802 C11.367,7.607 13.09,8.793 13.09,11.389 L13.09,11.434 C13.09,14.365 10.785,16.11 7.496,16.11 C5.102,16.11 2.842,15.283 0.962,13.604" id="Shape"></path>
            </g>
            <g id="Clipped" transform="translate(0.000000, 21.000000)">
                <path d="M0,8.715 L0,8.67 C0,4.217 3.334,0.57 8.077,0.57 C10.964,0.57 12.709,1.577 14.209,3.009 L12.44,5.045 C11.188,3.883 9.845,3.1 8.055,3.1 C5.057,3.1 2.886,5.561 2.886,8.627 L2.886,8.671 C2.886,11.737 5.057,14.243 8.055,14.243 C9.979,14.243 11.21,13.46 12.553,12.207 L14.32,13.996 C12.687,15.697 10.896,16.771 7.966,16.771 C3.4,16.771 0,13.213 0,8.715" id="Shape"></path>
            </g>
            <g id="Clipped" transform="translate(16.000000, 21.000000)">
                <polygon id="Shape" points="0.759 0.839 3.511 0.839 3.511 7.35 10.985 7.35 10.985 0.839 13.738 0.839 13.738 16.502 10.985 16.502 10.985 9.901 3.511 9.901 3.511 16.502 0.759 16.502"></polygon>
            </g>
            <g id="Clipped" transform="translate(50.000000, 21.000000)">
                <polygon id="Shape" points="0.546 0.839 3.097 0.839 11.488 11.669 11.488 0.839 14.195 0.839 14.195 16.502 11.891 16.502 3.254 5.359 3.254 16.502 0.546 16.502"></polygon>
            </g>
            <g id="Clipped" transform="translate(67.000000, 21.000000)">
                <path d="M0.082,8.715 L0.082,8.67 C0.082,4.284 3.438,0.57 8.159,0.57 C10.89,0.57 12.567,1.331 14.179,2.695 L12.434,4.777 C11.226,3.747 10.039,3.099 8.048,3.099 C5.161,3.099 2.968,5.627 2.968,8.626 L2.968,8.67 C2.968,11.892 5.094,14.264 8.294,14.264 C9.77,14.264 11.113,13.794 12.075,13.078 L12.075,10.147 L8.07,10.147 L8.07,7.753 L14.738,7.753 L14.738,14.331 C13.194,15.652 10.978,16.77 8.204,16.77 C3.304,16.771 0.082,13.28 0.082,8.715" id="Shape"></path>
            </g>
            <g id="Clipped" transform="translate(84.000000, 21.000000)">
                <polygon id="Shape" points="0.87 0.839 12.483 0.839 12.483 3.3 3.623 3.3 3.623 7.373 11.476 7.373 11.476 9.834 3.623 9.834 3.623 14.041 12.596 14.041 12.596 16.502 0.87 16.502"></polygon>
            </g>
            <g id="Clipped" transform="translate(24.000000, 0.000000)">
                <polygon id="Shape" points="17.196 15.886 9.028 0.111 0.861 15.886"></polygon>
            </g>
            <g id="Clipped" transform="translate(32.000000, 21.000000)">
                <polygon id="Shape" points="16.336 16.558 8.168 0.783 0.001 16.558"></polygon>
            </g>
            <g id="Clipped" transform="translate(84.000000, 3.000000)">
                <path d="M0.038,3.388 L0.038,3.37 C0.038,1.559 1.437,0.042 3.413,0.042 C5.39,0.042 6.77,1.54 6.77,3.352 L6.77,3.37 C6.77,5.182 5.371,6.699 3.395,6.699 C1.418,6.698 0.038,5.2 0.038,3.388 M5.583,3.388 L5.583,3.37 C5.583,2.12 4.673,1.081 3.395,1.081 C2.116,1.081 1.225,2.102 1.225,3.352 L1.225,3.37 C1.225,4.621 2.135,5.66 3.413,5.66 C4.691,5.66 5.583,4.638 5.583,3.388" id="Shape"></path>
            </g>
            <g id="Clipped" transform="translate(91.000000, 3.000000)">
                <polygon id="Shape" points="0.709 0.151 5.5 0.151 5.5 1.182 1.84 1.182 1.84 2.938 5.086 2.938 5.086 3.968 1.84 3.968 1.84 6.588 0.709 6.588"></polygon>
            </g>
            <g id="Clipped" transform="translate(84.000000, 12.000000)">
                <rect id="Rectangle-path" x="0.377" y="0.038" width="12.123" height="1.03"></rect>
            </g>
        </g>
    </g>
</svg>