<?xml version="1.0" encoding="utf-8"?>
<!-- Generator: Adobe Illustrator 16.0.0, SVG Export Plug-In . SVG Version: 6.00 Build 0)  -->
<!DOCTYPE svg PUBLIC "-//W3C//DTD SVG 1.1//EN" "http://www.w3.org/Graphics/SVG/1.1/DTD/svg11.dtd">
<svg version="1.1" id="Layer_1" xmlns="http://www.w3.org/2000/svg" xmlns:xlink="http://www.w3.org/1999/xlink" x="0px" y="0px"
	 width="96.596px" height="37.771px" viewBox="0 0 96.596 37.771" enable-background="new 0 0 96.596 37.771" xml:space="preserve">
<g>
	<g>
		<defs>
			<rect id="SVGID_1_" x="-52.595" y="-818.596" width="1200" height="6989.755"/>
		</defs>
		<clipPath id="SVGID_2_">
			<use xlink:href="#SVGID_1_"  overflow="visible"/>
		</clipPath>
		<path clip-path="url(#SVGID_2_)" fill="#434048" d="M0.021,13.604l1.656-1.969c1.499,1.298,2.998,2.036,4.946,2.036
			c1.7,0,2.774-0.782,2.774-1.969v-0.044c0-1.119-0.627-1.723-3.535-2.395c-3.334-0.805-5.214-1.79-5.214-4.677V4.541
			C0.648,1.857,2.885,0,5.997,0c2.282,0,4.094,0.693,5.683,1.969L10.204,4.05c-1.411-1.052-2.82-1.612-4.252-1.612
			C4.34,2.438,3.4,3.267,3.4,4.296V4.34c0,1.209,0.716,1.746,3.715,2.462c3.311,0.805,5.034,1.991,5.034,4.587v0.045
			c0,2.931-2.305,4.676-5.594,4.676C4.162,16.11,1.901,15.283,0.021,13.604"/>
		<polygon clip-path="url(#SVGID_2_)" fill="#434048" points="18.462,2.773 13.494,2.773 13.494,0.224 26.204,0.224 26.204,2.773 
			21.236,2.773 21.236,15.887 18.462,15.887 		"/>
		<polygon clip-path="url(#SVGID_2_)" fill="#434048" points="45.266,2.773 40.298,2.773 40.298,0.224 53.008,0.224 53.008,2.773 
			48.041,2.773 48.041,15.887 45.266,15.887 		"/>
		<polygon clip-path="url(#SVGID_2_)" fill="#434048" points="55.469,0.223 67.082,0.223 67.082,2.685 58.222,2.685 58.222,6.757 
			66.075,6.757 66.075,9.218 58.222,9.218 58.222,13.425 67.195,13.425 67.195,15.886 55.469,15.886 		"/>
		<path clip-path="url(#SVGID_2_)" fill="#434048" d="M68.962,13.604l1.655-1.969c1.5,1.298,2.999,2.036,4.946,2.036
			c1.701,0,2.774-0.782,2.774-1.969v-0.044c0-1.119-0.626-1.723-3.535-2.395c-3.334-0.805-5.214-1.79-5.214-4.677V4.541
			C69.588,1.857,71.826,0,74.937,0c2.282,0,4.094,0.693,5.683,1.969L79.143,4.05c-1.41-1.052-2.82-1.612-4.251-1.612
			c-1.612,0-2.551,0.829-2.551,1.858V4.34c0,1.209,0.716,1.746,3.714,2.462c3.312,0.805,5.035,1.991,5.035,4.587v0.045
			c0,2.931-2.305,4.676-5.594,4.676C73.102,16.11,70.842,15.283,68.962,13.604"/>
		<path clip-path="url(#SVGID_2_)" fill="#434048" d="M0,29.715V29.67c0-4.453,3.334-8.1,8.077-8.1c2.887,0,4.632,1.007,6.132,2.439
			l-1.769,2.036C11.188,24.883,9.845,24.1,8.055,24.1c-2.998,0-5.169,2.461-5.169,5.527v0.044c0,3.066,2.171,5.572,5.169,5.572
			c1.924,0,3.155-0.783,4.498-2.036l1.767,1.789c-1.633,1.701-3.424,2.775-6.354,2.775C3.4,37.771,0,34.213,0,29.715"/>
		<polygon clip-path="url(#SVGID_2_)" fill="#434048" points="16.759,21.839 19.511,21.839 19.511,28.35 26.985,28.35 
			26.985,21.839 29.738,21.839 29.738,37.502 26.985,37.502 26.985,30.901 19.511,30.901 19.511,37.502 16.759,37.502 		"/>
		<polygon clip-path="url(#SVGID_2_)" fill="#434048" points="50.546,21.839 53.097,21.839 61.488,32.669 61.488,21.839 
			64.195,21.839 64.195,37.502 61.891,37.502 53.254,26.359 53.254,37.502 50.546,37.502 		"/>
		<path clip-path="url(#SVGID_2_)" fill="#434048" d="M67.082,29.715V29.67c0-4.386,3.356-8.1,8.077-8.1
			c2.731,0,4.408,0.761,6.02,2.125l-1.745,2.082c-1.208-1.03-2.395-1.678-4.386-1.678c-2.887,0-5.08,2.528-5.08,5.527v0.044
			c0,3.222,2.126,5.594,5.326,5.594c1.476,0,2.819-0.47,3.781-1.186v-2.931H75.07v-2.394h6.668v6.578
			c-1.544,1.321-3.76,2.439-6.534,2.439C70.304,37.771,67.082,34.28,67.082,29.715"/>
		<polygon clip-path="url(#SVGID_2_)" fill="#434048" points="84.87,21.839 96.483,21.839 96.483,24.3 87.623,24.3 87.623,28.373 
			95.476,28.373 95.476,30.834 87.623,30.834 87.623,35.041 96.596,35.041 96.596,37.502 84.87,37.502 		"/>
		<polygon clip-path="url(#SVGID_2_)" fill="#434048" points="41.196,15.886 33.028,0.111 24.861,15.886 		"/>
		<polygon clip-path="url(#SVGID_2_)" fill="#434048" points="48.336,37.558 40.168,21.783 32.001,37.558 		"/>
		<path clip-path="url(#SVGID_2_)" fill="#434048" d="M84.038,6.388V6.37c0-1.811,1.399-3.328,3.375-3.328
			c1.977,0,3.357,1.498,3.357,3.31V6.37c0,1.812-1.399,3.329-3.375,3.329C85.418,9.698,84.038,8.2,84.038,6.388 M89.583,6.388V6.37
			c0-1.25-0.91-2.289-2.188-2.289c-1.279,0-2.17,1.021-2.17,2.271V6.37c0,1.251,0.91,2.29,2.188,2.29
			C88.691,8.66,89.583,7.638,89.583,6.388"/>
		<polygon clip-path="url(#SVGID_2_)" fill="#434048" points="91.709,3.151 96.5,3.151 96.5,4.182 92.84,4.182 92.84,5.938 
			96.086,5.938 96.086,6.968 92.84,6.968 92.84,9.588 91.709,9.588 		"/>
		<rect x="84.377" y="12.038" clip-path="url(#SVGID_2_)" fill="#434048" width="12.123" height="1.03"/>
		<g opacity="0.7" clip-path="url(#SVGID_2_)">
			<g>
				<defs>
					<rect id="SVGID_3_" x="-52.595" y="-818.591" width="1200" height="74"/>
				</defs>
				<clipPath id="SVGID_4_">
					<use xlink:href="#SVGID_3_"  overflow="visible"/>
				</clipPath>
				<rect x="-52.595" y="-818.596" clip-path="url(#SVGID_4_)" fill="#FFFFFF" width="1200" height="74"/>
			</g>
		</g>
	</g>
</g>
</svg>
