<?xml version="1.0" encoding="utf-8"?>
<!-- Generator: Adobe Illustrator 16.0.0, SVG Export Plug-In . SVG Version: 6.00 Build 0)  -->
<!DOCTYPE svg PUBLIC "-//W3C//DTD SVG 1.1//EN" "http://www.w3.org/Graphics/SVG/1.1/DTD/svg11.dtd">
<svg version="1.1" id="Layer_1" xmlns="http://www.w3.org/2000/svg" xmlns:xlink="http://www.w3.org/1999/xlink" x="0px" y="0px"
	 width="543px" height="457px" viewBox="0 0 543 457" enable-background="new 0 0 543 457" xml:space="preserve">
<g>
	<g>
		<path fill="none" stroke="#FFFFFF" stroke-width="0.5" stroke-miterlimit="10" d="M869.076,162.47
			c0-38.776,41.311-28.751,80.086-28.751c19.389,0,46.817,7.858,59.522,20.564c12.706,12.706,20.565,40.134,20.565,59.523
			c0,9.523-1.897,23.543-5.332,31.824c-3.56,8.576-8.769,21.234-15.233,27.699c-12.705,12.705-40.134,20.564-59.522,20.564
			s-46.816-18.225-59.522-41.294c-2.945-5.348-5.629-15.894-8.016-21.595c-2.415-5.769-4.525-16.573-6.291-22.361
			C871.313,195.47,869.076,172.817,869.076,162.47z"/>
		<path fill="none" stroke="#FFFFFF" stroke-width="0.5" stroke-miterlimit="10" d="M865.818,164.854
			c0-38.095,41.856-28.246,79.952-28.246c19.05,0,47.268,7.721,59.75,20.203c12.483,12.484,20.203,40.702,20.203,59.749
			c0,9.358-1.862,23.766-5.237,31.902c-3.496,8.427-8.614,21.496-14.966,27.848c-12.482,12.484-40.7,20.205-59.75,20.205
			c-19.048,0-47.265-17.904-59.749-40.57c-2.892-5.254-5.529-16.249-7.875-21.851c-2.372-5.668-4.444-16.917-6.181-22.604
			C868.018,198.547,865.818,175.021,865.818,164.854z"/>
		<path fill="none" stroke="#FFFFFF" stroke-width="0.5" stroke-miterlimit="10" d="M862.258,167.461
			c0-37.415,42.402-27.742,79.818-27.742c18.708,0,47.716,7.583,59.977,19.842c12.26,12.261,19.843,41.268,19.843,59.976
			c0,9.19-1.83,23.988-5.146,31.979c-3.433,8.275-8.461,21.759-14.697,27.997c-12.261,12.26-41.269,19.842-59.977,19.842
			s-47.715-17.585-59.975-39.845c-2.842-5.159-5.433-16.606-7.735-22.107c-2.33-5.567-4.366-17.262-6.07-22.848
			C864.418,201.844,862.258,177.445,862.258,167.461z"/>
		<path fill="none" stroke="#FFFFFF" stroke-width="0.5" stroke-miterlimit="10" d="M858.404,170.275
			c0-36.735,42.948-27.238,79.685-27.238c18.368,0,48.165,7.445,60.202,19.481c12.037,12.038,19.481,41.834,19.481,60.203
			c0,9.023-1.797,24.21-5.052,32.055c-3.371,8.126-8.306,22.022-14.43,28.146c-12.037,12.038-41.834,19.483-60.202,19.483
			s-48.164-17.265-60.202-39.121c-2.79-5.065-5.333-16.961-7.593-22.362c-2.288-5.466-4.287-17.608-5.961-23.092
			C860.525,205.35,858.404,180.078,858.404,170.275z"/>
		<path fill="none" stroke="#FFFFFF" stroke-width="0.5" stroke-miterlimit="10" d="M854.268,173.283
			c0-36.056,43.494-26.733,79.551-26.733c18.026,0,48.612,7.307,60.428,19.121c11.814,11.814,19.121,42.4,19.121,60.429
			c0,8.856-1.764,24.431-4.958,32.131c-3.31,7.976-8.153,22.286-14.163,28.296c-11.815,11.814-42.401,19.121-60.428,19.121
			c-18.029,0-48.614-16.945-60.43-38.396c-2.737-4.971-5.233-17.318-7.453-22.619c-2.244-5.365-4.207-17.951-5.85-23.334
			C856.349,209.05,854.268,182.904,854.268,173.283z"/>
		<path fill="none" stroke="#FFFFFF" stroke-width="0.5" stroke-miterlimit="10" d="M849.857,176.472
			c0-35.375,44.04-26.229,79.415-26.229c17.688,0,49.064,7.169,60.654,18.76c11.592,11.592,18.761,42.967,18.761,60.655
			c0,8.689-1.729,24.654-4.863,32.209c-3.246,7.825-7.999,22.547-13.897,28.444c-11.59,11.591-42.966,18.761-60.654,18.761
			c-17.687,0-49.063-16.625-60.653-37.672c-2.688-4.879-5.137-17.675-7.313-22.877c-2.203-5.263-4.128-18.295-5.739-23.576
			C851.9,212.93,849.857,185.911,849.857,176.472z"/>
		<path fill="none" stroke="#FFFFFF" stroke-width="0.5" stroke-miterlimit="10" d="M845.186,179.828
			c0-34.695,44.586-25.725,79.28-25.725c17.347,0,49.513,7.032,60.881,18.4c11.368,11.369,18.4,43.533,18.4,60.881
			c0,8.521-1.698,24.876-4.771,32.286c-3.185,7.673-7.846,22.81-13.629,28.595c-11.368,11.368-43.534,18.399-60.881,18.399
			s-49.512-16.305-60.881-36.947c-2.634-4.785-5.037-18.031-7.171-23.133c-2.162-5.161-4.049-18.639-5.63-23.82
			C847.188,216.978,845.186,189.086,845.186,179.828z"/>
		<path fill="none" stroke="#FFFFFF" stroke-width="0.5" stroke-miterlimit="10" d="M840.26,183.338
			c0-34.015,45.133-25.22,79.146-25.22c17.007,0,49.961,6.893,61.107,18.039c11.145,11.146,18.039,44.099,18.039,61.107
			c0,8.354-1.664,25.099-4.679,32.362c-3.121,7.525-7.689,23.074-13.36,28.745c-11.146,11.145-44.101,18.039-61.107,18.039
			s-49.962-15.986-61.107-36.224c-2.583-4.69-4.938-18.387-7.03-23.389c-2.119-5.061-3.971-18.985-5.521-24.063
			C842.223,221.18,840.26,192.415,840.26,183.338z"/>
		<path fill="none" stroke="#FFFFFF" stroke-width="0.5" stroke-miterlimit="10" d="M835.092,186.989
			c0-33.334,45.678-24.716,79.013-24.716c16.667,0,50.411,6.756,61.333,17.678c10.923,10.922,17.678,44.667,17.678,61.334
			c0,8.187-1.63,25.32-4.584,32.44c-3.058,7.373-7.537,23.335-13.094,28.893c-10.922,10.922-44.666,17.678-61.333,17.678
			s-50.411-15.666-61.334-35.499c-2.532-4.597-4.839-18.745-6.892-23.646c-2.076-4.959-3.89-19.329-5.408-24.306
			C837.017,225.521,835.092,195.884,835.092,186.989z"/>
		<path fill="none" stroke="#FFFFFF" stroke-width="0.5" stroke-miterlimit="10" d="M829.691,190.768
			c0-32.654,46.224-24.211,78.877-24.211c16.327,0,50.86,6.617,61.561,17.317c10.7,10.7,17.316,45.233,17.316,61.56
			c0,8.02-1.597,25.543-4.489,32.517c-2.996,7.223-7.383,23.599-12.827,29.042c-10.7,10.699-45.233,17.317-61.561,17.317
			c-16.326,0-50.859-15.346-61.56-34.774c-2.479-4.503-4.74-19.101-6.75-23.901c-2.034-4.859-3.81-19.674-5.297-24.549
			C831.577,229.992,829.691,199.48,829.691,190.768z"/>
		<path fill="none" stroke="#FFFFFF" stroke-width="0.5" stroke-miterlimit="10" d="M824.068,194.659
			c0-31.974,46.771-23.706,78.743-23.706c15.986,0,51.311,6.48,61.786,16.956c10.478,10.476,16.957,45.799,16.957,61.786
			c0,7.853-1.563,25.765-4.396,32.594c-2.935,7.072-7.23,23.862-12.561,29.192c-10.476,10.476-45.8,16.956-61.786,16.956
			s-51.309-15.026-61.786-34.05c-2.428-4.408-4.642-19.457-6.608-24.158c-1.992-4.757-3.732-20.019-5.188-24.792
			C825.915,234.577,824.068,203.191,824.068,194.659z"/>
		<path fill="none" stroke="#FFFFFF" stroke-width="0.5" stroke-miterlimit="10" d="M818.234,198.652
			c0-31.293,47.314-23.203,78.608-23.203c15.647,0,51.759,6.342,62.013,16.596c10.253,10.254,16.597,46.366,16.597,62.013
			c0,7.686-1.53,25.988-4.305,32.67c-2.87,6.922-7.075,24.125-12.292,29.342c-10.254,10.253-46.365,16.595-62.013,16.595
			c-15.646,0-51.758-14.707-62.012-33.324c-2.377-4.315-4.543-19.814-6.47-24.415c-1.948-4.657-3.651-20.364-5.076-25.035
			C820.042,239.261,818.234,207.003,818.234,198.652z"/>
		<path fill="none" stroke="#FFFFFF" stroke-width="0.5" stroke-miterlimit="10" d="M812.199,202.732
			c0-30.613,47.859-22.697,78.474-22.697c15.306,0,52.208,6.204,62.237,16.234c10.031,10.031,16.235,46.933,16.235,62.239
			c0,7.519-1.497,26.211-4.209,32.748c-2.809,6.772-6.923,24.388-12.026,29.491c-10.029,10.031-46.932,16.236-62.237,16.236
			c-15.308,0-52.208-14.387-62.24-32.602c-2.324-4.221-4.443-20.17-6.328-24.672c-1.905-4.554-3.571-20.707-4.967-25.277
			C813.966,244.032,812.199,210.902,812.199,202.732z"/>
		<path fill="none" stroke="#FFFFFF" stroke-width="0.5" stroke-miterlimit="10" d="M805.971,206.885
			c0-29.932,48.406-22.193,78.34-22.193c14.966,0,52.656,6.066,62.465,15.874c9.807,9.808,15.874,47.5,15.874,62.465
			c0,7.352-1.464,26.433-4.116,32.825c-2.747,6.621-6.768,24.65-11.758,29.641c-9.809,9.808-47.499,15.874-62.465,15.874
			c-14.968,0-52.657-14.067-62.467-31.876c-2.271-4.127-4.345-20.527-6.187-24.928c-1.865-4.453-3.494-21.052-4.857-25.521
			C807.699,248.878,805.971,214.874,805.971,206.885z"/>
		<path fill="none" stroke="#FFFFFF" stroke-width="0.5" stroke-miterlimit="10" d="M799.561,211.1
			c0-29.252,48.952-21.689,78.205-21.689c14.626,0,53.107,5.928,62.691,15.514c9.585,9.584,15.514,48.065,15.514,62.691
			c0,7.185-1.431,26.654-4.021,32.902c-2.686,6.471-6.615,24.914-11.492,29.789c-9.584,9.585-48.065,15.514-62.691,15.514
			s-53.105-13.748-62.69-31.152c-2.222-4.034-4.247-20.883-6.047-25.185c-1.822-4.352-3.414-21.396-4.746-25.763
			C801.249,253.783,799.561,218.906,799.561,211.1z"/>
		<path fill="none" stroke="#FFFFFF" stroke-width="0.5" stroke-miterlimit="10" d="M792.98,215.361
			c0-28.571,49.498-21.184,78.07-21.184c14.286,0,53.557,5.79,62.917,15.153c9.363,9.361,15.154,48.631,15.154,62.918
			c0,7.017-1.398,26.876-3.929,32.979c-2.622,6.32-6.461,25.175-11.226,29.938c-9.36,9.363-48.631,15.153-62.917,15.153
			s-53.556-13.428-62.918-30.427c-2.17-3.939-4.148-21.24-5.906-25.441c-1.779-4.25-3.335-21.742-4.636-26.007
			C794.629,258.736,792.98,222.986,792.98,215.361z"/>
		<path fill="none" stroke="#FFFFFF" stroke-width="0.5" stroke-miterlimit="10" d="M786.238,219.656
			c0-27.892,50.045-20.681,77.937-20.681c13.946,0,54.004,5.652,63.144,14.792c9.14,9.138,14.792,49.198,14.792,63.144
			c0,6.852-1.363,27.1-3.836,33.057c-2.558,6.169-6.307,25.438-10.956,30.088c-9.14,9.139-49.197,14.791-63.144,14.791
			s-54.005-13.108-63.144-29.703c-2.118-3.846-4.051-21.596-5.768-25.696c-1.736-4.15-3.254-22.086-4.523-26.25
			C787.848,263.723,786.238,227.1,786.238,219.656z"/>
		<path fill="none" stroke="#FFFFFF" stroke-width="0.5" stroke-miterlimit="10" d="M779.346,223.971
			c0-27.211,50.591-20.176,77.802-20.176c13.605,0,54.455,5.515,63.371,14.431s14.431,49.765,14.431,63.371
			c0,6.683-1.331,27.32-3.742,33.133c-2.497,6.019-6.152,25.701-10.688,30.237c-8.916,8.917-49.766,14.431-63.371,14.431
			c-13.606,0-54.454-12.788-63.37-28.978c-2.067-3.753-3.951-21.953-5.625-25.954c-1.696-4.049-3.176-22.43-4.415-26.493
			C780.916,268.729,779.346,231.233,779.346,223.971z"/>
		<path fill="none" stroke="#FFFFFF" stroke-width="0.5" stroke-miterlimit="10" d="M772.313,228.292
			c0-26.53,51.136-19.671,77.666-19.671c13.267,0,54.904,5.376,63.599,14.071c8.692,8.693,14.069,50.331,14.069,63.597
			c0,6.516-1.298,27.543-3.647,33.209c-2.435,5.869-6,25.964-10.422,30.387c-8.694,8.694-50.332,14.071-63.599,14.071
			c-13.266,0-54.902-12.469-63.597-28.254c-2.014-3.66-3.851-22.309-5.483-26.21c-1.652-3.948-3.097-22.775-4.306-26.736
			C773.843,273.743,772.313,235.373,772.313,228.292z"/>
		<path fill="none" stroke="#FFFFFF" stroke-width="0.5" stroke-miterlimit="10" d="M765.148,232.609
			c0-25.85,51.682-19.167,77.532-19.167c12.925,0,55.354,5.239,63.823,13.709c8.47,8.471,13.709,50.898,13.709,63.823
			c0,6.35-1.263,27.766-3.554,33.287c-2.372,5.717-5.846,26.228-10.155,30.537c-8.47,8.47-50.898,13.709-63.823,13.709
			c-12.926,0-55.353-12.149-63.823-27.53c-1.964-3.564-3.753-22.666-5.344-26.466c-1.609-3.847-3.017-23.119-4.193-26.979
			C766.64,278.75,765.148,239.507,765.148,232.609z"/>
		<path fill="none" stroke="#FFFFFF" stroke-width="0.5" stroke-miterlimit="10" d="M757.863,236.905
			c0-25.17,52.229-18.662,77.398-18.662c12.585,0,55.802,5.101,64.049,13.348c8.248,8.248,13.35,51.464,13.35,64.049
			c0,6.183-1.231,27.989-3.461,33.364c-2.311,5.568-5.691,26.489-9.889,30.686c-8.247,8.247-51.464,13.35-64.049,13.35
			s-55.802-11.831-64.049-26.805c-1.912-3.472-3.655-23.023-5.203-26.724c-1.569-3.746-2.938-23.464-4.084-27.221
			C759.315,283.738,757.863,243.622,757.863,236.905z"/>
		<path fill="none" stroke="#FFFFFF" stroke-width="0.5" stroke-miterlimit="10" d="M750.469,241.167
			c0-24.489,52.772-18.157,77.265-18.157c12.245,0,56.251,4.963,64.274,12.988c8.024,8.023,12.988,52.03,12.988,64.275
			c0,6.016-1.198,28.211-3.368,33.441c-2.247,5.417-5.537,26.753-9.62,30.834c-8.023,8.025-52.029,12.989-64.274,12.989
			c-12.246,0-56.252-11.51-64.277-26.082c-1.858-3.376-3.555-23.379-5.062-26.979c-1.526-3.645-2.859-23.809-3.975-27.465
			C751.882,288.692,750.469,247.702,750.469,241.167z"/>
		<path fill="none" stroke="#FFFFFF" stroke-width="0.5" stroke-miterlimit="10" d="M742.975,245.383
			c0-23.81,53.318-17.653,77.129-17.653c11.904,0,56.699,4.825,64.502,12.626c7.802,7.803,12.628,52.597,12.628,64.503
			c0,5.847-1.165,28.433-3.275,33.517c-2.184,5.267-5.383,27.015-9.353,30.985c-7.803,7.801-52.598,12.627-64.502,12.627
			c-11.905,0-56.7-11.19-64.502-25.356c-1.81-3.283-3.457-23.734-4.923-27.236c-1.482-3.542-2.778-24.153-3.862-27.708
			C744.348,293.6,742.975,251.737,742.975,245.383z"/>
		<path fill="none" stroke="#FFFFFF" stroke-width="0.5" stroke-miterlimit="10" d="M735.389,249.54
			c0-23.13,53.865-17.15,76.995-17.15c11.565,0,57.15,4.688,64.729,12.267c7.578,7.578,12.266,53.164,12.266,64.728
			c0,5.682-1.132,28.655-3.18,33.595c-2.123,5.116-5.231,27.278-9.086,31.134c-7.579,7.579-53.164,12.267-64.729,12.267
			c-11.564,0-57.149-10.871-64.728-24.633c-1.757-3.189-3.359-24.091-4.782-27.491c-1.44-3.441-2.699-24.498-3.753-27.951
			C736.725,298.448,735.389,255.712,735.389,249.54z"/>
		<path fill="none" stroke="#FFFFFF" stroke-width="0.5" stroke-miterlimit="10" d="M727.725,253.622
			c0-22.449,54.41-16.645,76.86-16.645c11.226,0,57.599,4.55,64.954,11.906c7.357,7.356,11.907,53.73,11.907,64.955
			c0,5.514-1.099,28.877-3.087,33.671c-2.062,4.966-5.076,27.542-8.82,31.283c-7.355,7.356-53.729,11.906-64.954,11.906
			c-11.225,0-57.599-10.551-64.955-23.907c-1.705-3.097-3.259-24.449-4.64-27.75c-1.399-3.34-2.62-24.842-3.644-28.193
			C729.02,303.223,727.725,259.613,727.725,253.622z"/>
		<path fill="none" stroke="#FFFFFF" stroke-width="0.5" stroke-miterlimit="10" d="M719.99,257.619
			c0-21.77,54.957-16.142,76.727-16.142c10.884,0,58.048,4.413,65.181,11.545c7.133,7.133,11.545,54.296,11.545,65.181
			c0,5.347-1.063,29.1-2.993,33.749c-1.998,4.815-4.923,27.803-8.552,31.432c-7.133,7.133-54.297,11.545-65.181,11.545
			c-10.885,0-58.048-10.23-65.182-23.182c-1.652-3.002-3.159-24.805-4.5-28.006c-1.356-3.239-2.541-25.186-3.531-28.436
			C721.247,307.91,719.99,263.428,719.99,257.619z"/>
		<path fill="none" stroke="#FFFFFF" stroke-width="0.5" stroke-miterlimit="10" d="M712.197,261.515
			c0-21.089,55.502-15.637,76.592-15.637c10.545,0,58.498,4.274,65.408,11.184c6.909,6.912,11.184,54.864,11.184,65.408
			c0,5.181-1.032,29.322-2.9,33.827c-1.935,4.665-4.768,28.065-8.283,31.582c-6.91,6.91-54.863,11.184-65.408,11.184
			c-10.544,0-58.497-9.911-65.407-22.459c-1.603-2.908-3.063-25.16-4.36-28.261c-1.313-3.138-2.461-25.532-3.422-28.68
			C713.415,312.498,712.197,267.142,712.197,261.515z"/>
		<path fill="none" stroke="#FFFFFF" stroke-width="0.5" stroke-miterlimit="10" d="M704.354,265.298
			c0-20.409,56.05-15.132,76.458-15.132c10.204,0,58.946,4.136,65.635,10.823c6.687,6.688,10.822,55.43,10.822,65.634
			c0,5.012-0.997,29.544-2.807,33.903c-1.872,4.514-4.614,28.329-8.016,31.731c-6.688,6.687-55.431,10.823-65.635,10.823
			s-58.946-9.591-65.634-21.734c-1.551-2.814-2.963-25.517-4.22-28.518c-1.271-3.036-2.38-25.876-3.31-28.923
			C705.533,316.972,704.354,270.744,704.354,265.298z"/>
		<path fill="none" stroke="#FFFFFF" stroke-width="0.5" stroke-miterlimit="10" d="M696.473,268.953
			c0-19.728,56.595-14.628,76.322-14.628c9.865,0,59.397,3.999,65.861,10.462c6.464,6.465,10.463,55.997,10.463,65.861
			c0,4.846-0.965,29.766-2.713,33.98c-1.812,4.364-4.461,28.592-7.75,31.88c-6.464,6.464-55.996,10.462-65.861,10.462
			c-9.864,0-59.395-9.272-65.859-21.009c-1.498-2.721-2.863-25.875-4.078-28.774c-1.229-2.936-2.303-26.221-3.2-29.166
			C697.612,321.319,696.473,274.217,696.473,268.953z"/>
		<path fill="none" stroke="#FFFFFF" stroke-width="0.5" stroke-miterlimit="10" d="M688.563,272.469
			c0-19.048,57.141-14.124,76.188-14.124c9.525,0,59.846,3.861,66.087,10.103c6.242,6.24,10.103,56.562,10.103,66.086
			c0,4.678-0.933,29.988-2.619,34.056c-1.748,4.213-4.308,28.854-7.483,32.029c-6.241,6.242-56.562,10.103-66.087,10.103
			c-9.523,0-59.844-8.953-66.085-20.286c-1.448-2.626-2.767-26.23-3.938-29.031c-1.186-2.833-2.224-26.564-3.091-29.408
			C689.662,325.527,688.563,277.552,688.563,272.469z"/>
		<path fill="none" stroke="#FFFFFF" stroke-width="0.5" stroke-miterlimit="10" d="M680.633,275.831
			c0-18.368,57.688-13.618,76.055-13.618c9.184,0,60.295,3.722,66.313,9.741c6.02,6.019,9.741,57.128,9.741,66.313
			c0,4.511-0.897,30.212-2.526,34.135c-1.686,4.062-4.152,29.117-7.215,32.178c-6.018,6.019-57.129,9.742-66.313,9.742
			c-9.185,0-60.294-8.633-66.313-19.56c-1.395-2.533-2.667-26.588-3.797-29.289c-1.144-2.733-2.143-26.91-2.979-29.651
			C681.694,329.581,680.633,280.732,680.633,275.831z"/>
		<path fill="none" stroke="#FFFFFF" stroke-width="0.5" stroke-miterlimit="10" d="M672.695,279.026
			c0-17.687,58.232-13.115,75.92-13.115c8.845,0,60.743,3.585,66.539,9.38c5.795,5.795,9.381,57.696,9.381,66.54
			c0,4.344-0.865,30.433-2.433,34.21c-1.623,3.913-4,29.381-6.948,32.329c-5.796,5.795-57.694,9.38-66.539,9.38
			c-8.844,0-60.743-8.313-66.539-18.836c-1.344-2.438-2.568-26.943-3.656-29.544c-1.103-2.631-2.064-27.254-2.87-29.894
			C673.717,333.467,672.695,283.746,672.695,279.026z"/>
		<path fill="none" stroke="#FFFFFF" stroke-width="0.5" stroke-miterlimit="10" d="M664.761,282.041
			c0-17.007,58.776-12.609,75.784-12.609c8.503,0,61.193,3.445,66.767,9.019c5.571,5.573,9.018,58.263,9.018,66.767
			c0,4.177-0.831,30.655-2.338,34.287c-1.56,3.763-3.845,29.643-6.68,32.478c-5.573,5.573-58.264,9.02-66.767,9.02
			c-8.504,0-61.192-7.992-66.765-18.111c-1.292-2.346-2.47-27.301-3.517-29.801c-1.06-2.53-1.984-27.599-2.76-30.138
			C665.741,337.174,664.761,286.579,664.761,282.041z"/>
		<path fill="none" stroke="#FFFFFF" stroke-width="0.5" stroke-miterlimit="10" d="M656.835,284.861
			c0-16.326,59.324-12.105,75.651-12.105c8.163,0,61.642,3.31,66.992,8.658c5.35,5.351,8.659,58.829,8.659,66.992
			c0,4.01-0.8,30.878-2.245,34.365c-1.498,3.611-3.692,29.905-6.414,32.626c-5.351,5.35-58.829,8.659-66.992,8.659
			c-8.164,0-61.642-7.673-66.992-17.387c-1.24-2.252-2.37-27.657-3.375-30.058c-1.016-2.429-1.904-27.942-2.648-30.38
			C657.777,340.687,656.835,289.219,656.835,284.861z"/>
		<path fill="none" stroke="#FFFFFF" stroke-width="0.5" stroke-miterlimit="10" d="M648.934,287.476
			c0-15.646,59.869-11.602,75.517-11.602c7.823,0,62.091,3.173,67.218,8.299c5.127,5.126,8.298,59.394,8.298,67.218
			c0,3.844-0.765,31.1-2.15,34.441c-1.437,3.461-3.538,30.169-6.147,32.777c-5.127,5.127-59.395,8.298-67.218,8.298
			c-7.824,0-62.091-7.353-67.218-16.662c-1.189-2.158-2.272-28.015-3.235-30.314c-0.974-2.329-1.826-28.288-2.539-30.624
			C649.837,343.992,648.934,291.651,648.934,287.476z"/>
		<path fill="none" stroke="#FFFFFF" stroke-width="0.5" stroke-miterlimit="10" d="M641.064,289.869
			c0-14.966,60.416-11.097,75.382-11.097c7.482,0,62.541,3.033,67.443,7.938c4.904,4.903,7.938,59.961,7.938,67.445
			c0,3.676-0.732,31.322-2.059,34.518c-1.373,3.311-3.385,30.432-5.88,32.926c-4.902,4.904-59.961,7.939-67.443,7.939
			c-7.484,0-62.541-7.035-67.445-15.939c-1.136-2.063-2.172-28.37-3.093-30.571c-0.934-2.226-1.747-28.631-2.43-30.866
			C641.928,347.077,641.064,293.863,641.064,289.869z"/>
		<path fill="none" stroke="#FFFFFF" stroke-width="0.5" stroke-miterlimit="10" d="M633.236,292.029
			c0-14.286,60.961-10.592,75.247-10.592c7.145,0,62.99,2.895,67.671,7.577c4.683,4.681,7.576,60.527,7.576,67.671
			c0,3.509-0.697,31.543-1.964,34.595c-1.311,3.16-3.229,30.694-5.612,33.076c-4.681,4.682-60.526,7.577-67.671,7.577
			c-7.143,0-62.989-6.714-67.671-15.214c-1.085-1.97-2.074-28.726-2.953-30.826c-0.89-2.126-1.667-28.978-2.316-31.11
			C634.061,349.928,633.236,295.841,633.236,292.029z"/>
		<path fill="none" stroke="#FFFFFF" stroke-width="0.5" stroke-miterlimit="10" d="M625.461,293.942
			c0-13.606,61.509-10.088,75.113-10.088c6.803,0,63.44,2.757,67.898,7.215s7.216,61.095,7.216,67.898
			c0,3.342-0.666,31.768-1.872,34.672c-1.249,3.009-3.076,30.957-5.344,33.225c-4.458,4.458-61.096,7.215-67.898,7.215
			c-6.802,0-63.438-6.395-67.896-14.49c-1.033-1.875-1.976-29.082-2.813-31.083c-0.847-2.024-1.588-29.321-2.207-31.352
			C626.247,352.533,625.461,297.572,625.461,293.942z"/>
		<path fill="none" stroke="#FFFFFF" stroke-width="0.5" stroke-miterlimit="10" d="M617.75,295.593
			c0-12.925,62.054-9.583,74.979-9.583c6.462,0,63.888,2.619,68.124,6.854c4.235,4.235,6.854,61.661,6.854,68.124
			c0,3.174-0.632,31.989-1.776,34.749c-1.187,2.86-2.923,31.22-5.077,33.375c-4.236,4.235-61.662,6.854-68.124,6.854
			c-6.463,0-63.888-6.074-68.124-13.765c-0.982-1.782-1.876-29.438-2.671-31.339c-0.806-1.923-1.509-29.666-2.098-31.595
			C618.495,354.876,617.75,299.042,617.75,295.593z"/>
		<path fill="none" stroke="#FFFFFF" stroke-width="0.5" stroke-miterlimit="10" d="M610.11,296.971
			c0-12.245,62.6-9.078,74.845-9.078c6.123,0,64.338,2.48,68.35,6.494c4.012,4.012,6.493,62.227,6.493,68.35
			c0,3.007-0.599,32.211-1.683,34.826c-1.123,2.709-2.77,31.482-4.811,33.524c-4.012,4.012-62.227,6.495-68.35,6.495
			c-6.122,0-64.338-5.756-68.351-13.042c-0.931-1.688-1.777-29.794-2.53-31.595c-0.764-1.822-1.431-30.011-1.987-31.838
			C610.817,356.947,610.11,300.239,610.11,296.971z"/>
		<path fill="none" stroke="#FFFFFF" stroke-width="0.5" stroke-miterlimit="10" d="M602.555,298.062
			c0-11.564,63.146-8.574,74.709-8.574c5.782,0,64.787,2.344,68.576,6.133c3.79,3.791,6.135,62.794,6.135,68.577
			c0,2.84-0.566,32.433-1.592,34.903c-1.06,2.559-2.614,31.745-4.543,33.674c-3.789,3.788-62.794,6.133-68.576,6.133
			c-5.781,0-64.786-5.436-68.575-12.316c-0.878-1.594-1.68-30.152-2.392-31.852c-0.721-1.721-1.349-30.355-1.877-32.082
			C603.223,358.728,602.555,301.148,602.555,298.062z"/>
		<path fill="none" stroke="#FFFFFF" stroke-width="0.5" stroke-miterlimit="10" d="M595.092,298.852
			c0-10.885,63.69-8.071,74.574-8.071c5.443,0,65.237,2.206,68.803,5.773c3.567,3.567,5.772,63.359,5.772,68.802
			c0,2.674-0.532,32.657-1.496,34.981c-0.999,2.408-2.461,32.007-4.276,33.821c-3.565,3.567-63.359,5.773-68.803,5.773
			c-5.44,0-65.234-5.116-68.802-11.592c-0.827-1.501-1.581-30.508-2.251-32.109c-0.677-1.619-1.27-30.699-1.765-32.324
			C595.721,360.21,595.092,301.756,595.092,298.852z"/>
		<path fill="none" stroke="#FFFFFF" stroke-width="0.5" stroke-miterlimit="10" d="M587.732,299.328
			c0-10.204,64.236-7.566,74.44-7.566c5.103,0,65.687,2.068,69.03,5.412c3.342,3.344,5.411,63.926,5.411,69.029
			c0,2.506-0.499,32.879-1.403,35.058c-0.938,2.257-2.307,32.271-4.008,33.972c-3.344,3.344-63.928,5.412-69.03,5.412
			c-5.102,0-65.685-4.796-69.029-10.867c-0.773-1.407-1.48-30.865-2.108-32.366c-0.637-1.517-1.191-31.043-1.656-32.567
			C588.322,361.378,587.732,302.051,587.732,299.328z"/>
		<path fill="none" stroke="#FFFFFF" stroke-width="0.5" stroke-miterlimit="10" d="M580.486,299.476
			c0-9.524,64.782-7.062,74.308-7.062c4.761,0,66.133,1.931,69.255,5.051c3.121,3.121,5.05,64.495,5.05,69.256
			c0,2.339-0.466,33.1-1.309,35.135c-0.874,2.106-2.154,32.533-3.741,34.12c-3.122,3.121-64.494,5.051-69.255,5.051
			c-4.763,0-66.135-4.476-69.256-10.142c-0.725-1.314-1.384-31.22-1.97-32.622c-0.593-1.417-1.11-31.389-1.545-32.81
			C581.037,362.217,580.486,302.019,580.486,299.476z"/>
		<path fill="none" stroke="#FFFFFF" stroke-width="0.5" stroke-miterlimit="10" d="M573.364,299.284
			c0-8.844,65.328-6.556,74.173-6.556c4.422,0,66.584,1.791,69.48,4.689c2.899,2.898,4.691,65.061,4.691,69.482
			c0,2.172-0.434,33.324-1.217,35.211c-0.812,1.956-2,32.795-3.475,34.271c-2.896,2.897-65.059,4.69-69.48,4.69
			c-4.423,0-66.584-4.157-69.482-9.418c-0.671-1.219-1.284-31.578-1.828-32.878c-0.55-1.316-1.032-31.734-1.435-33.054
			C573.876,362.717,573.364,301.644,573.364,299.284z"/>
		<path fill="none" stroke="#FFFFFF" stroke-width="0.5" stroke-miterlimit="10" d="M566.377,298.737
			c0-8.164,65.873-6.052,74.037-6.052c4.081,0,67.033,1.654,69.708,4.329c2.676,2.675,4.329,65.627,4.329,69.708
			c0,2.006-0.398,33.545-1.122,35.289c-0.75,1.806-1.847,33.059-3.207,34.42c-2.675,2.675-65.627,4.329-69.708,4.329
			c-4.082,0-67.032-3.837-69.708-8.694c-0.619-1.126-1.185-31.935-1.687-33.135c-0.509-1.215-0.954-32.078-1.326-33.297
			C566.849,362.863,566.377,300.916,566.377,298.737z"/>
		<path fill="none" stroke="#FFFFFF" stroke-width="0.5" stroke-miterlimit="10" d="M559.533,297.823
			c0-7.483,66.42-5.548,73.902-5.548c3.742,0,67.483,1.517,69.936,3.968c2.451,2.452,3.969,66.193,3.969,69.934
			c0,1.838-0.367,33.768-1.03,35.367c-0.686,1.655-1.692,33.322-2.938,34.569c-2.452,2.452-66.193,3.968-69.936,3.968
			c-3.741,0-67.481-3.517-69.934-7.968c-0.569-1.033-1.086-32.292-1.547-33.392c-0.467-1.114-0.873-32.423-1.215-33.54
			C559.966,362.64,559.533,299.821,559.533,297.823z"/>
		<path fill="none" stroke="#FFFFFF" stroke-width="0.5" stroke-miterlimit="10" d="M552.844,296.529
			c0-6.803,66.966-5.044,73.769-5.044c3.401,0,67.931,1.378,70.161,3.608c2.228,2.229,3.606,66.759,3.606,70.16
			c0,1.671-0.332,33.991-0.935,35.444c-0.624,1.503-1.539,33.584-2.672,34.717c-2.23,2.229-66.76,3.608-70.161,3.608
			c-3.402,0-67.932-3.198-70.161-7.246c-0.516-0.938-0.988-32.646-1.406-33.646c-0.424-1.013-0.794-32.767-1.104-33.783
			C553.236,362.036,552.844,298.344,552.844,296.529z"/>
		<path fill="none" stroke="#FFFFFF" stroke-width="0.5" stroke-miterlimit="10" d="M546.318,294.839
			c0-6.122,67.512-4.54,73.635-4.54c3.061,0,68.381,1.241,70.387,3.247c2.006,2.006,3.247,67.326,3.247,70.387
			c0,1.503-0.299,34.211-0.842,35.52c-0.563,1.354-1.385,33.846-2.405,34.868c-2.006,2.006-67.326,3.248-70.387,3.248
			c-3.063,0-68.381-2.878-70.388-6.521c-0.465-0.844-0.889-33.003-1.266-33.903c-0.381-0.912-0.714-33.111-0.994-34.025
			C546.673,361.038,546.318,296.473,546.318,294.839z"/>
		<path fill="none" stroke="#FFFFFF" stroke-width="0.5" stroke-miterlimit="10" d="M539.969,292.742
			c0-5.441,68.058-4.035,73.5-4.035c2.721,0,68.829,1.103,70.612,2.886c1.783,1.783,2.886,67.892,2.886,70.613
			c0,1.336-0.266,34.434-0.747,35.597c-0.499,1.204-1.23,34.109-2.139,35.018c-1.783,1.782-67.892,2.886-70.612,2.886
			c-2.723,0-68.83-2.558-70.613-5.795c-0.414-0.75-0.791-33.361-1.126-34.161c-0.339-0.81-0.635-33.456-0.883-34.268
			C540.282,359.633,539.969,294.194,539.969,292.742z"/>
		<path fill="none" stroke="#FFFFFF" stroke-width="0.5" stroke-miterlimit="10" d="M533.803,290.223
			c0-4.761,68.604-3.531,73.365-3.531c2.381,0,69.28,0.966,70.839,2.526c1.562,1.56,2.526,68.458,2.526,70.839
			c0,1.17-0.233,34.657-0.655,35.674c-0.436,1.053-1.077,34.373-1.871,35.167c-1.559,1.561-68.458,2.525-70.839,2.525
			c-2.382,0-69.279-2.238-70.84-5.072c-0.362-0.656-0.691-33.716-0.984-34.416c-0.297-0.709-0.556-33.8-0.772-34.511
			C534.077,357.807,533.803,291.495,533.803,290.223z"/>
		<path fill="none" stroke="#FFFFFF" stroke-width="0.5" stroke-miterlimit="10" d="M527.832,287.271
			c0-4.082,69.148-3.025,73.23-3.025c2.041,0,69.729,0.827,71.067,2.165c1.337,1.337,2.164,69.025,2.164,71.066
			c0,1.002-0.199,34.878-0.562,35.75c-0.375,0.902-0.922,34.635-1.603,35.316c-1.339,1.337-69.026,2.165-71.067,2.165
			s-69.729-1.919-71.066-4.348c-0.31-0.562-0.592-34.073-0.844-34.673c-0.254-0.607-0.475-34.144-0.662-34.754
			C528.067,355.545,527.832,288.36,527.832,287.271z"/>
		<path fill="none" stroke="#FFFFFF" stroke-width="0.5" stroke-miterlimit="10" d="M522.066,283.87
			c0-3.401,69.695-2.522,73.098-2.522c1.7,0,70.177,0.689,71.292,1.804c1.115,1.114,1.804,69.592,1.804,71.292
			c0,0.836-0.167,35.102-0.467,35.828c-0.313,0.752-0.771,34.898-1.337,35.465c-1.115,1.114-69.592,1.805-71.292,1.805
			c-1.701,0-70.178-1.6-71.293-3.624c-0.258-0.468-0.493-34.429-0.703-34.929c-0.212-0.506-0.397-34.489-0.552-34.997
			C522.263,352.836,522.066,284.779,522.066,283.87z"/>
		<path fill="none" stroke="#FFFFFF" stroke-width="0.5" stroke-miterlimit="10" d="M516.518,280.009
			c0-2.721,70.24-2.018,72.962-2.018c1.359,0,70.627,0.552,71.518,1.444c0.892,0.891,1.444,70.158,1.444,71.519
			c0,0.668-0.134,35.323-0.374,35.905c-0.25,0.602-0.615,35.161-1.07,35.614c-0.891,0.893-70.158,1.443-71.518,1.443
			c-1.36,0-70.628-1.279-71.52-2.897c-0.207-0.376-0.395-34.786-0.562-35.187c-0.17-0.405-0.318-34.833-0.442-35.24
			C516.674,349.667,516.518,280.735,516.518,280.009z"/>
		<path fill="none" stroke="#FFFFFF" stroke-width="0.5" stroke-miterlimit="10" d="M511.193,275.672
			c0-2.04,70.786-1.513,72.826-1.513c1.021,0,71.077,0.413,71.745,1.082c0.669,0.669,1.083,70.725,1.083,71.745
			c0,0.501-0.1,35.545-0.281,35.981c-0.187,0.451-0.461,35.423-0.802,35.763c-0.668,0.669-70.724,1.083-71.745,1.083
			c-1.02,0-71.076-0.958-71.745-2.173c-0.153-0.282-0.296-35.143-0.422-35.443c-0.127-0.303-0.237-35.178-0.331-35.483
			C511.311,346.022,511.193,276.217,511.193,275.672z"/>
		<path fill="none" stroke="#FFFFFF" stroke-width="0.5" stroke-miterlimit="10" d="M506.104,270.848
			c0-1.361,71.333-1.009,72.693-1.009c0.681,0,71.526,0.276,71.972,0.722c0.445,0.446,0.723,71.291,0.723,71.971
			c0,0.334-0.067,35.769-0.188,36.058c-0.125,0.301-0.307,35.687-0.534,35.914c-0.445,0.446-71.291,0.721-71.972,0.721
			c-0.68,0-71.525-0.639-71.971-1.449c-0.104-0.187-0.198-35.499-0.282-35.699c-0.085-0.201-0.158-35.522-0.22-35.726
			C506.183,341.889,506.104,271.211,506.104,270.848z"/>
		<path fill="none" stroke="#FFFFFF" stroke-width="0.5" stroke-miterlimit="10" d="M501.262,265.522
			c0-0.68,71.879-0.504,72.559-0.504c0.34,0,71.975,0.138,72.198,0.36c0.222,0.223,0.359,71.858,0.359,72.198
			c0,0.167-0.032,35.99-0.093,36.135c-0.062,0.15-0.154,35.949-0.267,36.063c-0.224,0.223-71.858,0.361-72.198,0.361
			s-71.975-0.319-72.198-0.725c-0.051-0.094-0.098-35.855-0.14-35.955c-0.043-0.101-0.079-35.867-0.111-35.969
			C501.301,337.255,501.262,265.705,501.262,265.522z"/>
		<polygon fill="none" stroke="#FFFFFF" stroke-width="0.5" stroke-miterlimit="10" points="496.676,404.531 569.1,404.531 
			641.523,404.531 641.523,368.319 641.523,332.107 641.523,259.682 569.1,259.682 496.676,259.682 496.676,332.107 
			496.676,368.319 		"/>
		<polygon fill="none" stroke="#FFFFFF" stroke-width="0.5" stroke-miterlimit="10" points="491.654,397.028 537.193,398.617 
			586.72,399.457 637.319,398.598 637.319,254.274 499.479,253.44 493.153,253.479 		"/>
		<polygon fill="none" stroke="#FFFFFF" stroke-width="0.5" stroke-miterlimit="10" points="486.59,389.652 531.5,392.829 
			581.74,394.508 633.071,392.791 633.071,248.992 495.883,247.322 489.59,247.399 		"/>
		<polygon fill="none" stroke="#FFFFFF" stroke-width="0.5" stroke-miterlimit="10" points="481.485,382.403 525.765,387.167 
			576.72,389.686 628.784,387.109 628.784,243.834 492.247,241.33 485.984,241.448 		"/>
		<polygon fill="none" stroke="#FFFFFF" stroke-width="0.5" stroke-miterlimit="10" points="476.34,375.281 519.99,381.632 
			571.659,384.991 624.454,381.556 624.454,238.807 488.57,235.467 482.338,235.624 		"/>
		<polygon fill="none" stroke="#FFFFFF" stroke-width="0.5" stroke-miterlimit="10" points="471.158,368.285 514.179,376.226 
			566.562,380.422 620.09,376.128 620.09,233.905 484.856,229.73 478.655,229.925 		"/>
		<polygon fill="none" stroke="#FFFFFF" stroke-width="0.5" stroke-miterlimit="10" points="465.941,361.417 508.332,370.947 
			561.429,375.982 615.688,370.83 615.688,229.13 481.109,224.122 474.938,224.356 		"/>
		<polygon fill="none" stroke="#FFFFFF" stroke-width="0.5" stroke-miterlimit="10" points="460.689,354.679 502.451,365.795 
			556.263,371.671 611.254,365.659 611.254,224.485 477.327,218.64 471.187,218.914 		"/>
		<polygon fill="none" stroke="#FFFFFF" stroke-width="0.5" stroke-miterlimit="10" points="455.408,348.068 496.54,360.772 
			551.065,367.489 606.789,360.618 606.789,219.968 473.514,213.289 467.404,213.602 		"/>
		<polygon fill="none" stroke="#FFFFFF" stroke-width="0.5" stroke-miterlimit="10" points="450.098,341.587 490.599,355.88 
			545.839,363.435 602.294,355.706 602.294,215.581 469.671,208.066 463.593,208.418 		"/>
		<polygon fill="none" stroke="#FFFFFF" stroke-width="0.5" stroke-miterlimit="10" points="444.76,335.236 484.63,351.116 
			540.586,359.511 597.773,350.923 597.773,211.323 465.803,202.973 459.755,203.365 		"/>
		<polygon fill="none" stroke="#FFFFFF" stroke-width="0.5" stroke-miterlimit="10" points="439.396,329.015 478.638,346.483 
			535.308,355.717 593.227,346.27 593.227,207.195 461.909,198.011 455.892,198.441 		"/>
		<polygon fill="none" stroke="#FFFFFF" stroke-width="0.5" stroke-miterlimit="10" points="434.011,322.925 472.622,341.98 
			530.007,352.054 588.657,341.749 588.657,203.198 457.991,193.179 452.006,193.648 		"/>
		<polygon fill="none" stroke="#FFFFFF" stroke-width="0.5" stroke-miterlimit="10" points="428.604,316.964 466.586,337.608 
			524.685,348.522 584.068,337.358 584.068,199.332 454.054,188.478 448.099,188.987 		"/>
		<polygon fill="none" stroke="#FFFFFF" stroke-width="0.5" stroke-miterlimit="10" points="423.18,311.137 460.532,333.369 
			519.345,345.122 579.459,333.098 579.459,195.597 450.098,183.908 444.173,184.456 		"/>
		<polygon fill="none" stroke="#FFFFFF" stroke-width="0.5" stroke-miterlimit="10" points="417.736,305.44 454.46,329.261 
			513.988,341.853 574.835,328.971 574.835,191.995 446.125,179.471 440.231,180.058 		"/>
		<polygon fill="none" stroke="#FFFFFF" stroke-width="0.5" stroke-miterlimit="10" points="412.281,299.876 448.374,325.285 
			508.616,338.717 570.195,324.976 570.195,188.524 442.137,175.165 436.274,175.792 		"/>
		<polygon fill="none" stroke="#FFFFFF" stroke-width="0.5" stroke-miterlimit="10" points="406.813,294.447 442.275,321.442 
			503.232,335.714 565.542,321.114 565.542,185.188 438.137,170.993 432.305,171.659 		"/>
		<polygon fill="none" stroke="#FFFFFF" stroke-width="0.5" stroke-miterlimit="10" points="401.332,289.149 436.166,317.734 
			497.838,332.844 560.88,317.385 560.88,181.983 434.127,166.954 428.325,167.659 		"/>
		<polygon fill="none" stroke="#FFFFFF" stroke-width="0.5" stroke-miterlimit="10" points="395.846,283.986 430.048,314.158 
			492.435,330.107 556.208,313.791 556.208,178.914 430.108,163.05 424.338,163.794 		"/>
		<polygon fill="none" stroke="#FFFFFF" stroke-width="0.5" stroke-miterlimit="10" points="390.352,278.957 423.925,310.717 
			487.025,327.506 551.532,310.33 551.532,175.978 426.082,159.279 420.343,160.062 		"/>
		<polygon fill="none" stroke="#FFFFFF" stroke-width="0.5" stroke-miterlimit="10" points="384.854,274.062 417.797,307.411 
			481.612,325.04 546.85,307.004 546.85,173.177 422.053,155.644 416.345,156.466 		"/>
		<polygon fill="none" stroke="#FFFFFF" stroke-width="0.5" stroke-miterlimit="10" points="379.354,269.303 411.667,304.239 
			476.197,322.707 542.166,303.813 542.166,170.511 418.021,152.143 412.345,153.004 		"/>
		<polygon fill="none" stroke="#FFFFFF" stroke-width="0.5" stroke-miterlimit="10" points="373.854,264.679 405.538,301.204 
			470.781,320.511 537.483,300.759 537.483,167.98 413.991,148.778 408.344,149.679 		"/>
		<polygon fill="none" stroke="#FFFFFF" stroke-width="0.5" stroke-miterlimit="10" points="368.354,260.192 399.41,298.304 
			465.368,318.451 532.801,297.84 532.801,165.587 409.961,145.548 404.345,146.488 		"/>
		<polygon fill="none" stroke="#FFFFFF" stroke-width="0.5" stroke-miterlimit="10" points="362.86,255.841 393.286,295.542 
			459.958,316.529 528.124,295.058 528.124,163.33 405.936,142.457 400.351,143.436 		"/>
		<polygon fill="none" stroke="#FFFFFF" stroke-width="0.5" stroke-miterlimit="10" points="357.373,251.627 387.168,292.916 
			454.555,314.742 523.452,292.413 523.452,161.21 401.918,139.501 396.362,140.52 		"/>
		<polygon fill="none" stroke="#FFFFFF" stroke-width="0.5" stroke-miterlimit="10" points="351.893,247.551 381.058,290.428 
			449.16,313.094 518.789,289.905 518.789,159.227 397.906,136.684 392.382,137.741 		"/>
		<polygon fill="none" stroke="#FFFFFF" stroke-width="0.5" stroke-miterlimit="10" points="346.423,243.613 374.959,288.078 
			443.775,311.583 514.137,287.536 514.137,157.382 393.905,134.003 388.412,135.101 		"/>
		<polygon fill="none" stroke="#FFFFFF" stroke-width="0.5" stroke-miterlimit="10" points="340.967,239.814 368.872,285.866 
			438.403,310.21 509.495,285.305 509.495,155.676 389.917,131.462 384.455,132.598 		"/>
		<polygon fill="none" stroke="#FFFFFF" stroke-width="0.5" stroke-miterlimit="10" points="335.523,236.152 362.8,283.792 
			433.045,308.977 504.87,283.212 504.87,154.109 385.944,129.06 380.512,130.235 		"/>
		<polygon fill="none" stroke="#FFFFFF" stroke-width="0.5" stroke-miterlimit="10" points="330.098,232.631 356.744,281.859 
			427.703,307.882 500.26,281.261 500.26,152.68 381.987,126.797 376.586,128.011 		"/>
		<polygon fill="none" stroke="#FFFFFF" stroke-width="0.5" stroke-miterlimit="10" points="324.689,229.249 350.707,280.066 
			422.38,306.928 495.669,279.447 495.669,151.392 378.047,124.674 372.678,125.927 		"/>
		<polygon fill="none" stroke="#FFFFFF" stroke-width="0.5" stroke-miterlimit="10" points="319.303,226.008 344.691,278.412 
			417.078,306.115 491.101,277.774 491.101,150.244 374.13,122.691 368.791,123.983 		"/>
		<polygon fill="none" stroke="#FFFFFF" stroke-width="0.5" stroke-miterlimit="10" points="313.939,222.907 338.697,276.899 
			411.799,305.442 486.552,276.242 486.552,149.236 370.235,120.849 364.927,122.181 		"/>
		<polygon fill="none" stroke="#FFFFFF" stroke-width="0.5" stroke-miterlimit="10" points="308.6,219.948 332.729,275.528 
			406.544,304.909 482.03,274.852 482.03,148.371 366.365,119.148 361.087,120.519 		"/>
		<polygon fill="none" stroke="#FFFFFF" stroke-width="0.5" stroke-miterlimit="10" points="303.287,217.13 326.785,274.298 
			401.316,304.519 477.533,273.602 477.533,147.646 362.521,117.588 357.274,118.998 		"/>
		<polygon fill="none" stroke="#FFFFFF" stroke-width="0.5" stroke-miterlimit="10" points="298.004,214.454 320.872,273.21 
			396.118,304.271 473.066,272.496 473.066,147.063 358.706,116.171 353.49,117.62 		"/>
		<polygon fill="none" stroke="#FFFFFF" stroke-width="0.5" stroke-miterlimit="10" points="292.752,211.921 314.99,272.265 
			390.95,304.165 468.631,271.531 468.631,146.624 354.924,114.896 349.738,116.386 		"/>
		<polygon fill="none" stroke="#FFFFFF" stroke-width="0.5" stroke-miterlimit="10" points="287.533,209.531 309.141,271.463 
			385.815,304.202 464.229,270.708 464.229,146.327 351.173,113.765 346.019,115.292 		"/>
		<polygon fill="none" stroke="#FFFFFF" stroke-width="0.5" stroke-miterlimit="10" points="282.35,207.284 303.328,270.804 
			380.717,304.383 459.862,270.031 459.862,146.175 347.457,112.778 342.334,114.343 		"/>
		<polygon fill="none" stroke="#FFFFFF" stroke-width="0.5" stroke-miterlimit="10" points="277.202,205.182 297.552,270.29 
			375.654,304.708 455.531,269.498 455.531,146.165 343.779,111.933 338.687,113.54 		"/>
		<polygon fill="none" stroke="#FFFFFF" stroke-width="0.5" stroke-miterlimit="10" points="272.096,203.224 291.814,269.92 
			370.632,305.178 451.241,269.108 451.241,146.301 340.142,111.233 335.079,112.878 		"/>
		<polygon fill="none" stroke="#FFFFFF" stroke-width="0.5" stroke-miterlimit="10" points="267.029,201.411 286.119,269.694 
			365.65,305.792 446.991,268.863 446.991,146.581 336.544,110.679 331.513,112.363 		"/>
		<polygon fill="none" stroke="#FFFFFF" stroke-width="0.5" stroke-miterlimit="10" points="262.006,199.743 280.466,269.615 
			360.712,306.551 442.785,268.764 442.785,147.006 332.989,110.269 327.989,111.992 		"/>
		<polygon fill="none" stroke="#FFFFFF" stroke-width="0.5" stroke-miterlimit="10" points="257.029,198.22 274.858,269.681 
			355.82,307.457 438.625,268.811 438.625,147.578 329.481,110.006 324.513,111.768 		"/>
		<polygon fill="none" stroke="#FFFFFF" stroke-width="0.5" stroke-miterlimit="10" points="252.1,196.844 269.3,269.893 
			350.977,308.509 434.512,269.003 434.512,148.295 326.021,109.888 321.082,111.69 		"/>
		<polygon fill="none" stroke="#FFFFFF" stroke-width="0.5" stroke-miterlimit="10" points="247.221,195.615 263.79,270.252 
			346.182,309.707 430.449,269.343 430.449,149.16 322.61,109.918 317.702,111.759 		"/>
		<polygon fill="none" stroke="#FFFFFF" stroke-width="0.5" stroke-miterlimit="10" points="242.393,194.533 258.332,270.757 
			341.438,311.052 426.438,269.83 426.438,150.171 319.251,110.095 314.374,111.974 		"/>
		<polygon fill="none" stroke="#FFFFFF" stroke-width="0.5" stroke-miterlimit="10" points="237.617,193.599 252.93,271.411 
			336.748,312.545 422.479,270.464 422.479,151.331 315.945,110.417 311.1,112.337 		"/>
		<polygon fill="none" stroke="#FFFFFF" stroke-width="0.5" stroke-miterlimit="10" points="232.9,192.813 247.581,272.213 
			332.115,314.187 418.579,271.247 418.579,152.638 312.697,110.891 307.881,112.849 		"/>
		<polygon fill="none" stroke="#FFFFFF" stroke-width="0.5" stroke-miterlimit="10" points="228.239,192.175 242.291,273.164 
			327.539,315.976 414.734,272.177 414.734,154.094 309.505,111.511 304.721,113.508 		"/>
		<polygon fill="none" stroke="#FFFFFF" stroke-width="0.5" stroke-miterlimit="10" points="223.64,191.687 237.062,274.263 
			323.023,317.916 410.951,273.257 410.951,155.698 306.373,112.281 301.62,114.318 		"/>
		<polygon fill="none" stroke="#FFFFFF" stroke-width="0.5" stroke-miterlimit="10" points="219.102,191.347 231.893,275.511 
			318.57,320.003 407.23,274.486 407.23,157.453 303.304,113.2 298.581,115.277 		"/>
		<polygon fill="none" stroke="#FFFFFF" stroke-width="0.5" stroke-miterlimit="10" points="214.627,191.159 226.789,276.91 
			314.182,322.241 403.572,275.867 403.572,159.357 300.3,114.27 295.607,116.386 		"/>
		<polygon fill="none" stroke="#FFFFFF" stroke-width="0.5" stroke-miterlimit="10" points="210.219,191.119 221.751,278.46 
			309.858,324.63 399.981,277.396 399.981,161.411 297.361,115.49 292.699,117.644 		"/>
		<polygon fill="none" stroke="#FFFFFF" stroke-width="0.5" stroke-miterlimit="10" points="205.881,191.231 216.782,280.16 
			305.604,327.17 396.458,279.077 396.458,163.617 294.489,116.86 289.859,119.054 		"/>
		<polygon fill="none" stroke="#FFFFFF" stroke-width="0.5" stroke-miterlimit="10" points="201.611,191.495 211.884,282.011 
			301.42,329.861 393.007,280.909 393.007,165.974 291.689,118.382 287.091,120.615 		"/>
		<polygon fill="none" stroke="#FFFFFF" stroke-width="0.5" stroke-miterlimit="10" points="197.416,191.911 207.059,284.015 
			297.308,332.704 389.627,282.893 389.627,168.482 288.963,120.057 284.395,122.328 		"/>
		<polygon fill="none" stroke="#FFFFFF" stroke-width="0.5" stroke-miterlimit="10" points="193.294,192.478 202.307,286.17 
			293.271,335.699 386.321,285.029 386.321,171.144 286.31,121.882 281.772,124.193 		"/>
		<polygon fill="none" stroke="#FFFFFF" stroke-width="0.5" stroke-miterlimit="10" points="189.248,193.198 197.632,288.478 
			289.311,338.847 383.094,287.318 383.094,173.957 283.732,123.861 279.227,126.211 		"/>
		<polygon fill="none" stroke="#FFFFFF" stroke-width="0.5" stroke-miterlimit="10" points="185.281,194.071 193.035,290.938 
			285.428,342.146 379.942,289.761 379.942,176.924 281.234,125.992 276.76,128.382 		"/>
		<polygon fill="none" stroke="#FFFFFF" stroke-width="0.5" stroke-miterlimit="10" points="181.396,195.098 188.52,293.555 
			281.626,345.602 376.874,292.356 376.874,180.044 278.819,128.279 274.374,130.707 		"/>
		<polygon fill="none" stroke="#FFFFFF" stroke-width="0.5" stroke-miterlimit="10" points="177.594,196.279 184.087,296.323 
			277.908,349.21 373.888,295.106 373.888,183.318 276.484,130.718 272.07,133.186 		"/>
		<polygon fill="none" stroke="#FFFFFF" stroke-width="0.5" stroke-miterlimit="10" points="173.875,197.615 179.739,299.248 
			274.274,352.973 370.985,298.01 370.985,186.748 274.234,133.312 269.853,135.819 		"/>
		<polygon fill="none" stroke="#FFFFFF" stroke-width="0.5" stroke-miterlimit="10" points="170.244,199.106 175.479,302.326 
			270.729,356.892 368.172,301.069 368.172,190.332 272.072,136.061 267.721,138.607 		"/>
		<polygon fill="none" stroke="#FFFFFF" stroke-width="0.5" stroke-miterlimit="10" points="166.702,200.752 171.307,305.56 
			267.271,360.965 365.446,304.284 365.446,194.072 270,138.966 		"/>
		<path fill="none" stroke="#FFFFFF" stroke-width="0.5" stroke-miterlimit="10" d="M165.261,206.015
			c0-0.132,4.516,102.961,4.479,102.841c-0.041-0.129,94.41,54.314,94.332,54.205c-0.081-0.112,96.509-56.034,96.396-56.116
			c-0.106-0.079-0.228-108.683-0.356-108.726c-0.125-0.04-94.259-54.334-94.397-54.334c-0.707,0-35.195,20.861-35.195,21.567
			s-33.335,21.562-32.63,21.562C198.596,187.013,165.261,206.722,165.261,206.015z"/>
		<path fill="none" stroke="#FFFFFF" stroke-width="0.5" stroke-miterlimit="10" d="M163.582,211.159
			c0-0.263,4.426,101.115,4.353,100.875c-0.081-0.262,92.854,53.221,92.699,53.003c-0.16-0.226,94.843-55.388,94.62-55.551
			c-0.217-0.157-0.456-107.154-0.716-107.239c-0.25-0.081-93.07-53.561-93.348-53.561c-1.414,0-35.954,21.12-35.954,22.534
			c0,1.413-32.24,22.528-30.827,22.528S163.582,212.573,163.582,211.159z"/>
		<path fill="none" stroke="#FFFFFF" stroke-width="0.5" stroke-miterlimit="10" d="M161.674,216.184
			c0-0.395,4.337,99.268,4.227,98.909c-0.122-0.393,91.298,52.129,91.065,51.801c-0.24-0.338,93.179-54.741,92.843-54.986
			c-0.322-0.236-0.685-105.625-1.072-105.751c-0.375-0.122-91.882-52.79-92.298-52.79c-2.12,0-36.711,21.381-36.711,23.502
			c0,2.12-31.147,23.496-29.027,23.496S161.674,218.304,161.674,216.184z"/>
		<path fill="none" stroke="#FFFFFF" stroke-width="0.5" stroke-miterlimit="10" d="M159.545,221.089
			c0-0.527,4.246,97.422,4.1,96.943c-0.162-0.523,89.743,51.036,89.433,50.6c-0.32-0.452,91.513-54.095,91.065-54.421
			c-0.43-0.315-0.911-104.096-1.43-104.264c-0.5-0.164-90.694-52.017-91.248-52.017c-2.827,0-37.471,21.642-37.471,24.468
			c0,2.828-30.052,24.465-27.224,24.465C189.598,206.863,159.545,223.916,159.545,221.089z"/>
		<path fill="none" stroke="#FFFFFF" stroke-width="0.5" stroke-miterlimit="10" d="M157.202,225.874
			c0-0.659,4.156,95.575,3.973,94.976c-0.202-0.653,88.188,49.945,87.8,49.399c-0.4-0.563,89.847-53.448,89.289-53.855
			c-0.539-0.393-1.14-102.567-1.787-102.778c-0.625-0.203-89.507-51.244-90.2-51.244c-3.533,0-38.226,21.902-38.226,25.436
			s-28.957,25.431-25.424,25.431C186.159,213.238,157.202,229.408,157.202,225.874z"/>
		<path fill="none" stroke="#FFFFFF" stroke-width="0.5" stroke-miterlimit="10" d="M154.654,230.538
			c0-0.79,4.067,93.727,3.847,93.01c-0.243-0.785,86.633,48.852,86.168,48.198c-0.482-0.678,88.18-52.802,87.509-53.291
			c-0.645-0.472-1.367-101.039-2.143-101.292c-0.749-0.244-88.319-50.472-89.151-50.472c-4.24,0-38.985,22.164-38.985,26.404
			c0,4.24-27.861,26.398-23.622,26.398C182.517,219.493,154.654,234.777,154.654,230.538z"/>
		<path fill="none" stroke="#FFFFFF" stroke-width="0.5" stroke-miterlimit="10" d="M151.91,235.08
			c0-0.922,3.978,91.88,3.719,91.043c-0.283-0.915,85.077,47.761,84.535,46.997c-0.563-0.79,86.515-52.155,85.731-52.726
			c-0.753-0.55-1.594-99.509-2.501-99.804c-0.874-0.286-87.131-49.701-88.1-49.701c-4.947,0-39.743,22.425-39.743,27.372
			c0,4.947-26.769,27.366-21.821,27.366S151.91,240.026,151.91,235.08z"/>
		<path fill="none" stroke="#FFFFFF" stroke-width="0.5" stroke-miterlimit="10" d="M148.975,239.499
			c0-1.053,3.889,90.035,3.593,89.078c-0.323-1.045,83.521,46.669,82.901,45.795c-0.641-0.903,84.851-51.508,83.956-52.161
			c-0.86-0.629-1.823-97.98-2.857-98.317c-1-0.325-85.944-48.928-87.053-48.928c-5.653,0-40.501,22.685-40.501,28.339
			c0,5.652-25.673,28.334-20.019,28.334C174.648,231.639,148.975,245.153,148.975,239.499z"/>
		<path fill="none" stroke="#FFFFFF" stroke-width="0.5" stroke-miterlimit="10" d="M145.859,243.796
			c0-1.186,3.798,88.187,3.465,87.111c-0.363-1.177,81.968,45.576,81.269,44.594c-0.72-1.016,83.186-50.862,82.179-51.596
			c-0.969-0.708-2.051-96.451-3.216-96.83c-1.124-0.367-84.756-48.156-86.002-48.156c-6.36,0-41.258,22.945-41.258,29.306
			c0,6.36-24.579,29.303-18.218,29.303C170.438,237.528,145.859,250.157,145.859,243.796z"/>
		<path fill="none" stroke="#FFFFFF" stroke-width="0.5" stroke-miterlimit="10" d="M142.568,247.971
			c0-1.317,3.708,86.339,3.34,85.145c-0.404-1.309,80.411,44.483,79.637,43.393c-0.802-1.129,81.518-50.216,80.4-51.031
			c-1.075-0.787-2.278-94.922-3.572-95.344c-1.249-0.406-83.568-47.384-84.953-47.384c-7.067,0-42.017,23.207-42.017,30.274
			c0,7.067-23.483,30.269-16.418,30.269C166.053,243.292,142.568,255.038,142.568,247.971z"/>
		<path fill="none" stroke="#FFFFFF" stroke-width="0.5" stroke-miterlimit="10" d="M139.114,252.022
			c0-1.449,3.617,84.493,3.212,83.178c-0.444-1.439,78.856,43.393,78.004,42.191c-0.883-1.24,79.852-49.568,78.624-50.466
			c-1.185-0.864-2.507-93.392-3.931-93.856c-1.375-0.447-82.381-46.611-83.903-46.611c-7.774,0-42.775,23.467-42.775,31.241
			c0,7.774-22.389,31.237-14.615,31.237C161.504,248.936,139.114,259.795,139.114,252.022z"/>
		<path fill="none" stroke="#FFFFFF" stroke-width="0.5" stroke-miterlimit="10" d="M135.502,255.948
			c0-1.581,3.527,82.647,3.085,81.212c-0.485-1.57,77.302,42.3,76.37,40.99c-0.962-1.354,78.188-48.922,76.848-49.902
			c-1.291-0.942-2.736-91.862-4.287-92.368c-1.5-0.489-81.193-45.84-82.855-45.84c-8.479,0-43.531,23.729-43.531,32.208
			c0,8.481-21.295,32.206-12.815,32.206C156.797,254.454,135.502,264.428,135.502,255.948z"/>
		<path fill="none" stroke="#FFFFFF" stroke-width="0.5" stroke-miterlimit="10" d="M131.739,259.75
			c0-1.712,3.438,80.8,2.959,79.246c-0.525-1.701,75.745,41.207,74.737,39.788c-1.042-1.467,76.522-48.274,75.07-49.335
			c-1.4-1.022-2.963-90.335-4.646-90.882c-1.624-0.529-80.004-45.068-81.805-45.068c-9.187,0-44.29,23.99-44.29,33.176
			c0,9.187-20.2,33.173-11.012,33.173C151.938,259.848,131.739,268.937,131.739,259.75z"/>
		<path fill="none" stroke="#FFFFFF" stroke-width="0.5" stroke-miterlimit="10" d="M127.835,263.427
			c0-1.844,3.35,78.953,2.833,77.279c-0.566-1.831,74.189,40.116,73.104,38.588c-1.122-1.58,74.856-47.628,73.291-48.771
			c-1.505-1.1-3.19-88.805-5.001-89.396c-1.749-0.569-78.817-44.295-80.755-44.295c-9.896,0-45.048,24.25-45.048,34.144
			s-19.107,34.14-9.212,34.14C146.94,265.116,127.835,273.321,127.835,263.427z"/>
		<path fill="none" stroke="#FFFFFF" stroke-width="0.5" stroke-miterlimit="10" d="M123.798,266.978
			c0-1.976,3.26,77.106,2.705,75.313c-0.605-1.962,72.636,39.023,71.474,37.386c-1.203-1.693,73.188-46.981,71.513-48.206
			c-1.613-1.179-3.418-87.276-5.358-87.909c-1.875-0.61-77.629-43.522-79.706-43.522c-10.602,0-45.807,24.511-45.807,35.111
			c0,10.602-18.01,35.108-7.41,35.108C141.81,270.259,123.798,277.578,123.798,266.978z"/>
		<path fill="none" stroke="#FFFFFF" stroke-width="0.5" stroke-miterlimit="10" d="M119.635,270.402
			c0-2.107,3.17,75.26,2.578,73.347c-0.646-2.092,71.08,37.931,69.841,36.185c-1.283-1.806,71.523-46.335,69.735-47.641
			c-1.72-1.257-3.646-85.747-5.716-86.422c-1.999-0.651-76.441-42.75-78.657-42.75c-11.307,0-46.563,24.771-46.563,36.078
			c0,11.308-16.917,36.076-5.61,36.076C136.552,275.274,119.635,281.71,119.635,270.402z"/>
		<path fill="none" stroke="#FFFFFF" stroke-width="0.5" stroke-miterlimit="10" d="M115.701,273.699
			c0-2.239,3.08,73.414,2.452,71.38c-0.687-2.223,69.525,36.84,68.207,34.984c-1.362-1.919,69.859-45.688,67.959-47.077
			c-1.829-1.336-3.874-84.218-6.072-84.934c-2.124-0.693-75.253-41.979-77.608-41.979c-12.014,0-47.321,25.032-47.321,37.046
			c0,12.014-15.821,37.042-3.808,37.042C131.522,280.164,115.701,285.714,115.701,273.699z"/>
		<path fill="none" stroke="#FFFFFF" stroke-width="0.5" stroke-miterlimit="10" d="M112.548,276.87
			c0-2.371,2.989,71.566,2.324,69.414c-0.727-2.354,67.971,35.747,66.574,33.783c-1.442-2.031,68.194-45.042,66.183-46.511
			c-1.936-1.414-4.103-82.688-6.431-83.447c-2.249-0.734-74.064-41.206-76.558-41.206c-12.722,0-48.079,25.292-48.079,38.012
			c0,12.721-14.729,38.011-2.007,38.011C127.275,284.926,112.548,289.591,112.548,276.87z"/>
		<path fill="none" stroke="#FFFFFF" stroke-width="0.5" stroke-miterlimit="10" d="M109.324,279.912
			c0-2.501,2.901,69.719,2.199,67.448c-0.768-2.486,66.414,34.655,64.942,32.58c-1.524-2.144,66.526-44.394,64.404-45.945
			c-2.044-1.494-4.33-81.16-6.788-81.961c-2.373-0.773-72.877-40.434-75.51-40.434c-13.428,0-48.837,25.554-48.837,38.98
			c0,13.428-13.633,38.978-0.205,38.978S109.324,293.339,109.324,279.912z"/>
		<path fill="none" stroke="#FFFFFF" stroke-width="0.5" stroke-miterlimit="10" d="M106.044,282.826
			c0-2.633,2.812,67.873,2.071,65.482c-0.808-2.616,64.86,33.562,63.31,31.378c-1.604-2.257,64.861-43.748,62.628-45.379
			c-2.153-1.572-4.56-79.631-7.146-80.475c-2.499-0.814-71.688-39.662-74.46-39.662c-14.133,0-49.594,25.815-49.594,39.949
			s-12.538,39.945,1.595,39.945C118.582,294.065,106.044,296.96,106.044,282.826z"/>
		<path fill="none" stroke="#FFFFFF" stroke-width="0.5" stroke-miterlimit="10" d="M102.715,285.611
			c0-2.766,2.722,66.026,1.944,63.515c-0.848-2.747,63.306,32.472,61.676,30.179c-1.683-2.37,63.196-43.101,60.852-44.815
			c-2.26-1.65-4.786-78.102-7.503-78.988c-2.623-0.855-70.501-38.889-73.41-38.889c-14.841,0-50.354,26.075-50.354,40.916
			c0,14.84-11.442,40.914,3.398,40.914C114.158,298.442,102.715,300.452,102.715,285.611z"/>
		<path fill="none" stroke="#FFFFFF" stroke-width="0.5" stroke-miterlimit="10" d="M99.348,288.266
			c0-2.897,2.632,64.179,1.818,61.549c-0.889-2.877,61.749,31.378,60.043,28.977c-1.763-2.483,61.531-42.455,59.073-44.25
			c-2.367-1.729-5.014-76.573-7.86-77.5c-2.749-0.896-69.313-38.117-72.36-38.117c-15.548,0-51.11,26.336-51.11,41.884
			c0,15.547-10.349,41.879,5.198,41.879C109.697,302.688,99.348,303.814,99.348,288.266z"/>
		<path fill="none" stroke="#FFFFFF" stroke-width="0.5" stroke-miterlimit="10" d="M95.952,290.792
			c0-3.029,2.544,62.333,1.692,59.583c-0.929-3.009,60.194,30.287,58.411,27.776c-1.843-2.595,59.865-41.809,57.295-43.686
			c-2.474-1.808-5.242-75.044-8.217-76.014c-2.873-0.937-68.125-37.346-71.313-37.346c-16.254,0-51.866,26.598-51.866,42.853
			s-9.256,42.848,6.998,42.848C105.208,306.806,95.952,307.046,95.952,290.792z"/>
		<path fill="none" stroke="#FFFFFF" stroke-width="0.5" stroke-miterlimit="10" d="M92.541,293.186
			c0-3.16,2.453,60.487,1.566,57.617c-0.97-3.139,58.638,29.195,56.778,26.574c-1.924-2.708,58.198-41.161,55.517-43.12
			c-2.582-1.886-5.469-73.514-8.574-74.526c-2.999-0.977-66.938-36.573-70.263-36.573c-16.961,0-52.626,26.858-52.626,43.819
			c0,16.959-8.16,43.816,8.801,43.816S92.541,310.148,92.541,293.186z"/>
		<path fill="none" stroke="#FFFFFF" stroke-width="0.5" stroke-miterlimit="10" d="M89.123,295.449
			c0-3.292,2.363,58.639,1.439,55.65c-1.01-3.27,57.082,28.102,55.145,25.374c-2.004-2.822,56.533-40.515,53.74-42.555
			c-2.688-1.965-5.697-71.986-8.931-73.04c-3.123-1.018-65.75-35.8-69.213-35.8c-17.668,0-53.384,27.118-53.384,44.786
			s-7.066,44.783,10.601,44.783C96.188,314.646,89.123,313.118,89.123,295.449z"/>
		<path fill="none" stroke="#FFFFFF" stroke-width="0.5" stroke-miterlimit="10" d="M85.707,297.582
			c0-3.424,2.274,56.792,1.313,53.684c-1.051-3.402,55.528,27.009,53.512,24.171c-2.084-2.934,54.868-39.868,51.963-41.99
			c-2.797-2.044-5.925-70.458-9.289-71.553c-3.248-1.058-64.562-35.028-68.162-35.028c-18.375,0-54.143,27.38-54.143,45.754
			c0,18.374-5.971,45.751,12.404,45.751C91.68,318.37,85.707,315.956,85.707,297.582z"/>
		<path fill="none" stroke="#FFFFFF" stroke-width="0.5" stroke-miterlimit="10" d="M82.306,299.58
			c0-3.556,2.184,54.946,1.186,51.718c-1.092-3.532,53.972,25.917,51.878,22.971c-2.164-3.048,53.203-39.223,50.188-41.426
			c-2.905-2.123-6.153-68.928-9.647-70.066c-3.373-1.099-63.375-34.257-67.114-34.257c-19.081,0-54.898,27.641-54.898,46.722
			c0,19.081-4.877,46.718,14.204,46.718S82.306,318.661,82.306,299.58z"/>
		<path fill="none" stroke="#FFFFFF" stroke-width="0.5" stroke-miterlimit="10" d="M78.922,301.447
			c0-3.688,2.094,53.099,1.06,49.751c-1.132-3.663,52.417,24.826,50.246,21.769c-2.244-3.16,51.536-38.575,48.408-40.86
			c-3.013-2.201-6.382-67.398-10.004-68.579c-3.498-1.14-62.188-33.483-66.064-33.483c-19.789,0-55.658,27.9-55.658,47.688
			s-3.782,47.686,16.006,47.686S78.922,321.234,78.922,301.447z"/>
		<path fill="none" stroke="#FFFFFF" stroke-width="0.5" stroke-miterlimit="10" d="M75.563,303.179
			c0-3.819,2.006,51.252,0.935,47.785c-1.173-3.794,50.861,23.732,48.613,20.567c-2.325-3.273,49.871-37.929,46.631-40.295
			c-3.12-2.28-6.61-65.87-10.362-67.093c-3.623-1.179-60.998-32.71-65.015-32.71c-20.494,0-56.414,28.161-56.414,48.655
			c0,20.494-2.688,48.654,17.806,48.654C78.251,328.743,75.563,323.674,75.563,303.179z"/>
		<path fill="none" stroke="#FFFFFF" stroke-width="0.5" stroke-miterlimit="10" d="M72.232,304.777
			c0-3.95,1.915,49.407,0.808,45.819c-1.213-3.924,49.306,22.641,46.979,19.366c-2.403-3.385,48.205-37.281,44.854-39.73
			c-3.229-2.358-6.837-64.34-10.718-65.605c-3.748-1.221-59.813-31.939-63.968-31.939c-21.2,0-57.172,28.423-57.172,49.623
			c0,21.202-1.594,49.622,19.608,49.622C73.826,331.932,72.232,325.978,72.232,304.777z"/>
		<path fill="none" stroke="#FFFFFF" stroke-width="0.5" stroke-miterlimit="10" d="M68.928,306.241
			c0-4.082,1.825,47.56,0.681,43.852c-1.254-4.055,47.751,21.549,45.347,18.165c-2.485-3.498,46.539-36.634,43.077-39.165
			c-3.335-2.436-7.066-62.811-11.076-64.117c-3.873-1.263-58.623-31.167-62.917-31.167c-21.908,0-57.93,28.683-57.93,50.591
			c0,21.908-0.498,50.589,21.409,50.589S68.928,328.149,68.928,306.241z"/>
		<path fill="none" stroke="#FFFFFF" stroke-width="0.5" stroke-miterlimit="10" d="M65.637,307.569
			c0-4.214,1.735,45.712,0.554,41.887c-1.294-4.187,46.194,20.457,43.715,16.963c-2.566-3.612,44.874-35.988,41.298-38.6
			c-3.442-2.516-7.293-61.283-11.432-62.632c-3.998-1.302-57.437-30.395-61.867-30.395c-22.616,0-58.689,28.945-58.689,51.56
			c0,22.614,0.597,51.556,23.211,51.556S65.637,330.184,65.637,307.569z"/>
		<path fill="none" stroke="#FFFFFF" stroke-width="0.5" stroke-miterlimit="10" d="M62.356,308.761
			c0-4.346,1.646,43.865,0.426,39.919c-1.334-4.316,44.64,19.366,42.082,15.763c-2.646-3.724,43.209-35.341,39.521-38.035
			c-3.551-2.595-7.521-59.753-11.79-61.144c-4.123-1.344-56.248-29.623-60.817-29.623c-23.321,0-59.446,29.205-59.446,52.525
			c0,23.322,1.689,52.524,25.011,52.524C60.665,340.691,62.356,332.082,62.356,308.761z"/>
		<path fill="none" stroke="#FFFFFF" stroke-width="0.5" stroke-miterlimit="10" d="M59.092,309.816
			c0-4.478,1.557,42.018,0.301,37.954c-1.375-4.447,43.085,18.271,40.449,14.562c-2.727-3.837,41.543-34.695,37.743-37.47
			c-3.657-2.673-7.749-58.224-12.146-59.658c-4.248-1.384-55.061-28.851-59.77-28.851c-24.027,0-60.204,29.466-60.204,53.495
			c0,24.027,2.785,53.491,26.814,53.491C56.307,343.338,59.092,333.844,59.092,309.816z"/>
		<path fill="none" stroke="#FFFFFF" stroke-width="0.5" stroke-miterlimit="10" d="M55.853,310.734
			c0-4.61,1.468,40.172,0.175,35.987c-1.415-4.578,41.528,17.181,38.815,13.36c-2.805-3.95,39.877-34.048,35.967-36.905
			c-3.766-2.751-7.977-56.696-12.505-58.171c-4.372-1.424-53.871-28.079-58.72-28.079c-24.734,0-60.961,29.728-60.961,54.461
			c0,24.734,3.88,54.459,28.615,54.459C51.973,345.847,55.853,335.469,55.853,310.734z"/>
		<path fill="none" stroke="#FFFFFF" stroke-width="0.5" stroke-miterlimit="10" d="M52.647,311.514
			c0-4.741,1.377,38.325,0.048,34.021c-1.456-4.709,39.974,16.087,37.183,12.158c-2.885-4.062,38.211-33.401,34.19-36.34
			c-3.873-2.829-8.204-55.166-12.862-56.682c-4.497-1.466-52.685-27.306-57.67-27.306c-25.442,0-61.721,29.987-61.721,55.427
			c0,25.443,4.976,55.427,30.416,55.427C47.673,348.219,52.647,336.956,52.647,311.514z"/>
		<path fill="none" stroke="#FFFFFF" stroke-width="0.5" stroke-miterlimit="10" d="M49.484,312.155
			c0-4.873,1.286,36.478-0.08,32.054c-1.496-4.839,38.419,14.997,35.551,10.958c-2.966-4.176,36.546-32.755,32.412-35.775
			c-3.981-2.908-8.434-53.637-13.221-55.197c-4.622-1.506-51.494-26.533-56.619-26.533c-26.148,0-62.479,30.248-62.479,56.396
			c0,26.148,6.07,56.394,32.217,56.394C43.415,350.452,49.484,338.303,49.484,312.155z"/>
		<path fill="none" stroke="#FFFFFF" stroke-width="0.5" stroke-miterlimit="10" d="M46.368,312.655
			c0-5.004,1.196,34.631-0.206,30.088c-1.536-4.971,36.863,13.904,33.918,9.756c-3.047-4.289,34.88-32.108,30.635-35.209
			c-4.088-2.988-8.66-52.108-13.576-53.709c-4.749-1.548-50.309-25.763-55.573-25.763c-26.854,0-63.233,30.509-63.233,57.364
			c0,26.854,7.163,57.361,34.017,57.361C39.205,352.544,46.368,339.511,46.368,312.655z"/>
		<path fill="none" stroke="#FFFFFF" stroke-width="0.5" stroke-miterlimit="10" d="M43.31,310.944
			c0-5.135,1.106,32.786-0.333,28.122c-1.577-5.102,35.309,12.812,32.284,8.555c-3.126-4.401,33.216-31.461,28.858-34.644
			c-4.196-3.066-8.888-50.579-13.934-52.223c-4.872-1.588-49.12-24.99-54.522-24.99c-27.562,0-63.994,30.77-63.994,58.332
			c0,27.561,8.259,58.329,35.821,58.329C35.051,352.425,43.31,338.506,43.31,310.944z"/>
		<path fill="none" stroke="#FFFFFF" stroke-width="0.5" stroke-miterlimit="10" d="M40.314,308.817
			c0-5.268,1.019,30.938-0.46,26.155c-1.616-5.232,33.755,11.72,30.652,7.354c-3.206-4.515,31.549-30.815,27.08-34.081
			c-4.302-3.144-9.116-49.049-14.291-50.735c-4.997-1.629-47.931-24.218-53.472-24.218c-28.27,0-64.751,31.031-64.751,59.299
			c0,28.269,9.352,59.297,37.622,59.297C30.962,351.888,40.314,337.084,40.314,308.817z"/>
		<path fill="none" stroke="#FFFFFF" stroke-width="0.5" stroke-miterlimit="10" d="M37.394,306.551
			c0-5.4,0.929,29.091-0.588,24.189c-1.656-5.364,32.198,10.628,29.021,6.152c-3.287-4.627,29.883-30.168,25.302-33.514
			c-4.41-3.223-9.343-47.521-14.647-49.25c-5.121-1.669-46.744-23.444-52.424-23.444c-28.975,0-65.509,31.292-65.509,60.266
			c0,28.976,10.448,60.265,39.422,60.265C26.946,351.214,37.394,335.526,37.394,306.551z"/>
		<path fill="none" stroke="#FFFFFF" stroke-width="0.5" stroke-miterlimit="10" d="M34.552,304.145
			c0-5.53,0.839,27.246-0.715,22.224c-1.696-5.495,30.645,9.535,27.388,4.951c-3.366-4.74,28.218-29.521,23.525-32.95
			c-4.518-3.301-9.571-45.991-15.006-47.762c-5.247-1.709-45.556-22.673-51.374-22.673c-29.681,0-66.266,31.552-66.266,61.234
			c0,29.682,11.542,61.232,41.223,61.232C23.01,350.4,34.552,333.827,34.552,304.145z"/>
		<path fill="none" stroke="#FFFFFF" stroke-width="0.5" stroke-miterlimit="10" d="M31.797,301.6c0-5.663,0.75,25.398-0.84,20.257
			c-1.738-5.625,29.087,8.443,25.753,3.749c-3.445-4.851,26.554-28.875,21.749-32.384c-4.626-3.38-9.8-44.463-15.362-46.276
			c-5.372-1.75-44.368-21.899-50.324-21.899c-30.389,0-67.025,31.813-67.025,62.201c0,30.387,12.636,62.199,43.025,62.199
			C19.16,349.447,31.797,331.989,31.797,301.6z"/>
		<path fill="none" stroke="#FFFFFF" stroke-width="0.5" stroke-miterlimit="10" d="M29.139,298.914
			c0-5.794,0.658,23.551-0.968,18.29c-1.777-5.755,27.533,7.352,24.121,2.548c-3.525-4.965,24.888-28.228,19.973-31.819
			C67.53,284.476,62.236,245,56.543,243.145c-5.497-1.791-43.18-21.128-49.274-21.128c-31.096,0-67.782,32.074-67.782,63.169
			s13.731,63.167,44.826,63.167C15.407,348.353,29.139,330.009,29.139,298.914z"/>
		<path fill="none" stroke="#FFFFFF" stroke-width="0.5" stroke-miterlimit="10" d="M26.582,296.088
			c0-5.927,0.569,21.703-1.093,16.324c-1.818-5.887,25.978,6.259,22.489,1.347c-3.608-5.079,23.22-27.582,18.193-31.254
			c-4.843-3.537-10.257-41.404-16.077-43.302c-5.622-1.831-41.993-20.355-48.228-20.355c-31.802,0-68.54,32.334-68.54,64.136
			c0,31.801,14.826,64.134,46.627,64.134C11.758,347.117,26.582,327.89,26.582,296.088z"/>
		<path fill="none" stroke="#FFFFFF" stroke-width="0.5" stroke-miterlimit="10" d="M24.137,293.12c0-6.059,0.48,19.857-1.22,14.357
			c-1.858-6.017,24.422,5.167,20.856,0.146c-3.688-5.191,21.555-26.935,16.416-30.69c-4.948-3.615-10.484-39.875-16.436-41.814
			c-5.746-1.873-40.804-19.584-47.177-19.584c-32.507,0-69.296,32.595-69.296,65.104s15.919,65.102,48.427,65.102
			C8.217,345.741,24.137,325.628,24.137,293.12z"/>
		<path fill="none" stroke="#FFFFFF" stroke-width="0.5" stroke-miterlimit="10" d="M21.811,290.011
			c0-6.19,0.391,18.011-1.347,12.391c-1.899-6.148,22.867,4.075,19.224-1.056c-3.769-5.303,19.89-26.288,14.639-30.124
			c-5.057-3.694-10.712-38.346-16.792-40.328c-5.872-1.913-39.618-18.811-46.128-18.811c-33.215,0-70.055,32.856-70.055,66.071
			c0,33.216,17.014,66.07,50.23,66.07C4.795,344.224,21.811,323.226,21.811,290.011z"/>
		<path fill="none" stroke="#FFFFFF" stroke-width="0.5" stroke-miterlimit="10" d="M19.607,286.759
			c0-6.322,0.302,16.164-1.473,10.425c-1.939-6.279,21.313,2.983,17.59-2.257c-3.847-5.417,18.226-25.642,12.862-29.56
			c-5.165-3.773-10.94-36.816-17.15-38.841c-5.996-1.954-38.429-18.04-45.077-18.04c-33.921,0-70.813,33.118-70.813,67.04
			c0,33.922,18.11,67.037,52.032,67.037C1.5,342.563,19.607,320.681,19.607,286.759z"/>
		<path fill="none" stroke="#FFFFFF" stroke-width="0.5" stroke-miterlimit="10" d="M17.539,283.363
			c0-6.453,0.211,14.318-1.601,8.458c-1.979-6.408,19.757,1.891,15.957-3.458c-3.927-5.529,16.56-24.994,11.084-28.994
			c-5.271-3.851-11.167-35.288-17.505-37.354c-6.123-1.995-37.243-17.267-44.03-17.267c-34.628,0-71.57,33.378-71.57,68.006
			c0,34.629,19.203,68.006,53.832,68.006C-1.665,340.76,17.539,317.992,17.539,283.363z"/>
		<path fill="none" stroke="#FFFFFF" stroke-width="0.5" stroke-miterlimit="10" d="M15.607,279.825
			c0-6.585,0.122,12.47-1.726,6.493c-2.021-6.541,18.201,0.798,14.325-4.659c-4.008-5.643,14.892-24.349,9.306-28.43
			c-5.38-3.93-11.395-33.759-17.864-35.867c-6.245-2.036-36.054-16.495-42.979-16.495c-35.335,0-72.329,33.639-72.329,68.974
			c0,35.335,20.298,68.974,55.633,68.974S15.607,315.161,15.607,279.825z"/>
		<path fill="none" stroke="#FFFFFF" stroke-width="0.5" stroke-miterlimit="10" d="M13.823,276.144
			c0-6.717,0.031,10.624-1.854,4.526c-2.061-6.672,16.646-0.294,12.692-5.862c-4.088-5.755,13.227-23.702,7.529-27.864
			c-5.486-4.009-11.623-32.23-18.222-34.38c-6.371-2.077-34.866-15.723-41.929-15.723c-36.042,0-73.087,33.899-73.087,69.941
			c0,36.042,21.392,69.94,57.434,69.94S13.823,312.186,13.823,276.144z"/>
		<path fill="none" stroke="#FFFFFF" stroke-width="0.5" stroke-miterlimit="10" d="M12.189,272.316c0-6.848-0.058,8.777-1.979,2.56
			c-2.102-6.803,15.09-1.386,11.058-7.062c-4.168-5.869,11.563-23.054,5.752-27.3c-5.594-4.087-11.851-30.701-18.577-32.893
			c-6.496-2.117-33.679-14.951-40.881-14.951c-36.748,0-73.844,34.161-73.844,70.909c0,36.75,22.488,70.909,59.236,70.909
			C-10.297,334.488,12.189,309.066,12.189,272.316z"/>
		<path fill="none" stroke="#FFFFFF" stroke-width="0.5" stroke-miterlimit="10" d="M10.714,268.345c0-6.98-0.147,6.93-2.105,0.593
			c-2.143-6.933,13.535-2.477,9.425-8.263c-4.248-5.981,9.896-22.407,3.976-26.734c-5.702-4.166-12.079-29.172-18.937-31.406
			c-6.621-2.158-32.49-14.179-39.832-14.179c-37.455,0-74.601,34.421-74.601,71.876c0,37.456,23.582,71.876,61.037,71.876
			C-12.868,332.108,10.714,305.801,10.714,268.345z"/>
		<path fill="none" stroke="#FFFFFF" stroke-width="0.5" stroke-miterlimit="10" d="M9.397,264.228c0-7.111-0.236,5.083-2.231-1.372
			c-2.184-7.064,11.979-3.571,7.793-9.466c-4.329-6.094,8.229-21.76,2.197-26.169c-5.811-4.244-12.308-27.643-19.293-29.92
			c-6.746-2.199-31.302-13.405-38.782-13.405c-38.162,0-75.36,34.681-75.36,72.843c0,38.163,24.676,72.842,62.838,72.842
			C-15.279,329.582,9.397,302.39,9.397,264.228z"/>
		<path fill="none" stroke="#FFFFFF" stroke-width="0.5" stroke-miterlimit="10" d="M8.246,259.965c0-7.244-0.327,3.237-2.359-3.339
			c-2.223-7.194,10.424-4.661,6.16-10.666c-4.408-6.207,6.563-21.115,0.42-25.604c-5.917-4.323-12.534-26.113-19.65-28.433
			c-6.871-2.239-30.115-12.633-37.733-12.633c-38.868,0-76.117,34.942-76.117,73.811c0,38.869,25.77,73.811,64.639,73.811
			C-17.525,326.911,8.246,298.833,8.246,259.965z"/>
		<path fill="none" stroke="#FFFFFF" stroke-width="0.5" stroke-miterlimit="10" d="M7.184,255.556c0-7.375-0.416,1.39-2.485-5.306
			c-2.265-7.325,8.869-5.754,4.526-11.867c-4.487-6.32,4.898-20.468-1.356-25.039c-6.026-4.401-12.763-24.585-20.008-26.946
			c-6.996-2.28-28.927-11.862-36.684-11.862c-39.575,0-76.875,35.204-76.875,74.779c0,39.577,26.865,74.778,66.441,74.778
			S7.184,295.131,7.184,255.556z"/>
		<path fill="none" stroke="#FFFFFF" stroke-width="0.5" stroke-miterlimit="10" d="M5.58,250.999c0-7.506-0.507-0.456-2.612-7.271
			c-2.304-7.456,7.313-6.846,2.894-13.068c-4.567-6.433,3.234-19.821-3.135-24.474c-6.131-4.481-12.99-23.056-20.364-25.459
			c-7.121-2.321-27.739-11.09-35.635-11.09c-40.282,0-77.632,35.465-77.632,75.747c0,40.281,27.96,75.745,68.242,75.745
			S5.58,291.281,5.58,250.999z"/>
		<path fill="none" stroke="#FFFFFF" stroke-width="0.5" stroke-miterlimit="10" d="M4.117,246.295c0-7.639-0.597-2.304-2.739-9.238
			c-2.346-7.588,5.759-7.938,1.261-14.27c-4.648-6.546,1.568-19.175-4.912-23.909c-6.239-4.558-13.217-21.527-20.721-23.972
			c-7.246-2.361-26.551-10.318-34.585-10.318c-40.989,0-78.392,35.726-78.392,76.714c0,40.989,29.056,76.714,70.044,76.714
			C-24.938,318.017,4.117,287.285,4.117,246.295z"/>
		<path fill="none" stroke="#FFFFFF" stroke-width="0.5" stroke-miterlimit="10" d="M2.143,241.443
			c0-7.771-0.687-4.149-2.866-11.205c-2.386-7.717,4.203-9.03-0.371-15.471c-4.729-6.658-0.099-18.528-6.69-23.343
			c-6.347-4.638-13.445-19.998-21.079-22.486c-7.371-2.401-25.363-9.545-33.535-9.545c-41.696,0-79.149,35.986-79.149,77.682
			c0,41.695,30.149,77.682,71.844,77.682C-28.007,314.757,2.143,283.139,2.143,241.443z"/>
		<path fill="none" stroke="#FFFFFF" stroke-width="0.5" stroke-miterlimit="10" d="M0.393,236.443
			c0-7.902-0.775-5.996-2.992-13.171c-2.427-7.848,2.647-10.121-2.004-16.671c-4.81-6.771-1.765-17.881-8.468-22.779
			c-6.455-4.717-13.674-18.469-21.436-20.998c-7.497-2.443-24.175-8.772-32.487-8.772c-42.402,0-79.906,36.246-79.906,78.648
			s31.243,78.648,73.646,78.648C-30.852,311.347,0.393,278.845,0.393,236.443z"/>
		<path fill="none" stroke="#FFFFFF" stroke-width="0.5" stroke-miterlimit="10" d="M-1.123,231.294
			c0-8.034-0.865-7.844-3.119-15.137c-2.467-7.98,1.093-11.214-3.638-17.874c-4.889-6.884-3.429-17.235-10.243-22.214
			c-6.563-4.795-13.901-16.939-21.794-19.511c-7.62-2.483-22.987-8-31.436-8c-43.109,0-80.666,36.508-80.666,79.617
			c0,43.109,32.339,79.616,75.449,79.616C-33.462,307.79-1.123,274.403-1.123,231.294z"/>
		<path fill="none" stroke="#FFFFFF" stroke-width="0.5" stroke-miterlimit="10" d="M-2.397,225.995
			c0-8.165-0.954-9.691-3.245-17.103c-2.508-8.111-0.463-12.308-5.271-19.075c-4.969-6.996-5.094-16.589-12.021-21.65
			c-6.671-4.873-14.13-15.41-22.152-18.023c-7.746-2.525-21.799-7.229-30.387-7.229c-43.816,0-81.422,36.769-81.422,80.583
			c0,43.816,33.433,80.584,77.248,80.584C-35.831,304.082-2.397,269.81-2.397,225.995z"/>
		<path fill="none" stroke="#FFFFFF" stroke-width="0.5" stroke-miterlimit="10" d="M-3.423,220.546
			c0-8.297-1.044-11.538-3.371-19.07c-2.548-8.241-2.019-13.398-6.902-20.276c-5.05-7.11-6.761-15.942-13.799-21.083
			c-6.779-4.953-14.359-13.882-22.509-16.538c-7.87-2.565-20.611-6.456-29.338-6.456c-44.522,0-82.181,37.028-82.181,81.551
			c0,44.522,34.529,81.551,79.051,81.551C-37.949,300.225-3.423,265.068-3.423,220.546z"/>
		<path fill="none" stroke="#FFFFFF" stroke-width="0.5" stroke-miterlimit="10" d="M-4.189,214.946
			c0-8.428-1.135-13.384-3.498-21.035c-2.589-8.373-3.573-14.493-8.535-21.479c-5.13-7.222-8.428-15.294-15.576-20.519
			c-6.886-5.03-14.586-12.353-22.867-15.05c-7.995-2.605-19.423-5.684-28.289-5.684c-45.228,0-82.937,37.29-82.937,82.52
			c0,45.229,35.622,82.519,80.85,82.519C-39.812,296.217-4.189,260.175-4.189,214.946z"/>
		<path fill="none" stroke="#FFFFFF" stroke-width="0.5" stroke-miterlimit="10" d="M-4.691,209.195
			c0-8.56-1.224-15.23-3.625-23.002c-2.629-8.503-5.129-15.584-10.169-22.678c-5.21-7.336-10.092-14.649-17.353-19.955
			c-6.994-5.109-14.814-10.822-23.223-13.564c-8.12-2.646-18.236-4.912-27.239-4.912c-45.937,0-83.697,37.551-83.697,83.487
			c0,45.936,36.717,83.486,82.653,83.486S-4.691,255.131-4.691,209.195z"/>
		<circle fill="none" stroke="#FFFFFF" stroke-width="0.5" stroke-miterlimit="10" cx="-89.374" cy="203.293" r="84.453"/>
		<path fill="none" stroke="#FFFFFF" stroke-width="0.5" stroke-miterlimit="10" d="M-93.805,279.996
			c-45.936,0-81.521-37.602-81.521-83.538s38.89-83.538,84.826-83.538c45.935,0,81.673,39.838,81.673,85.774
			c0,4.465-0.503,9.109-1.18,13.384C-16.299,251.779-52.333,279.996-93.805,279.996z"/>
		<path fill="none" stroke="#FFFFFF" stroke-width="0.5" stroke-miterlimit="10" d="M-98.55,272.972
			c-45.229,0-78.59-37.392-78.59-82.622c0-45.23,39.97-82.623,85.199-82.623s78.894,41.865,78.894,87.094
			c0,4.396-0.649,9.235-1.316,13.443C-20.56,247.355-57.717,272.972-98.55,272.972z"/>
		<path fill="none" stroke="#FFFFFF" stroke-width="0.5" stroke-miterlimit="10" d="M-103.599,266.653
			c-44.522,0-75.658-37.184-75.658-81.705c0-44.523,41.05-81.707,85.572-81.707c44.523,0,76.112,43.892,76.112,88.415
			c0,4.327-0.795,9.361-1.451,13.503C-25.122,243.64-63.404,266.653-103.599,266.653z"/>
		<path fill="none" stroke="#FFFFFF" stroke-width="0.5" stroke-miterlimit="10" d="M-108.939,261.023
			c-43.816,0-72.727-36.975-72.727-80.789c0-43.817,42.129-80.792,85.945-80.792c43.816,0,73.333,45.92,73.333,89.736
			c0,4.257-0.942,9.485-1.587,13.563C-29.977,240.61-69.382,261.023-108.939,261.023z"/>
		<path fill="none" stroke="#FFFFFF" stroke-width="0.5" stroke-miterlimit="10" d="M-114.56,256.06
			c-43.109,0-69.795-36.765-69.795-79.874c0-43.109,43.209-79.874,86.317-79.874c43.11,0,70.551,47.946,70.551,91.054
			c0,4.19-1.086,9.613-1.721,13.624C-35.114,238.25-75.641,256.06-114.56,256.06z"/>
		<path fill="none" stroke="#FFFFFF" stroke-width="0.5" stroke-miterlimit="10" d="M-120.452,251.747
			c-42.402,0-66.862-36.556-66.862-78.957c0-42.404,44.288-78.96,86.69-78.96c42.402,0,67.77,49.973,67.77,92.375
			c0,4.122-1.233,9.739-1.858,13.685C-40.519,236.537-82.171,251.747-120.452,251.747z"/>
		<path fill="none" stroke="#FFFFFF" stroke-width="0.5" stroke-miterlimit="10" d="M-126.601,248.062
			c-41.696,0-63.931-36.346-63.931-78.042c0-41.696,45.368-78.043,87.063-78.043c41.695,0,64.989,52,64.989,93.696
			c0,4.053-1.378,9.864-1.993,13.745C-46.184,235.454-88.958,248.062-126.601,248.062z"/>
		<path fill="none" stroke="#FFFFFF" stroke-width="0.5" stroke-miterlimit="10" d="M-133,244.988
			c-40.988,0-60.998-36.138-60.998-77.126c0-40.989,46.446-77.126,87.435-77.126s62.209,54.027,62.209,95.015
			c0,3.984-1.524,9.991-2.128,13.805C-52.097,234.98-95.995,244.988-133,244.988z"/>
		<path fill="none" stroke="#FFFFFF" stroke-width="0.5" stroke-miterlimit="10" d="M-139.634,242.504
			c-40.282,0-58.066-35.927-58.066-76.21c0-40.282,47.526-76.211,87.807-76.211c40.282,0,59.429,56.054,59.429,96.337
			c0,3.915-1.67,10.115-2.264,13.863C-58.245,235.1-103.267,242.504-139.634,242.504z"/>
		<path fill="none" stroke="#FFFFFF" stroke-width="0.5" stroke-miterlimit="10" d="M-146.495,240.593
			c-39.575,0-55.135-35.719-55.135-75.294c0-39.576,48.606-75.294,88.181-75.294c39.576,0,56.647,58.08,56.647,97.656
			c0,3.847-1.815,10.243-2.399,13.924C-64.621,235.79-110.766,240.593-146.495,240.593z"/>
		<path fill="none" stroke="#FFFFFF" stroke-width="0.5" stroke-miterlimit="10" d="M-153.57,239.234
			c-38.869,0-52.203-35.51-52.203-74.38c0-38.868,49.684-74.378,88.554-74.378c38.869,0,53.866,60.108,53.866,98.977
			c0,3.777-1.961,10.368-2.534,13.984C-71.211,237.031-118.479,239.234-153.57,239.234z"/>
		<path fill="none" stroke="#FFFFFF" stroke-width="0.5" stroke-miterlimit="10" d="M-160.849,238.407
			c-38.162,0-49.271-35.3-49.271-73.462c0-38.163,50.764-73.463,88.926-73.463c38.162,0,51.086,62.135,51.086,100.297
			c0,3.709-2.107,10.495-2.67,14.046C-78.004,238.807-126.396,238.407-160.849,238.407z"/>
		<path fill="none" stroke="#FFFFFF" stroke-width="0.5" stroke-miterlimit="10" d="M-168.321,238.059
			c-37.455,0-46.339-35.09-46.339-72.547c0-37.455,51.844-72.547,89.299-72.547s48.306,64.162,48.306,101.618
			c0,3.641-2.254,10.619-2.806,14.104C-84.991,241.059-134.506,238.059-168.321,238.059z"/>
		<path fill="none" stroke="#FFFFFF" stroke-width="0.5" stroke-miterlimit="10" d="M-175.974,238.087
			c-36.749,0-43.407-34.882-43.407-71.631s52.923-71.631,89.671-71.631c36.749,0,45.525,66.189,45.525,102.938
			c0,3.572-2.399,10.745-2.941,14.164C-92.16,243.69-142.797,238.087-175.974,238.087z"/>
		<path fill="none" stroke="#FFFFFF" stroke-width="0.5" stroke-miterlimit="10" d="M-183.799,238.447
			c-36.042,0-40.475-34.673-40.475-70.715s54.002-70.715,90.044-70.715s42.744,68.216,42.744,104.258
			c0,3.503-2.544,10.871-3.076,14.225C-99.499,246.65-151.26,238.447-183.799,238.447z"/>
		<path fill="none" stroke="#FFFFFF" stroke-width="0.5" stroke-miterlimit="10" d="M-191.783,239.122
			c-35.336,0-37.544-34.464-37.544-69.799c0-35.335,55.082-69.799,90.417-69.799c35.336,0,39.964,70.243,39.964,105.579
			c0,3.434-2.691,10.997-3.212,14.285C-106.998,249.926-159.883,239.122-191.783,239.122z"/>
		<path fill="none" stroke="#FFFFFF" stroke-width="0.5" stroke-miterlimit="10" d="M-199.916,240.103
			c-34.629,0-34.612-34.253-34.612-68.883s56.161-68.883,90.79-68.883c34.629,0,37.182,72.27,37.182,106.898
			c0,3.366-2.836,11.124-3.346,14.346C-114.645,253.509-168.652,240.103-199.916,240.103z"/>
		<path fill="none" stroke="#FFFFFF" stroke-width="0.5" stroke-miterlimit="10" d="M-208.171,241.387
			c-33.922,0-31.68-34.045-31.68-67.967c0-33.923,57.242-67.968,91.163-67.968c33.922,0,34.402,74.296,34.402,108.219
			c0,3.297-2.983,11.25-3.483,14.405C-122.415,257.394-177.546,241.387-208.171,241.387z"/>
		<path fill="none" stroke="#FFFFFF" stroke-width="0.5" stroke-miterlimit="10" d="M-216.49,242.968
			c-33.215,0-28.747-33.836-28.747-67.052c0-33.214,58.319-67.051,91.535-67.051c33.215,0,31.621,76.324,31.621,109.539
			c0,3.228-3.128,11.375-3.618,14.465C-130.248,261.577-186.503,242.968-216.49,242.968z"/>
		<path fill="none" stroke="#FFFFFF" stroke-width="0.5" stroke-miterlimit="10" d="M-224.875,244.841
			c-32.508,0-25.815-33.626-25.815-66.135c0-32.508,59.399-66.136,91.907-66.136c32.509,0,28.841,78.351,28.841,110.859
			c0,3.16-3.274,11.501-3.753,14.526C-138.146,266.051-195.524,244.841-224.875,244.841z"/>
		<path fill="none" stroke="#FFFFFF" stroke-width="0.5" stroke-miterlimit="10" d="M-233.34,246.997
			c-31.802,0-22.884-33.417-22.884-65.219s60.479-65.22,92.28-65.22c31.802,0,26.06,80.378,26.06,112.18
			c0,3.091-3.42,11.626-3.889,14.585C-146.128,270.809-204.629,246.997-233.34,246.997z"/>
		<path fill="none" stroke="#FFFFFF" stroke-width="0.5" stroke-miterlimit="10" d="M-241.892,249.427
			c-31.095,0-19.952-33.208-19.952-64.304c0-31.094,61.558-64.302,92.653-64.302c31.096,0,23.28,82.405,23.28,113.5
			c0,3.021-3.566,11.752-4.024,14.645C-154.194,275.84-213.819,249.427-241.892,249.427z"/>
		<path fill="none" stroke="#FFFFFF" stroke-width="0.5" stroke-miterlimit="10" d="M-250.524,252.12
			c-30.389,0-17.021-33-17.021-63.388s62.638-63.387,93.027-63.387c30.389,0,20.499,84.432,20.499,114.82
			c0,2.955-3.712,11.878-4.16,14.705C-162.341,281.135-223.089,252.12-250.524,252.12z"/>
		<path fill="none" stroke="#FFFFFF" stroke-width="0.5" stroke-miterlimit="10" d="M-259.23,255.063
			c-29.682,0-14.088-32.789-14.088-62.471c0-29.681,63.717-62.472,93.399-62.472c29.681,0,17.717,86.46,17.717,116.142
			c0,2.884-3.857,12.003-4.295,14.766C-170.562,286.679-232.433,255.063-259.23,255.063z"/>
		<path fill="none" stroke="#FFFFFF" stroke-width="0.5" stroke-miterlimit="10" d="M-268,258.244
			c-28.975,0-11.156-32.58-11.156-61.556c0-28.975,64.796-61.555,93.771-61.555c28.975,0,14.938,88.486,14.938,117.461
			c0,2.816-4.004,12.129-4.431,14.825C-178.848,292.462-241.841,258.244-268,258.244z"/>
		<path fill="none" stroke="#FFFFFF" stroke-width="0.5" stroke-miterlimit="10" d="M-276.826,261.648
			c-28.269,0-8.225-32.372-8.225-60.64c0-28.268,65.876-60.64,94.144-60.64c28.269,0,12.157,90.513,12.157,118.781
			c0,2.748-4.148,12.255-4.565,14.885C-187.187,298.468-251.305,261.648-276.826,261.648z"/>
		<path fill="none" stroke="#FFFFFF" stroke-width="0.5" stroke-miterlimit="10" d="M-285.695,265.261
			c-27.562,0-5.293-32.163-5.293-59.724c0-27.562,66.955-59.724,94.517-59.724c27.561,0,9.377,92.54,9.377,120.102
			c0,2.679-4.295,12.381-4.703,14.946C-195.571,304.682-260.812,265.261-285.695,265.261z"/>
		<path fill="none" stroke="#FFFFFF" stroke-width="0.5" stroke-miterlimit="10" d="M-294.597,269.067
			c-26.854,0-2.36-31.953-2.36-58.807c0-26.855,68.034-58.808,94.889-58.808s6.595,94.566,6.595,121.421
			c0,2.61-4.44,12.507-4.836,15.006C-203.988,311.09-270.352,269.067-294.597,269.067z"/>
		<path fill="none" stroke="#FFFFFF" stroke-width="0.5" stroke-miterlimit="10" d="M-303.521,273.051
			c-26.147,0,0.571-31.744,0.571-57.892c0-26.149,69.115-57.893,95.263-57.893c26.147,0,3.814,96.595,3.814,122.743
			c0,2.542-4.586,12.633-4.971,15.066C-212.426,317.675-279.914,273.051-303.521,273.051z"/>
		<path fill="none" stroke="#FFFFFF" stroke-width="0.5" stroke-miterlimit="10" d="M-312.455,277.195
			c-25.441,0,3.503-31.534,3.503-56.976c0-25.441,70.193-56.976,95.635-56.976c25.441,0,1.034,98.62,1.034,124.062
			c0,2.473-4.733,12.759-5.108,15.126C-220.875,324.42-289.486,277.195-312.455,277.195z"/>
		<path fill="none" stroke="#FFFFFF" stroke-width="0.5" stroke-miterlimit="10" d="M-321.387,281.484
			c-24.735,0,6.435-31.326,6.435-56.06c0-24.736,71.272-56.062,96.007-56.062c24.735,0-1.747,100.648-1.747,125.383
			c0,2.404-4.878,12.885-5.242,15.188C-229.322,331.31-299.057,281.484-321.387,281.484z"/>
		<path fill="none" stroke="#FFFFFF" stroke-width="0.5" stroke-miterlimit="10" d="M-330.308,285.899
			c-24.028,0,9.367-31.116,9.367-55.145c0-24.027,72.352-55.144,96.38-55.144s-4.527,102.675-4.527,126.703
			c0,2.336-5.024,13.011-5.378,15.247C-237.757,338.328-308.616,285.899-330.308,285.899z"/>
		<path fill="none" stroke="#FFFFFF" stroke-width="0.5" stroke-miterlimit="10" d="M-339.205,290.425
			c-23.321,0,12.299-30.907,12.299-54.228c0-23.322,73.431-54.228,96.753-54.228c23.321,0-7.308,104.702-7.308,128.022
			c0,2.267-5.17,13.137-5.514,15.307C-246.168,345.454-318.149,290.425-339.205,290.425z"/>
		<path fill="none" stroke="#FFFFFF" stroke-width="0.5" stroke-miterlimit="10" d="M-348.067,295.042
			c-22.614,0,15.231-30.697,15.231-53.313c0-22.613,74.511-53.312,97.125-53.312c22.616,0-10.087,106.729-10.087,129.344
			c0,2.199-5.317,13.263-5.65,15.367C-254.546,352.673-327.65,295.042-348.067,295.042z"/>
		<path fill="none" stroke="#FFFFFF" stroke-width="0.5" stroke-miterlimit="10" d="M-356.882,299.734
			c-21.907,0,18.163-30.489,18.163-52.397c0-21.908,75.591-52.396,97.498-52.396c21.908,0-12.869,108.756-12.869,130.664
			c0,2.13-5.461,13.389-5.784,15.427C-262.875,359.967-337.104,299.734-356.882,299.734z"/>
		<path fill="none" stroke="#FFFFFF" stroke-width="0.5" stroke-miterlimit="10" d="M-365.639,304.482
			c-21.201,0,21.095-30.28,21.095-51.481c0-21.2,76.669-51.48,97.87-51.48c21.201,0-15.65,110.783-15.65,131.984
			c0,2.061-5.607,13.514-5.919,15.488C-271.148,367.315-346.499,304.482-365.639,304.482z"/>
		<path fill="none" stroke="#FFFFFF" stroke-width="0.5" stroke-miterlimit="10" d="M-374.329,309.269
			c-20.494,0,24.026-30.07,24.026-50.565s77.75-50.564,98.245-50.564c20.494,0-18.431,112.81-18.431,133.305
			c0,1.991-5.753,13.639-6.055,15.546C-279.351,374.704-355.826,309.269-374.329,309.269z"/>
		<path fill="none" stroke="#FFFFFF" stroke-width="0.5" stroke-miterlimit="10" d="M-382.937,314.075
			c-19.788,0,26.959-29.861,26.959-49.648s78.828-49.649,98.616-49.649c19.787,0-21.211,114.837-21.211,134.625
			c0,1.923-5.899,13.766-6.191,15.607C-287.474,382.111-365.073,314.075-382.937,314.075z"/>
		<path fill="none" stroke="#FFFFFF" stroke-width="0.5" stroke-miterlimit="10" d="M-391.455,318.883
			c-19.081,0,29.891-29.652,29.891-48.733s79.908-48.732,98.989-48.732s-23.991,116.864-23.991,135.945
			c0,1.854-6.045,13.892-6.327,15.667C-295.507,389.522-374.228,318.883-391.455,318.883z"/>
		<path fill="none" stroke="#FFFFFF" stroke-width="0.5" stroke-miterlimit="10" d="M-399.869,323.675
			c-18.374,0,32.822-29.443,32.822-47.817s80.988-47.816,99.362-47.816c18.375,0-26.773,118.891-26.773,137.265
			c0,1.786-6.19,14.019-6.461,15.727C-303.435,396.915-383.281,323.675-399.869,323.675z"/>
		<path fill="none" stroke="#FFFFFF" stroke-width="0.5" stroke-miterlimit="10" d="M-408.169,328.432
			c-17.668,0,35.754-29.233,35.754-46.901s82.066-46.9,99.734-46.9c17.668,0-29.552,120.918-29.552,138.584
			c0,1.717-6.337,14.144-6.598,15.788C-311.251,404.273-392.219,328.432-408.169,328.432z"/>
		<path fill="none" stroke="#FFFFFF" stroke-width="0.5" stroke-miterlimit="10" d="M-416.346,333.135
			c-16.961,0,38.687-29.024,38.687-45.984c0-16.962,83.146-45.986,100.107-45.986s-32.334,122.946-32.334,139.907
			c0,1.648-6.482,14.27-6.732,15.847C-318.942,411.577-401.033,333.135-416.346,333.135z"/>
		<path fill="none" stroke="#FFFFFF" stroke-width="0.5" stroke-miterlimit="10" d="M-424.385,337.766
			c-16.255,0,41.617-28.814,41.617-45.069c0-16.254,84.226-45.07,100.481-45.07c16.254,0-35.115,124.972-35.115,141.226
			c0,1.581-6.629,14.396-6.868,15.908C-326.496,418.81-409.711,337.766-424.385,337.766z"/>
		<path fill="none" stroke="#FFFFFF" stroke-width="0.5" stroke-miterlimit="10" d="M-432.279,342.305
			c-15.547,0,44.55-28.605,44.55-44.153c0-15.549,85.305-44.155,100.852-44.155c15.548,0-37.894,127-37.894,142.547
			c0,1.511-6.775,14.521-7.003,15.968C-333.904,425.95-418.242,342.305-432.279,342.305z"/>
		<path fill="none" stroke="#FFFFFF" stroke-width="0.5" stroke-miterlimit="10" d="M-440.013,346.735
			c-14.841,0,47.482-28.396,47.482-43.237c0-14.841,86.384-43.237,101.225-43.237s-40.676,129.025-40.676,143.866
			c0,1.443-6.92,14.647-7.138,16.028C-341.153,432.98-426.615,346.735-440.013,346.735z"/>
		<path fill="none" stroke="#FFFFFF" stroke-width="0.5" stroke-miterlimit="10" d="M-447.578,351.036
			c-14.135,0,50.413-28.186,50.413-42.321s87.464-42.321,101.598-42.321c14.135,0-43.456,131.052-43.456,145.187
			c0,1.373-7.066,14.772-7.274,16.087C-348.232,439.884-434.817,351.036-447.578,351.036z"/>
		<path fill="none" stroke="#FFFFFF" stroke-width="0.5" stroke-miterlimit="10" d="M-454.962,355.19
			c-13.428,0,53.346-27.978,53.346-41.406c0-13.427,88.543-41.406,101.97-41.406c13.427,0-46.237,133.081-46.237,146.508
			c0,1.305-7.211,14.899-7.409,16.148C-355.131,446.639-442.84,355.19-454.962,355.19z"/>
		<path fill="none" stroke="#FFFFFF" stroke-width="0.5" stroke-miterlimit="10" d="M-462.155,359.177
			c-12.721,0,56.277-27.769,56.277-40.49c0-12.72,89.622-40.488,102.343-40.488c12.721,0-49.017,135.105-49.017,147.826
			c0,1.236-7.358,15.025-7.545,16.209C-361.84,453.228-450.672,359.177-462.155,359.177z"/>
		<path fill="none" stroke="#FFFFFF" stroke-width="0.5" stroke-miterlimit="10" d="M-469.145,362.979
			c-12.015,0,59.209-27.559,59.209-39.573c0-12.014,90.702-39.574,102.716-39.574c12.013,0-51.798,137.134-51.798,149.147
			c0,1.169-7.503,15.152-7.681,16.269C-368.344,459.631-458.299,362.979-469.145,362.979z"/>
		<path fill="none" stroke="#FFFFFF" stroke-width="0.5" stroke-miterlimit="10" d="M-475.921,366.577
			c-11.308,0,62.141-27.351,62.141-38.658c0-11.307,91.781-38.657,103.088-38.657c11.308,0-54.578,139.161-54.578,150.467
			c0,1.1-7.649,15.278-7.816,16.33C-374.635,465.832-465.713,366.577-475.921,366.577z"/>
		<path fill="none" stroke="#FFFFFF" stroke-width="0.5" stroke-miterlimit="10" d="M-482.473,369.952
			c-10.601,0,65.073-27.142,65.073-37.742c0-10.601,92.861-37.742,103.461-37.742c10.601,0-57.359,141.188-57.359,151.788
			c0,1.03-7.795,15.403-7.951,16.388C-380.702,471.807-472.903,369.952-482.473,369.952z"/>
		<path fill="none" stroke="#FFFFFF" stroke-width="0.5" stroke-miterlimit="10" d="M-488.789,373.083
			c-9.894,0,68.005-26.931,68.005-36.825c0-9.894,93.94-36.827,103.834-36.827s-60.14,143.216-60.14,153.108
			c0,0.962-7.941,15.529-8.087,16.45C-386.532,477.541-479.855,373.083-488.789,373.083z"/>
		<path fill="none" stroke="#FFFFFF" stroke-width="0.5" stroke-miterlimit="10" d="M-494.857,375.956
			c-9.188,0,70.938-26.723,70.938-35.909c0-9.188,95.018-35.911,104.206-35.911c9.187,0-62.921,145.241-62.921,154.429
			c0,0.893-8.086,15.654-8.222,16.509C-392.115,483.014-486.563,375.956-494.857,375.956z"/>
		<path fill="none" stroke="#FFFFFF" stroke-width="0.5" stroke-miterlimit="10" d="M-500.667,378.547
			c-8.48,0,73.869-26.514,73.869-34.994c0-8.48,96.099-34.994,104.579-34.994c8.481,0-65.701,147.268-65.701,155.749
			c0,0.824-8.232,15.78-8.357,16.568C-397.438,488.207-493.012,378.547-500.667,378.547z"/>
		<path fill="none" stroke="#FFFFFF" stroke-width="0.5" stroke-miterlimit="10" d="M-506.208,380.839
			c-7.773,0,76.801-26.304,76.801-34.078c0-7.774,97.178-34.079,104.952-34.079c7.773,0-68.482,149.295-68.482,157.069
			c0,0.756-8.378,15.907-8.493,16.63C-402.496,493.1-499.189,380.839-506.208,380.839z"/>
		<path fill="none" stroke="#FFFFFF" stroke-width="0.5" stroke-miterlimit="10" d="M-511.469,382.813
			c-7.067,0,79.732-26.095,79.732-33.162c0-7.067,98.258-33.163,105.326-33.163c7.066,0-71.263,151.322-71.263,158.39
			c0,0.687-8.524,16.032-8.629,16.689C-407.271,497.675-505.089,382.813-511.469,382.813z"/>
		<path fill="none" stroke="#FFFFFF" stroke-width="0.5" stroke-miterlimit="10" d="M-516.439,384.449
			c-6.36,0,82.664-25.886,82.664-32.246c0-6.36,99.338-32.247,105.698-32.247c6.361,0-74.044,153.351-74.044,159.709
			c0,0.619-8.67,16.158-8.763,16.75C-411.755,501.914-510.697,384.449-516.439,384.449z"/>
		<path fill="none" stroke="#FFFFFF" stroke-width="0.5" stroke-miterlimit="10" d="M-521.106,385.729
			c-5.654,0,85.596-25.676,85.596-31.331c0-5.653,100.417-31.33,106.07-31.33c5.654,0-76.823,155.376-76.823,161.03
			c0,0.549-8.817,16.283-8.9,16.809C-415.937,505.794-516.002,385.729-521.106,385.729z"/>
		<path fill="none" stroke="#FFFFFF" stroke-width="0.5" stroke-miterlimit="10" d="M-525.46,386.633
			c-4.947,0,88.528-25.468,88.528-30.414c0-4.947,101.496-30.415,106.444-30.415c4.946,0-79.605,157.403-79.605,162.351
			c0,0.48-8.962,16.409-9.035,16.869C-419.807,509.301-520.995,386.633-525.46,386.633z"/>
		<path fill="none" stroke="#FFFFFF" stroke-width="0.5" stroke-miterlimit="10" d="M-529.49,387.143
			c-4.24,0,91.46-25.258,91.46-29.499c0-4.239,102.575-29.499,106.815-29.499c4.241,0-82.384,159.431-82.384,163.671
			c0,0.412-9.108,16.535-9.17,16.93C-423.35,512.411-525.662,387.143-529.49,387.143z"/>
		<path fill="none" stroke="#FFFFFF" stroke-width="0.5" stroke-miterlimit="10" d="M-533.184,387.239
			c-3.533,0,94.393-25.049,94.393-28.583c0-3.535,103.654-28.583,107.187-28.583c3.534,0-85.165,161.458-85.165,164.992
			c0,0.343-9.254,16.661-9.306,16.989C-426.559,515.107-529.994,387.239-533.184,387.239z"/>
		<path fill="none" stroke="#FFFFFF" stroke-width="0.5" stroke-miterlimit="10" d="M-536.532,386.901
			c-2.827,0,97.324-24.84,97.324-27.667c0-2.827,104.735-27.667,107.561-27.667c2.827,0-87.947,163.485-87.947,166.312
			c0,0.274-9.399,16.787-9.44,17.05C-429.422,517.372-533.979,386.901-536.532,386.901z"/>
		<path fill="none" stroke="#FFFFFF" stroke-width="0.5" stroke-miterlimit="10" d="M-539.522,386.111
			c-2.12,0,100.256-24.631,100.256-26.751c0-2.12,105.813-26.75,107.933-26.75c2.121,0-90.726,165.512-90.726,167.632
			c0,0.207-9.545,16.912-9.576,17.11C-431.926,519.184-537.608,386.111-539.522,386.111z"/>
		<path fill="none" stroke="#FFFFFF" stroke-width="0.5" stroke-miterlimit="10" d="M-542.143,384.851
			c-1.414,0,103.188-24.421,103.188-25.835s106.892-25.834,108.306-25.834c1.413,0-93.508,167.539-93.508,168.952
			c0,0.137-9.691,17.04-9.712,17.17C-434.062,520.525-540.868,384.851-542.143,384.851z"/>
		<path fill="none" stroke="#FFFFFF" stroke-width="0.5" stroke-miterlimit="10" d="M-544.385,383.099
			c-0.707,0,106.12-24.212,106.12-24.919c0-0.706,107.972-24.919,108.679-24.919s-96.288,169.566-96.288,170.273
			c0,0.068-9.837,17.164-9.848,17.229C-435.819,521.375-543.747,383.099-544.385,383.099z"/>
		<polygon fill="none" stroke="#FFFFFF" stroke-width="0.5" stroke-miterlimit="10" points="-437.185,521.715 -546.237,380.838 
			-328.133,332.833 		"/>
	</g>
	<g>
		<defs>
			<rect id="SVGID_1_" x="-330" y="-114.755" width="1200" height="6989.755"/>
		</defs>
		<clipPath id="SVGID_2_">
			<use xlink:href="#SVGID_1_"  overflow="visible"/>
		</clipPath>
		<polygon clip-path="url(#SVGID_2_)" fill="#FFFFFF" points="365.717,305.56 365.717,193.318 268.512,137.196 171.308,193.318 
			171.308,305.56 268.512,361.68 		"/>
		<path clip-path="url(#SVGID_2_)" fill="#434048" d="M183.779,238.048l2.905-3.456c2.632,2.277,5.263,3.574,8.681,3.574
			c2.984,0,4.869-1.374,4.869-3.457v-0.079c0-1.963-1.1-3.024-6.205-4.202c-5.853-1.414-9.15-3.142-9.15-8.208v-0.079
			c0-4.713,3.927-7.972,9.386-7.972c4.006,0,7.188,1.217,9.977,3.456l-2.593,3.653c-2.474-1.846-4.948-2.828-7.462-2.828
			c-2.828,0-4.477,1.453-4.477,3.259v0.079c0,2.122,1.256,3.063,6.519,4.321c5.813,1.413,8.837,3.495,8.837,8.051v0.079
			c0,5.145-4.046,8.208-9.818,8.208C191.045,242.448,187.078,240.995,183.779,238.048"/>
		<polygon clip-path="url(#SVGID_2_)" fill="#434048" points="216.145,219.04 207.425,219.04 207.425,214.563 229.734,214.563 
			229.734,219.04 221.015,219.04 221.015,242.055 216.145,242.055 		"/>
		<polygon clip-path="url(#SVGID_2_)" fill="#434048" points="263.191,219.04 254.472,219.04 254.472,214.563 276.78,214.563 
			276.78,219.04 268.061,219.04 268.061,242.055 263.191,242.055 		"/>
		<polygon clip-path="url(#SVGID_2_)" fill="#434048" points="281.1,214.563 301.483,214.563 301.483,218.883 285.93,218.883 
			285.93,226.031 299.715,226.031 299.715,230.352 285.93,230.352 285.93,237.735 301.679,237.735 301.679,242.055 281.1,242.055 		
			"/>
		<path clip-path="url(#SVGID_2_)" fill="#434048" d="M304.781,238.048l2.906-3.456c2.631,2.277,5.264,3.574,8.68,3.574
			c2.984,0,4.869-1.374,4.869-3.457v-0.079c0-1.963-1.1-3.024-6.204-4.202c-5.853-1.414-9.15-3.142-9.15-8.208v-0.079
			c0-4.713,3.926-7.972,9.385-7.972c4.007,0,7.188,1.217,9.977,3.456l-2.593,3.653c-2.474-1.846-4.947-2.828-7.462-2.828
			c-2.828,0-4.477,1.453-4.477,3.259v0.079c0,2.122,1.256,3.063,6.519,4.321c5.813,1.413,8.837,3.495,8.837,8.051v0.079
			c0,5.145-4.045,8.208-9.817,8.208C312.048,242.448,308.081,240.995,304.781,238.048"/>
		<path clip-path="url(#SVGID_2_)" fill="#434048" d="M183.739,266.327v-0.08c0-7.814,5.853-14.217,14.179-14.217
			c5.065,0,8.13,1.768,10.761,4.281l-3.103,3.574c-2.198-2.042-4.556-3.416-7.697-3.416c-5.264,0-9.073,4.32-9.073,9.701v0.077
			c0,5.381,3.81,9.781,9.073,9.781c3.378,0,5.538-1.375,7.894-3.574l3.104,3.142c-2.867,2.986-6.01,4.87-11.155,4.87
			C189.71,280.466,183.739,274.221,183.739,266.327"/>
		<polygon clip-path="url(#SVGID_2_)" fill="#434048" points="213.156,252.502 217.985,252.502 217.985,263.932 231.104,263.932 
			231.104,252.502 235.935,252.502 235.935,279.995 231.104,279.995 231.104,268.409 217.985,268.409 217.985,279.995 
			213.156,279.995 		"/>
		<polygon clip-path="url(#SVGID_2_)" fill="#434048" points="272.459,252.502 276.936,252.502 291.663,271.512 291.663,252.502 
			296.415,252.502 296.415,279.995 292.37,279.995 277.211,260.436 277.211,279.995 272.459,279.995 		"/>
		<path clip-path="url(#SVGID_2_)" fill="#434048" d="M301.481,266.327v-0.08c0-7.697,5.892-14.217,14.179-14.217
			c4.791,0,7.736,1.336,10.563,3.731l-3.063,3.652c-2.12-1.806-4.202-2.944-7.698-2.944c-5.066,0-8.916,4.437-8.916,9.701v0.077
			c0,5.657,3.732,9.819,9.348,9.819c2.593,0,4.948-0.825,6.639-2.081v-5.145h-7.031v-4.202h11.705v11.546
			c-2.71,2.316-6.599,4.28-11.469,4.28C307.137,280.466,301.481,274.339,301.481,266.327"/>
		<polygon clip-path="url(#SVGID_2_)" fill="#434048" points="332.703,252.502 353.088,252.502 353.088,256.823 337.534,256.823 
			337.534,263.971 351.319,263.971 351.319,268.292 337.534,268.292 337.534,275.674 353.283,275.674 353.283,279.995 
			332.703,279.995 		"/>
		<polygon clip-path="url(#SVGID_2_)" fill="#434048" points="256.048,242.055 241.711,214.367 227.376,242.055 		"/>
		<polygon clip-path="url(#SVGID_2_)" fill="#434048" points="268.578,280.093 254.242,252.405 239.907,280.093 		"/>
		<path clip-path="url(#SVGID_2_)" fill="#434048" d="M331.244,225.383v-0.032c0-3.179,2.453-5.843,5.922-5.843
			c3.47,0,5.891,2.631,5.891,5.811v0.032c0,3.179-2.452,5.842-5.923,5.842C333.664,231.194,331.244,228.564,331.244,225.383
			 M340.975,225.383v-0.032c0-2.195-1.598-4.019-3.841-4.019s-3.808,1.792-3.808,3.987v0.032c0,2.195,1.596,4.018,3.84,4.018
			S340.975,227.579,340.975,225.383"/>
		<polygon clip-path="url(#SVGID_2_)" fill="#434048" points="344.707,219.702 353.114,219.702 353.114,221.511 346.691,221.511 
			346.691,224.593 352.39,224.593 352.39,226.4 346.691,226.4 346.691,231 344.707,231 		"/>
		<rect x="331.838" y="235.299" clip-path="url(#SVGID_2_)" fill="#434048" width="21.277" height="1.81"/>
	</g>
</g>
</svg>
