<?xml version="1.0" encoding="utf-8"?>
<!-- Generator: Adobe Illustrator 21.1.0, SVG Export Plug-In . SVG Version: 6.00 Build 0)  -->
<svg version="1.1" xmlns="http://www.w3.org/2000/svg" xmlns:xlink="http://www.w3.org/1999/xlink" x="0px" y="0px"
	 viewBox="0 0 1554 331" style="enable-background:new 0 0 1554 331;" xml:space="preserve">
<style type="text/css">
	.st0{fill:none;stroke:#FFFFFF;stroke-width:0.5;stroke-miterlimit:10;}
	.st1{fill:none;stroke:#FFFFFF;stroke-width:0.4993;stroke-miterlimit:10;}
	.st2{fill:none;stroke:#FFFFFF;stroke-width:0.4986;stroke-miterlimit:10;}
	.st3{fill:none;stroke:#FFFFFF;stroke-width:0.498;stroke-miterlimit:10;}
	.st4{fill:none;stroke:#FFFFFF;stroke-width:0.4973;stroke-miterlimit:10;}
	.st5{fill:none;stroke:#FFFFFF;stroke-width:0.4966;stroke-miterlimit:10;}
	.st6{fill:none;stroke:#FFFFFF;stroke-width:0.4959;stroke-miterlimit:10;}
	.st7{fill:none;stroke:#FFFFFF;stroke-width:0.4953;stroke-miterlimit:10;}
	.st8{fill:none;stroke:#FFFFFF;stroke-width:0.4946;stroke-miterlimit:10;}
	.st9{fill:none;stroke:#FFFFFF;stroke-width:0.4939;stroke-miterlimit:10;}
	.st10{fill:none;stroke:#FFFFFF;stroke-width:0.4932;stroke-miterlimit:10;}
	.st11{fill:none;stroke:#FFFFFF;stroke-width:0.4926;stroke-miterlimit:10;}
	.st12{fill:none;stroke:#FFFFFF;stroke-width:0.4919;stroke-miterlimit:10;}
	.st13{fill:none;stroke:#FFFFFF;stroke-width:0.4912;stroke-miterlimit:10;}
	.st14{fill:none;stroke:#FFFFFF;stroke-width:0.4905;stroke-miterlimit:10;}
	.st15{fill:none;stroke:#FFFFFF;stroke-width:0.4899;stroke-miterlimit:10;}
	.st16{fill:none;stroke:#FFFFFF;stroke-width:0.4892;stroke-miterlimit:10;}
	.st17{fill:none;stroke:#FFFFFF;stroke-width:0.4885;stroke-miterlimit:10;}
	.st18{fill:none;stroke:#FFFFFF;stroke-width:0.4878;stroke-miterlimit:10;}
	.st19{fill:none;stroke:#FFFFFF;stroke-width:0.4872;stroke-miterlimit:10;}
	.st20{fill:none;stroke:#FFFFFF;stroke-width:0.4865;stroke-miterlimit:10;}
	.st21{fill:none;stroke:#FFFFFF;stroke-width:0.4858;stroke-miterlimit:10;}
	.st22{fill:none;stroke:#FFFFFF;stroke-width:0.4851;stroke-miterlimit:10;}
	.st23{fill:none;stroke:#FFFFFF;stroke-width:0.4845;stroke-miterlimit:10;}
	.st24{fill:none;stroke:#FFFFFF;stroke-width:0.4838;stroke-miterlimit:10;}
	.st25{fill:none;stroke:#FFFFFF;stroke-width:0.4831;stroke-miterlimit:10;}
	.st26{fill:none;stroke:#FFFFFF;stroke-width:0.4824;stroke-miterlimit:10;}
	.st27{fill:none;stroke:#FFFFFF;stroke-width:0.4818;stroke-miterlimit:10;}
	.st28{fill:none;stroke:#FFFFFF;stroke-width:0.4811;stroke-miterlimit:10;}
	.st29{fill:none;stroke:#FFFFFF;stroke-width:0.4804;stroke-miterlimit:10;}
	.st30{fill:none;stroke:#FFFFFF;stroke-width:0.4797;stroke-miterlimit:10;}
	.st31{fill:none;stroke:#FFFFFF;stroke-width:0.4791;stroke-miterlimit:10;}
	.st32{fill:none;stroke:#FFFFFF;stroke-width:0.4784;stroke-miterlimit:10;}
	.st33{fill:none;stroke:#FFFFFF;stroke-width:0.4777;stroke-miterlimit:10;}
	.st34{fill:none;stroke:#FFFFFF;stroke-width:0.477;stroke-miterlimit:10;}
	.st35{fill:none;stroke:#FFFFFF;stroke-width:0.4764;stroke-miterlimit:10;}
	.st36{fill:none;stroke:#FFFFFF;stroke-width:0.4757;stroke-miterlimit:10;}
	.st37{fill:none;stroke:#FFFFFF;stroke-width:0.475;stroke-miterlimit:10;}
	.st38{fill:none;stroke:#FFFFFF;stroke-width:0.4743;stroke-miterlimit:10;}
	.st39{fill:none;stroke:#FFFFFF;stroke-width:0.4737;stroke-miterlimit:10;}
	.st40{fill:none;stroke:#FFFFFF;stroke-width:0.473;stroke-miterlimit:10;}
	.st41{fill:none;stroke:#FFFFFF;stroke-width:0.4723;stroke-miterlimit:10;}
	.st42{fill:none;stroke:#FFFFFF;stroke-width:0.4716;stroke-miterlimit:10;}
	.st43{fill:none;stroke:#FFFFFF;stroke-width:0.471;stroke-miterlimit:10;}
	.st44{fill:none;stroke:#FFFFFF;stroke-width:0.4703;stroke-miterlimit:10;}
	.st45{fill:none;stroke:#FFFFFF;stroke-width:0.4696;stroke-miterlimit:10;}
	.st46{fill:none;stroke:#FFFFFF;stroke-width:0.4689;stroke-miterlimit:10;}
	.st47{fill:none;stroke:#FFFFFF;stroke-width:0.4683;stroke-miterlimit:10;}
	.st48{fill:none;stroke:#FFFFFF;stroke-width:0.4676;stroke-miterlimit:10;}
	.st49{fill:none;stroke:#FFFFFF;stroke-width:0.4669;stroke-miterlimit:10;}
	.st50{fill:none;stroke:#FFFFFF;stroke-width:0.4662;stroke-miterlimit:10;}
	.st51{fill:none;stroke:#FFFFFF;stroke-width:0.4656;stroke-miterlimit:10;}
	.st52{fill:none;stroke:#FFFFFF;stroke-width:0.4649;stroke-miterlimit:10;}
	.st53{fill:none;stroke:#FFFFFF;stroke-width:0.4642;stroke-miterlimit:10;}
	.st54{fill:none;stroke:#FFFFFF;stroke-width:0.4635;stroke-miterlimit:10;}
	.st55{fill:none;stroke:#FFFFFF;stroke-width:0.4629;stroke-miterlimit:10;}
	.st56{fill:none;stroke:#FFFFFF;stroke-width:0.4622;stroke-miterlimit:10;}
	.st57{fill:none;stroke:#FFFFFF;stroke-width:0.4615;stroke-miterlimit:10;}
	.st58{fill:none;stroke:#FFFFFF;stroke-width:0.4608;stroke-miterlimit:10;}
	.st59{fill:none;stroke:#FFFFFF;stroke-width:0.4602;stroke-miterlimit:10;}
	.st60{fill:none;stroke:#FFFFFF;stroke-width:0.4595;stroke-miterlimit:10;}
	.st61{fill:none;stroke:#FFFFFF;stroke-width:0.4588;stroke-miterlimit:10;}
	.st62{fill:none;stroke:#FFFFFF;stroke-width:0.4581;stroke-miterlimit:10;}
	.st63{fill:none;stroke:#FFFFFF;stroke-width:0.4575;stroke-miterlimit:10;}
	.st64{fill:none;stroke:#FFFFFF;stroke-width:0.4568;stroke-miterlimit:10;}
	.st65{fill:none;stroke:#FFFFFF;stroke-width:0.4561;stroke-miterlimit:10;}
	.st66{fill:none;stroke:#FFFFFF;stroke-width:0.4554;stroke-miterlimit:10;}
	.st67{fill:#FFFFFF;}
	.st68{fill:#444249;}
</style>
<g id="Layer_2">
</g>
<g id="Layer_1">
	<g>
		<g>
			<circle class="st0" cx="1822.2" cy="148.8" r="78.5"/>
			<path class="st0" d="M1822.2,70.4c42.7,0,77.7,35.7,77.7,78.4c0,21.3-8.2,41.8-22.2,55.8c-14,14-34.5,22.5-55.8,22.5
				c-21.3,0-41.9-8.8-55.8-22.8c-14-14-21.9-34.2-21.9-55.6C1744.1,105.9,1779.5,70.4,1822.2,70.4z"/>
			<path class="st0" d="M1821.7,70.4c42,0,77,36.3,77,78.3c0,21-7.6,42.3-21.4,56s-35.2,21.9-56.2,21.9c-21,0-42.4-8.9-56.2-22.7
				c-13.8-13.8-20.8-34.7-20.8-55.7C1744.2,106.3,1779.7,70.4,1821.7,70.4z"/>
			<path class="st0" d="M1820.9,70.2c41.4,0,76.2,36.9,76.2,78.2c0,20.7-7.1,42.8-20.6,56.3c-13.6,13.6-35.8,21.4-56.5,21.4
				c-20.7,0-43-8.9-56.5-22.5c-13.6-13.6-19.7-35.1-19.7-55.8C1743.8,106.5,1779.6,70.2,1820.9,70.2z"/>
			<path class="st0" d="M1819.8,69.9c40.7,0,75.5,37.5,75.5,78.2c0,20.4-6.5,43.2-19.8,56.6c-13.3,13.3-36.5,20.9-56.9,20.9
				c-20.4,0-43.5-9-56.9-22.3c-13.3-13.3-18.6-35.5-18.6-55.9C1743.1,106.7,1779,69.9,1819.8,69.9z"/>
			<path class="st0" d="M1818.2,69.5c40.1,0,74.7,38,74.7,78.1c0,20-5.9,43.7-19.1,56.9s-37.2,20.3-57.2,20.3
				c-20,0-44.1-9-57.2-22.1c-13.1-13.1-17.5-35.9-17.5-56C1742,106.7,1778.2,69.5,1818.2,69.5z"/>
			<path class="st0" d="M1816.3,69c39.4,0,74,38.6,74,78c0,19.7-5.4,44.2-18.3,57.1c-12.9,12.9-37.8,19.8-57.5,19.8
				c-19.7,0-44.6-9.1-57.5-22c-12.9-12.9-16.4-36.3-16.4-56C1740.5,106.5,1776.9,69,1816.3,69z"/>
			<path class="st0" d="M1814.1,68.4c38.7,0,73.2,39.2,73.2,77.9c0,19.4-4.8,44.7-17.5,57.4c-12.7,12.7-38.5,19.3-57.9,19.3
				c-19.4,0-45.2-9.1-57.9-21.8c-12.7-12.7-15.3-36.8-15.3-56.1C1738.7,106.3,1775.4,68.4,1814.1,68.4z"/>
			<path class="st0" d="M1811.5,67.7c38.1,0,72.5,39.8,72.5,77.9c0,19-4.2,45.2-16.7,57.7s-39.2,18.8-58.2,18.8
				c-19,0-45.8-9.2-58.2-21.6c-12.5-12.5-14.2-37.2-14.2-56.2C1736.6,106,1773.5,67.7,1811.5,67.7z"/>
			<path class="st0" d="M1808.7,66.9c37.4,0,71.7,40.4,71.7,77.8c0,18.7-3.7,45.7-15.9,57.9c-12.3,12.3-39.9,18.2-58.6,18.2
				c-18.7,0-46.3-9.2-58.6-21.5c-12.3-12.3-13.1-37.6-13.1-56.3C1734.2,105.6,1771.2,66.9,1808.7,66.9z"/>
			<path class="st0" d="M1805.5,66c36.8,0,71,40.9,71,77.7c0,18.4-3.1,46.2-15.1,58.2s-40.5,17.7-58.9,17.7
				c-18.4,0-46.9-9.2-58.9-21.3c-12-12-12-38-12-56.4C1731.4,105.1,1768.7,66,1805.5,66z"/>
			<path class="st0" d="M1802,65c36.1,0,70.2,41.5,70.2,77.6c0,18.1-2.5,46.7-14.3,58.5c-11.8,11.8-41.2,17.2-59.3,17.2
				c-18.1,0-47.4-9.3-59.3-21.1c-11.8-11.8-10.9-38.5-10.9-56.5C1728.4,104.6,1765.9,65,1802,65z"/>
			<path class="st0" d="M1798.2,64c35.5,0,69.4,42.1,69.4,77.6c0,17.7-1.9,47.1-13.6,58.8c-11.6,11.6-41.9,16.7-59.6,16.7
				c-17.7,0-48-9.3-59.6-21c-11.6-11.6-9.8-38.9-9.8-56.6C1725.1,103.9,1762.7,64,1798.2,64z"/>
			<path class="st0" d="M1794.2,62.9c34.8,0,68.7,42.7,68.7,77.5c0,17.4-1.4,47.6-12.8,59c-11.4,11.4-42.5,16.1-59.9,16.1
				c-17.4,0-48.5-9.4-59.9-20.8c-11.4-11.4-8.8-39.3-8.8-56.7C1721.5,103.2,1759.4,62.9,1794.2,62.9z"/>
			<path class="st0" d="M1790,61.7c34.1,0,67.9,43.3,67.9,77.4c0,17.1-0.8,48.1-12,59.3c-11.2,11.2-43.2,15.6-60.3,15.6
				c-17.1,0-49.1-9.4-60.3-20.6c-11.2-11.2-7.7-39.7-7.7-56.8C1717.7,102.4,1755.8,61.7,1790,61.7z"/>
			<path class="st0" d="M1785.5,60.4c33.5,0,67.2,43.9,67.2,77.3c0,16.7-0.2,48.6-11.2,59.6s-43.9,15.1-60.6,15.1
				c-16.7,0-49.7-9.5-60.6-20.5c-11-11-6.6-40.1-6.6-56.9C1713.7,101.6,1752,60.4,1785.5,60.4z"/>
			<path class="st0" d="M1780.8,59.2c32.8,0,66.4,44.4,66.4,77.3c0,16.4,0.3,49.1-10.4,59.9s-44.5,14.6-61,14.6
				c-16.4,0-50.2-9.5-61-20.3c-10.8-10.8-5.5-40.6-5.5-57C1709.5,100.7,1748,59.2,1780.8,59.2z"/>
			<path class="st0" d="M1775.9,57.8c32.2,0,65.7,45,65.7,77.2c0,16.1,0.9,49.6-9.6,60.1s-45.2,14-61.3,14
				c-16.1,0-50.8-9.6-61.3-20.1c-10.5-10.5-4.4-41-4.4-57.1C1705,99.8,1743.8,57.8,1775.9,57.8z"/>
			<path class="st0" d="M1770.8,56.5c31.5,0,64.9,45.6,64.9,77.1c0,15.8,1.5,50.1-8.9,60.4c-10.3,10.3-45.9,13.5-61.6,13.5
				c-15.8,0-51.3-9.6-61.7-19.9c-10.3-10.3-3.3-41.4-3.3-57.2C1700.3,98.8,1739.3,56.5,1770.8,56.5z"/>
			<path class="st0" d="M1765.5,55.1c30.9,0,64.2,46.2,64.2,77c0,15.4,2,50.6-8.1,60.7c-10.1,10.1-46.6,13-62,13
				c-15.4,0-51.9-9.7-62-19.8c-10.1-10.1-2.2-41.8-2.2-57.3C1695.4,97.8,1734.6,55.1,1765.5,55.1z"/>
			<path class="st0" d="M1759.9,53.6c30.2,0,63.4,46.8,63.4,77c0,15.1,2.6,51-7.3,60.9c-9.9,9.9-47.2,12.4-62.3,12.4
				c-15.1,0-52.4-9.7-62.3-19.6c-9.9-9.9-1.1-42.3-1.1-57.4C1690.3,96.8,1729.7,53.6,1759.9,53.6z"/>
			<path class="st0" d="M1754.1,52.2c29.6,0,62.7,47.3,62.7,76.9c0,14.8,3.2,51.5-6.5,61.2c-9.7,9.7-47.9,11.9-62.7,11.9
				c-14.8,0-53-9.7-62.7-19.4c-9.7-9.7,0-42.7,0-57.5C1684.9,95.8,1724.5,52.2,1754.1,52.2z"/>
			<path class="st0" d="M1748.1,50.7c28.9,0,61.9,47.9,61.9,76.8c0,14.4,3.8,52-5.7,61.5c-9.5,9.5-48.6,11.4-63,11.4
				c-14.4,0-53.5-9.8-63-19.3c-9.5-9.5,1.1-43.1,1.1-57.5C1679.4,94.7,1719.2,50.7,1748.1,50.7z"/>
			<path class="st0" d="M1741.9,49.2c28.2,0,61.2,48.5,61.2,76.7c0,14.1,4.3,52.5-4.9,61.8s-49.2,10.9-63.4,10.9
				c-14.1,0-54.1-9.8-63.4-19.1c-9.2-9.3,2.2-43.5,2.2-57.6C1673.6,93.6,1713.6,49.2,1741.9,49.2z"/>
			<path class="st0" d="M1735.5,47.7c27.6,0,60.4,49.1,60.4,76.7c0,13.8,4.9,53-4.1,62c-9,9-49.9,10.3-63.7,10.3
				c-13.8,0-54.7-9.9-63.7-18.9c-9-9,3.3-43.9,3.3-57.7C1667.7,92.5,1707.9,47.7,1735.5,47.7z"/>
			<path class="st0" d="M1728.9,46.3c26.9,0,59.7,49.7,59.7,76.6c0,13.5,5.5,53.5-3.4,62.3c-8.8,8.8-50.6,9.8-64,9.8
				c-13.5,0-55.2-9.9-64-18.8c-8.8-8.8,4.4-44.4,4.4-57.8C1661.5,91.4,1702,46.3,1728.9,46.3z"/>
			<path class="st0" d="M1722.2,44.8c26.3,0,58.9,50.2,58.9,76.5c0,13.1,6,54-2.6,62.6c-8.6,8.6-51.2,9.3-64.4,9.3
				c-13.1,0-55.8-10-64.4-18.6c-8.6-8.6,5.5-44.8,5.5-57.9C1655.2,90.4,1695.9,44.8,1722.2,44.8z"/>
			<path class="st0" d="M1715.3,43.3c25.6,0,58.2,50.8,58.2,76.4c0,12.8,6.6,54.5-1.8,62.9c-8.4,8.4-51.9,8.8-64.7,8.8
				c-12.8,0-56.3-10-64.7-18.4c-8.4-8.4,6.6-45.2,6.6-58C1648.8,89.3,1689.7,43.3,1715.3,43.3z"/>
			<path class="st0" d="M1708.2,41.9c25,0,57.4,51.4,57.4,76.4c0,12.5,7.2,55-1,63.1c-8.2,8.2-52.6,8.2-65.1,8.2
				c-12.5,0-56.9-10.1-65.1-18.2c-8.2-8.2,7.7-45.6,7.7-58.1C1642.1,88.3,1683.3,41.9,1708.2,41.9z"/>
			<path class="st0" d="M1701,40.4c24.3,0,56.7,52,56.7,76.3c0,12.1,7.7,55.4-0.2,63.4c-8,8-53.3,7.7-65.4,7.7
				c-12.2,0-57.4-10.1-65.4-18.1c-8-8,8.7-46.1,8.7-58.2C1635.4,87.2,1676.7,40.4,1701,40.4z"/>
			<path class="st0" d="M1693.7,39.1c23.6,0,55.9,52.6,55.9,76.2c0,11.8,8.3,55.9,0.6,63.7c-7.7,7.7-53.9,7.2-65.7,7.2
				c-11.8,0-58-10.2-65.8-17.9c-7.7-7.7,9.8-46.5,9.8-58.3C1628.5,86.3,1670,39.1,1693.7,39.1z"/>
			<path class="st0" d="M1686.2,37.7c23,0,55.2,53.1,55.2,76.1c0,11.5,8.9,56.4,1.4,63.9s-54.6,6.6-66.1,6.6
				c-11.5,0-58.6-10.2-66.1-17.7c-7.5-7.5,10.9-46.9,10.9-58.4C1621.5,85.3,1663.2,37.7,1686.2,37.7z"/>
			<path class="st0" d="M1678.6,36.4c22.3,0,54.4,53.7,54.4,76.1c0,11.2,9.5,56.9,2.1,64.2c-7.3,7.3-55.3,6.1-66.4,6.1
				c-11.2,0-59.1-10.3-66.4-17.6c-7.3-7.3,12-47.3,12-58.5C1614.3,84.4,1656.3,36.4,1678.6,36.4z"/>
			<path class="st0" d="M1670.9,35.1c21.7,0,53.7,54.3,53.7,76c0,10.8,10,57.4,2.9,64.5c-7.1,7.1-55.9,5.6-66.8,5.6
				c-10.8,0-59.7-10.3-66.8-17.4c-7.1-7.1,13.1-47.7,13.1-58.6C1607.1,83.5,1649.3,35.1,1670.9,35.1z"/>
			<path class="st0" d="M1663.1,33.8c21,0,52.9,54.9,52.9,75.9c0,10.5,10.6,57.9,3.7,64.8c-6.9,6.9-56.6,5.1-67.1,5.1
				c-10.5,0-60.2-10.3-67.1-17.2c-6.9-6.9,14.2-48.2,14.2-58.7C1599.7,82.6,1642.1,33.8,1663.1,33.8z"/>
			<path class="st0" d="M1655.3,32.6c20.4,0,52.2,55.5,52.2,75.8c0,10.2,11.2,58.4,4.5,65s-57.3,4.5-67.5,4.5
				c-10.2,0-60.8-10.4-67.5-17.1c-6.7-6.7,15.3-48.6,15.3-58.8C1592.3,81.8,1634.9,32.6,1655.3,32.6z"/>
			<path class="st0" d="M1647.3,31.4c19.7,0,51.4,56.1,51.4,75.8c0,9.9,11.7,58.9,5.3,65.3c-6.5,6.5-57.9,4-67.8,4
				c-9.9,0-61.3-10.4-67.8-16.9c-6.5-6.5,16.4-49,16.4-58.9C1584.8,81.1,1627.6,31.4,1647.3,31.4z"/>
			<path class="st0" d="M1639.3,30.4c19,0,50.6,56.6,50.6,75.7c0,9.5,12.3,59.3,6.1,65.6c-6.2,6.2-58.6,3.5-68.1,3.5
				c-9.5,0-61.9-10.5-68.1-16.7c-6.2-6.2,17.5-49.4,17.5-59C1577.2,80.4,1620.2,30.4,1639.3,30.4z"/>
			<path class="st0" d="M1631.2,29.3c18.4,0,49.9,57.2,49.9,75.6c0,9.2,12.9,59.8,6.9,65.9s-59.3,3-68.5,3
				c-9.2,0-62.5-10.5-68.5-16.6c-6-6,18.6-49.9,18.6-59.1C1569.6,79.7,1612.8,29.3,1631.2,29.3z"/>
			<path class="st0" d="M1623.1,28.4c17.7,0,49.1,57.8,49.1,75.5c0,8.9,13.4,60.3,7.6,66.1c-5.8,5.8-60,2.4-68.8,2.4
				c-8.9,0-63-10.6-68.8-16.4c-5.8-5.8,19.7-50.3,19.7-59.1C1561.9,79.2,1605.4,28.4,1623.1,28.4z"/>
			<path class="st0" d="M1614.9,27.5c17.1,0,48.4,58.4,48.4,75.5c0,8.5,14,60.8,8.4,66.4c-5.6,5.6-60.6,1.9-69.2,1.9
				c-8.5,0-63.6-10.6-69.2-16.2c-5.6-5.6,20.8-50.7,20.8-59.2C1554.2,78.7,1597.8,27.5,1614.9,27.5z"/>
			<path class="st0" d="M1606.7,26.7c16.4,0,47.6,59,47.6,75.4c0,8.2,14.6,61.3,9.2,66.7s-61.3,1.4-69.5,1.4
				c-8.2,0-64.1-10.7-69.5-16c-5.4-5.4,21.9-51.1,21.9-59.3C1546.4,78.3,1590.3,26.7,1606.7,26.7z"/>
			<path class="st0" d="M1598.5,26c15.8,0,46.9,59.5,46.9,75.3c0,7.9,15.2,61.8,10,66.9c-5.2,5.2-62,0.8-69.9,0.8
				c-7.9,0-64.7-10.7-69.9-15.9c-5.2-5.2,23-51.5,23-59.4C1538.6,78,1582.7,26,1598.5,26z"/>
			<path class="st0" d="M1590.2,25.4c15.1,0,46.1,60.1,46.1,75.2c0,7.6,15.7,62.3,10.8,67.2c-4.9,4.9-62.6,0.3-70.2,0.3
				c-7.6,0-65.2-10.8-70.2-15.7c-4.9-4.9,24.1-52,24.1-59.5C1530.8,77.8,1575.1,25.4,1590.2,25.4z"/>
			<path class="st0" d="M1582,24.9c14.4,0,45.4,60.7,45.4,75.2c0,7.2,16.3,62.8,11.6,67.5c-4.7,4.7-63.3-0.2-70.5-0.2
				c-7.2,0-65.8-10.8-70.5-15.5c-4.7-4.7,25.2-52.4,25.2-59.6C1523,77.7,1567.5,24.9,1582,24.9z"/>
			<path class="st0" d="M1573.8,24.5c13.8,0,44.6,61.3,44.6,75.1c0,6.9,16.9,63.2,12.3,67.8c-4.5,4.5-64-0.7-70.9-0.7
				c-6.9,0-66.4-10.8-70.9-15.4c-4.5-4.5,26.2-52.8,26.2-59.7C1515.2,77.7,1560,24.5,1573.8,24.5z"/>
			<path class="st0" d="M1565.5,24.2c13.1,0,43.9,61.9,43.9,75c0,6.6,17.4,63.7,13.1,68c-4.3,4.3-64.7-1.3-71.2-1.3
				c-6.6,0-66.9-10.9-71.2-15.2c-4.3-4.3,27.3-53.2,27.3-59.8C1507.4,77.9,1552.4,24.2,1565.5,24.2z"/>
			<path class="st0" d="M1557.3,24.1c12.5,0,43.1,62.4,43.1,74.9c0,6.2,18,64.2,13.9,68.3c-4.1,4.1-65.3-1.8-71.6-1.8
				c-6.2,0-67.5-10.9-71.6-15c-4.1-4.1,28.4-53.7,28.4-59.9C1499.7,78.1,1544.9,24.1,1557.3,24.1z"/>
			<path class="st0" d="M1549.2,24c11.8,0,42.4,63,42.4,74.8c0,5.9,18.6,64.7,14.7,68.6s-66-2.3-71.9-2.3c-5.9,0-68-11-71.9-14.9
				c-3.9-3.9,29.5-54.1,29.5-60C1492,78.5,1537.3,24,1549.2,24z"/>
			<path class="st0" d="M1541,24.1c11.2,0,41.6,63.6,41.6,74.8c0,5.6,19.1,65.2,15.5,68.9c-3.7,3.7-66.7-2.8-72.2-2.8
				c-5.6,0-68.6-11-72.2-14.7c-3.7-3.7,30.6-54.5,30.6-60.1C1484.3,79,1529.9,24.1,1541,24.1z"/>
			<path class="st0" d="M1533,24.4c10.5,0,40.9,64.2,40.9,74.7c0,5.3,19.7,65.7,16.3,69.1c-3.4,3.4-67.3-3.4-72.6-3.4
				c-5.3,0-69.1-11.1-72.6-14.5c-3.4-3.4,31.7-54.9,31.7-60.2C1476.6,79.6,1522.5,24.4,1533,24.4z"/>
			<path class="st0" d="M1524.9,24.8c9.9,0,40.1,64.8,40.1,74.6c0,4.9,20.3,66.2,17.1,69.4s-68-3.9-72.9-3.9
				c-4.9,0-69.7-11.1-72.9-14.3c-3.2-3.2,32.8-55.4,32.8-60.3C1469.1,80.4,1515.1,24.8,1524.9,24.8z"/>
			<path class="st0" d="M1517,25.3c9.2,0,39.4,65.4,39.4,74.5c0,4.6,20.9,66.7,17.8,69.7c-3,3-68.7-4.4-73.3-4.4
				c-4.6,0-70.3-11.2-73.3-14.2c-3-3,33.9-55.8,33.9-60.4C1461.6,81.4,1507.8,25.3,1517,25.3z"/>
			<path class="st0" d="M1509.1,26c8.5,0,38.6,65.9,38.6,74.5c0,4.3,21.4,67.1,18.6,69.9s-69.3-5-73.6-5c-4.3,0-70.8-11.2-73.6-14
				c-2.8-2.8,35-56.2,35-60.5C1454.2,82.5,1500.6,26,1509.1,26z"/>
			<path class="st0" d="M1501.4,26.9c7.9,0,37.9,66.5,37.9,74.4c0,3.9,22,67.6,19.4,70.2s-70-5.5-74-5.5c-3.9,0-71.4-11.3-74-13.8
				c-2.6-2.6,36.1-56.6,36.1-60.6C1446.8,83.7,1493.5,26.9,1501.4,26.9z"/>
			<path class="st0" d="M1493.7,27.9c7.2,0,37.1,67.1,37.1,74.3c0,3.6,22.6,68.1,20.2,70.5s-70.7-6-74.3-6
				c-3.6,0-71.9-11.3-74.3-13.7c-2.4-2.4,37.2-57,37.2-60.7C1439.6,85.2,1486.5,27.9,1493.7,27.9z"/>
			<path class="st0" d="M1486.1,29.1c6.6,0,36.4,67.7,36.4,74.2c0,3.3,23.1,68.6,21,70.8c-2.2,2.2-71.4-6.5-74.6-6.5
				c-3.3,0-72.5-11.3-74.6-13.5c-2.2-2.2,38.3-57.5,38.3-60.7C1432.5,86.8,1479.5,29.1,1486.1,29.1z"/>
			<path class="st0" d="M1478.7,30.5c5.9,0,35.6,68.3,35.6,74.2c0,3,23.7,69.1,21.8,71c-1.9,1.9-72-7.1-75-7.1c-3,0-73-11.4-75-13.3
				c-1.9-1.9,39.4-57.9,39.4-60.8C1425.4,88.6,1472.7,30.5,1478.7,30.5z"/>
			<path class="st0" d="M1471.3,32.1c5.3,0,34.9,68.8,34.9,74.1c0,2.6,24.3,69.6,22.6,71.3c-1.7,1.7-72.7-7.6-75.3-7.6
				c-2.6,0-73.6-11.4-75.3-13.2c-1.7-1.7,40.5-58.3,40.5-60.9C1418.6,90.6,1466.1,32.1,1471.3,32.1z"/>
			<path class="st0" d="M1464.1,33.9c4.6,0,34.1,69.4,34.1,74c0,2.3,24.8,70.1,23.3,71.6c-1.5,1.5-73.4-8.1-75.7-8.1
				c-2.3,0-74.2-11.5-75.7-13c-1.5-1.5,41.6-58.7,41.6-61C1411.8,92.8,1459.5,33.9,1464.1,33.9z"/>
			<path class="st0" d="M1457.1,35.9c3.9,0,33.3,70,33.3,73.9c0,2,25.4,70.6,24.1,71.9c-1.3,1.3-74-8.6-76-8.6
				c-2,0-74.7-11.5-76-12.8c-1.3-1.3,42.7-59.2,42.7-61.1C1405.2,95.2,1453.1,35.9,1457.1,35.9z"/>
			<path class="st0" d="M1450.2,38.1c3.3,0,32.6,70.6,32.6,73.9c0,1.6,26,71.1,24.9,72.1c-1.1,1.1-74.7-9.2-76.3-9.2
				c-1.6,0-75.3-11.6-76.3-12.7c-1.1-1.1,43.8-59.6,43.8-61.2C1398.7,97.8,1446.9,38.1,1450.2,38.1z"/>
			<path class="st0" d="M1443.4,40.5c2.6,0,31.8,71.2,31.8,73.8c0,1.3,26.6,71.5,25.7,72.4c-0.9,0.9-75.4-9.7-76.7-9.7
				c-1.3,0-75.8-11.6-76.7-12.5c-0.9-0.9,44.8-60,44.8-61.3C1392.4,100.6,1440.8,40.5,1443.4,40.5z"/>
			<path class="st0" d="M1436.9,43.1c2,0,31.1,71.7,31.1,73.7c0,1,27.1,72,26.5,72.7s-76-10.2-77-10.2s-76.4-11.7-77-12.3
				c-0.6-0.6,45.9-60.4,45.9-61.4C1386.3,103.6,1434.9,43.1,1436.9,43.1z"/>
			<path class="st0" d="M1430.5,46c1.3,0,30.3,72.3,30.3,73.6c0,0.7,27.7,72.5,27.3,72.9c-0.4,0.4-76.7-10.8-77.4-10.8
				c-0.7,0-76.9-11.7-77.4-12.1c-0.4-0.4,47-60.8,47-61.5C1380.4,106.8,1429.2,46,1430.5,46z"/>
			<path class="st0" d="M1424.3,49c0.7,0,29.6,72.9,29.6,73.6c0,0.3,28.3,73,28,73.2c-0.2,0.2-77.4-11.3-77.7-11.3
				s-77.5-11.8-77.7-12c-0.2-0.2,48.1-61.3,48.1-61.6C1374.6,110.3,1423.6,49,1424.3,49z"/>
			<polygon class="st0" points="1319.8,175.7 1369.1,114 1418.3,52.3 1447.1,125.8 1476,199.3 1397.9,187.5 			"/>
			<polygon class="st1" points="1408.1,58.1 1415.6,76.2 1423.2,94.3 1437.4,131.4 1451.6,168.1 1465.8,204.8 1388,193.1 
				1310.2,181.5 1334.4,150.7 1358.6,119.8 1382.9,88.5 			"/>
			<polygon class="st2" points="1399.2,63 1407.1,80.8 1415,98.6 1429,136.1 1443,172.7 1457,209.3 1379.4,197.8 1301.8,186.4 
				1325.7,155.5 1349.6,124.7 1373.4,92.9 			"/>
			<polygon class="st3" points="1391.5,67 1399.8,84.6 1408.1,102.1 1421.8,140 1435.6,176.5 1449.4,213 1372,201.7 1294.7,190.4 
				1318.2,159.6 1341.7,128.7 1365.2,96.5 			"/>
			<polygon class="st4" points="1384.9,70.3 1393.6,87.6 1402.2,104.8 1415.8,143.1 1429.3,179.5 1442.8,215.9 1365.7,204.8 
				1288.6,193.7 1311.8,162.8 1334.9,132 1358,99.2 			"/>
			<polygon class="st5" points="1379.2,72.8 1388.2,89.8 1397.2,106.7 1410.6,145.4 1423.9,181.7 1437.2,218 1360.4,207.1 
				1283.5,196.2 1306.3,165.3 1329,134.5 1351.8,101.3 			"/>
			<polygon class="st6" points="1374.3,74.6 1383.7,91.3 1393.1,108 1406.2,147 1419.3,183.3 1432.4,219.5 1355.8,208.8 1279.2,198 
				1301.5,167.2 1323.9,136.3 1346.3,102.6 			"/>
			<polygon class="st7" points="1370,75.8 1379.8,92.2 1389.5,108.6 1402.4,148.1 1415.3,184.2 1428.2,220.4 1351.8,209.8 
				1275.4,199.3 1297.4,168.4 1319.4,137.5 1341.4,103.3 			"/>
			<polygon class="st8" points="1366.2,76.4 1376.4,92.6 1386.4,108.7 1399.1,148.5 1411.8,184.6 1424.5,220.6 1348.3,210.3 
				1272.2,199.9 1293.8,169 1315.4,138.1 1337.1,103.5 			"/>
			<polygon class="st9" points="1362.8,76.5 1373.3,92.4 1383.7,108.2 1396.2,148.5 1408.6,184.4 1421.1,220.4 1345.2,210.2 
				1269.3,200 1290.5,169.1 1311.8,138.3 1333.1,103.1 			"/>
			<polygon class="st10" points="1359.5,76.1 1370.4,91.8 1381.2,107.3 1393.4,147.9 1405.7,183.8 1417.9,219.7 1342.2,209.7 
				1266.6,199.7 1287.5,168.8 1308.3,137.9 1329.2,102.3 			"/>
			<polygon class="st11" points="1356.3,75.4 1367.5,90.7 1378.7,106 1390.7,147 1402.7,182.8 1414.7,218.6 1339.3,208.7 
				1263.9,198.9 1284.4,168 1304.9,137.1 1325.4,101.1 			"/>
			<polygon class="st12" points="1353,74.2 1364.6,89.3 1376.1,104.3 1387.9,145.7 1399.7,181.4 1411.5,217.1 1336.3,207.4 
				1261.2,197.8 1281.3,166.9 1301.4,136 1321.6,99.5 			"/>
			<polygon class="st13" points="1349.5,72.8 1361.4,87.6 1373.3,102.3 1384.9,144.1 1396.5,179.7 1408,215.3 1333.1,205.8 
				1258.2,196.4 1277.9,165.5 1297.7,134.6 1317.5,97.6 			"/>
			<polygon class="st14" points="1345.5,71.1 1357.8,85.6 1370.1,100.1 1381.4,142.2 1392.8,177.8 1404.2,213.3 1329.5,204 
				1254.8,194.7 1274.2,163.8 1293.6,132.9 1313,95.4 			"/>
			<polygon class="st15" points="1341.1,69.2 1353.7,83.5 1366.3,97.6 1377.5,140.2 1388.6,175.6 1399.8,211.1 1325.3,202 
				1250.9,192.8 1269.9,161.9 1288.9,131 1307.9,93.1 			"/>
			<polygon class="st16" points="1335.9,67.2 1348.9,81.2 1361.9,95 1372.8,138 1383.8,173.3 1394.7,208.7 1320.5,199.8 
				1246.3,190.8 1264.9,159.9 1283.6,129 1302.2,90.6 			"/>
			<polygon class="st17" points="1330,65.1 1343.3,78.8 1356.7,92.4 1367.4,135.7 1378.1,171 1388.8,206.3 1314.8,197.5 
				1240.8,188.7 1259.1,157.8 1277.4,126.9 1295.7,88 			"/>
			<polygon class="st18" points="1323,63 1336.8,76.4 1350.5,89.7 1361,133.4 1371.4,168.6 1381.9,203.8 1308.2,195.2 1234.5,186.6 
				1252.4,155.7 1270.3,124.8 1288.2,85.4 			"/>
			<polygon class="st19" points="1315,60.8 1329.1,74 1343.1,87 1353.4,131.1 1363.7,166.2 1373.9,201.3 1300.4,192.9 1227,184.5 
				1244.5,153.6 1262,122.7 1279.5,82.8 			"/>
			<polygon class="st20" points="1305.7,58.8 1320.1,71.6 1334.6,84.4 1344.6,128.9 1354.6,163.9 1364.7,198.9 1291.4,190.7 
				1218.2,182.5 1235.3,151.6 1252.5,120.6 1269.6,80.3 			"/>
			<polygon class="st21" points="1294.9,56.9 1309.8,69.4 1324.6,81.9 1334.4,126.8 1344.2,161.7 1354,196.7 1281,188.6 1208,180.6 
				1224.8,149.7 1241.6,118.7 1258.4,77.9 			"/>
			<polygon class="st22" points="1285.4,55.6 1300.6,67.9 1315.8,80.1 1325.4,125.3 1335,160.2 1344.6,195.1 1271.8,187.2 
				1199.1,179.3 1215.5,148.4 1231.9,117.5 1248.3,76.2 			"/>
			<polygon class="st23" points="1278.4,55.2 1294,67.2 1309.5,79.1 1318.9,124.7 1328.3,159.5 1337.7,194.3 1265.2,186.6 
				1192.6,178.9 1208.7,148 1224.7,117.1 1240.7,75.3 			"/>
			<polygon class="st24" points="1271.7,55.3 1287.7,67 1303.5,78.7 1312.7,124.7 1321.9,159.4 1331.1,194.1 1258.8,186.5 
				1186.5,179 1202.1,148.1 1217.8,117.2 1233.5,74.9 			"/>
			<polygon class="st25" points="1265.3,55.8 1281.6,67.3 1297.9,78.7 1306.8,125.1 1315.8,159.7 1324.7,194.3 1252.7,186.9 
				1180.6,179.6 1195.9,148.7 1211.2,117.7 1226.5,75 			"/>
			<polygon class="st26" points="1259.2,56.9 1275.8,68 1292.4,79.1 1301.2,125.9 1309.9,160.4 1318.7,194.9 1246.8,187.8 
				1175,180.6 1189.9,149.7 1204.9,118.7 1219.8,75.5 			"/>
			<polygon class="st27" points="1253.3,58.3 1270.3,69.2 1287.3,80 1295.8,127.2 1304.3,161.6 1312.8,196 1241.3,189.1 
				1169.7,182.1 1184.2,151.1 1198.8,120.2 1213.3,76.5 			"/>
			<polygon class="st28" points="1247.7,60.1 1265,70.7 1282.3,81.3 1290.6,128.8 1299,163.2 1307.3,197.5 1235.9,190.7 
				1164.6,183.9 1178.8,153 1192.9,122 1207.1,77.9 			"/>
			<polygon class="st29" points="1242.2,62.3 1259.9,72.6 1277.6,82.9 1285.7,130.8 1293.8,165.1 1301.9,199.4 1230.8,192.7 
				1159.7,186.1 1173.5,155.2 1187.3,124.2 1201.1,79.6 			"/>
			<polygon class="st30" points="1237,64.8 1255.1,74.9 1273.1,84.9 1281,133.2 1288.9,167.4 1296.7,201.6 1225.9,195.1 1155,188.7 
				1168.4,157.7 1181.9,126.8 1195.3,81.7 			"/>
			<polygon class="st31" points="1231.9,67.7 1250.4,77.4 1268.8,87.2 1276.4,135.9 1284.1,170 1291.7,204.1 1221.1,197.8 
				1150.5,191.5 1163.6,160.6 1176.6,129.6 1189.7,84 			"/>
			<polygon class="st32" points="1227.1,70.8 1245.9,80.3 1264.6,89.7 1272.1,138.8 1279.5,172.8 1286.9,206.8 1216.5,200.7 
				1146.2,194.7 1158.9,163.7 1171.5,132.7 1184.2,86.7 			"/>
			<polygon class="st33" points="1222.3,74.2 1241.5,83.4 1260.6,92.5 1267.8,142 1275,175.9 1282.3,209.9 1212.1,204 1142,198.1 
				1154.3,167.1 1166.6,136.1 1178.9,89.6 			"/>
			<polygon class="st34" points="1217.7,77.8 1237.2,86.7 1256.8,95.6 1263.7,145.5 1270.7,179.3 1277.7,213.1 1207.8,207.4 
				1137.9,201.7 1149.9,170.7 1161.8,139.7 1173.7,92.7 			"/>
			<polygon class="st35" points="1213.2,81.6 1233.1,90.2 1253,98.8 1259.8,149.1 1266.5,182.8 1273.3,216.6 1203.7,211 1134,205.5 
				1145.6,174.5 1157.1,143.5 1168.7,96.1 			"/>
			<polygon class="st36" points="1208.8,85.6 1229.1,93.9 1249.3,102.3 1255.9,152.9 1262.4,186.6 1269,220.2 1199.6,214.9 
				1130.2,209.5 1141.4,178.5 1152.5,147.5 1163.7,99.6 			"/>
			<polygon class="st37" points="1204.5,89.7 1225.2,97.8 1245.7,105.8 1252.1,156.8 1258.4,190.4 1264.8,224 1195.6,218.8 
				1126.4,213.6 1137.2,182.6 1148,151.7 1158.9,103.2 			"/>
			<polygon class="st38" points="1200.3,93.9 1221.3,101.7 1242.2,109.5 1248.4,160.9 1254.5,194.4 1260.6,227.9 1191.7,222.9 
				1122.7,217.9 1133.2,186.9 1143.6,155.9 1154,107 			"/>
			<polygon class="st39" points="1196.1,98.3 1217.4,105.8 1238.8,113.3 1244.7,165.1 1250.6,198.5 1256.5,231.9 1187.8,227.1 
				1119.1,222.2 1129.2,191.3 1139.2,160.3 1149.3,110.9 			"/>
			<polygon class="st40" points="1192,102.7 1213.7,109.9 1235.3,117.1 1241,169.3 1246.7,202.6 1252.4,236 1183.9,231.3 
				1115.5,226.7 1125.2,195.7 1134.9,164.7 1144.6,114.8 			"/>
			<polygon class="st41" points="1187.8,107.1 1209.9,114.1 1231.9,121 1237.4,173.6 1242.8,206.8 1248.3,240.1 1180.1,235.6 
				1111.9,231.1 1121.2,200.1 1130.5,169.1 1139.8,118.8 			"/>
			<polygon class="st42" points="1183.7,111.5 1206.1,118.2 1228.5,124.9 1233.7,177.8 1239,211 1244.2,244.2 1176.3,239.9 
				1108.3,235.6 1117.2,204.6 1126.2,173.6 1135.1,122.8 			"/>
			<polygon class="st43" points="1179.5,116 1202.3,122.4 1225.1,128.8 1230.1,182.1 1235.1,215.2 1240.1,248.2 1172.4,244.1 
				1104.7,240 1113.2,209 1121.8,178 1130.4,126.7 			"/>
			<polygon class="st44" points="1175.3,120.3 1198.4,126.5 1221.6,132.6 1226.4,186.3 1231.2,219.3 1236,252.3 1168.5,248.3 
				1101,244.4 1109.2,213.4 1117.4,182.4 1125.6,130.6 			"/>
			<polygon class="st45" points="1171.1,124.6 1194.6,130.5 1218.1,136.3 1222.6,190.4 1227.2,223.3 1231.8,256.2 1164.6,252.5 
				1097.3,248.7 1105.1,217.7 1113,186.7 1120.8,134.5 			"/>
			<polygon class="st46" points="1166.7,128.9 1190.6,134.4 1214.5,140 1218.8,194.5 1223.2,227.3 1227.6,260.1 1160.6,256.5 
				1093.5,252.9 1101,221.9 1108.5,190.9 1115.9,138.2 			"/>
			<polygon class="st47" points="1162.3,132.9 1186.5,138.2 1210.8,143.5 1214.9,198.4 1219.1,231.1 1223.2,263.8 1156.5,260.4 
				1089.7,257 1096.8,226 1103.9,195 1110.9,141.8 			"/>
			<polygon class="st48" points="1157.8,136.8 1182.4,141.9 1207,146.9 1210.9,202.1 1214.8,234.8 1218.8,267.4 1152.2,264.2 
				1085.7,261 1092.4,229.9 1099.1,198.9 1105.9,145.3 			"/>
			<polygon class="st49" points="1153.2,140.6 1178.1,145.3 1203.1,150 1206.8,205.7 1210.5,238.3 1214.2,270.8 1147.9,267.8 
				1081.6,264.7 1088,233.7 1094.3,202.7 1100.6,148.5 			"/>
			<polygon class="st50" points="1148.4,144.1 1173.7,148.6 1199,153 1202.5,209.1 1206,241.5 1209.5,274 1143.5,271.1 
				1077.4,268.3 1083.4,237.2 1089.3,206.2 1095.3,151.6 			"/>
			<polygon class="st51" points="1143.5,147.4 1169.2,151.6 1194.8,155.8 1198.1,212.2 1201.4,244.6 1204.7,276.9 1138.8,274.3 
				1073,271.6 1078.6,240.5 1084.2,209.5 1089.8,154.4 			"/>
			<polygon class="st52" points="1138.4,150.4 1164.4,154.3 1190.4,158.2 1193.5,215 1196.6,247.3 1199.6,279.6 1134.1,277.1 
				1068.5,274.6 1073.7,243.6 1078.9,212.5 1084.1,157 			"/>
			<polygon class="st53" points="1133.1,153.2 1159.5,156.8 1185.9,160.4 1188.7,217.6 1191.6,249.8 1194.4,282 1129.1,279.7 
				1063.7,277.4 1068.6,246.3 1073.4,215.3 1078.3,159.2 			"/>
			<polygon class="st54" points="1127.6,155.6 1154.4,158.9 1181.1,162.2 1183.7,219.8 1186.4,252 1189,284.1 1123.9,281.9 
				1058.8,279.8 1063.3,248.7 1067.8,217.7 1072.2,161.2 			"/>
			<polygon class="st55" points="1121.9,157.6 1149,160.7 1176.1,163.7 1178.5,221.7 1180.9,253.8 1183.3,285.8 1118.5,283.8 
				1053.6,281.9 1057.7,250.8 1061.8,219.7 1065.9,162.8 			"/>
			<polygon class="st56" points="1115.9,159.3 1143.4,162.1 1170.9,164.9 1173.1,223.2 1175.3,255.2 1177.5,287.1 1112.8,285.4 
				1048.2,283.6 1052,252.5 1055.7,221.4 1059.4,164 			"/>
			<polygon class="st57" points="1109.7,160.6 1137.6,163.1 1165.4,165.6 1167.4,224.3 1169.3,256.2 1171.3,288.1 1106.9,286.5 
				1042.6,284.9 1045.9,253.8 1049.3,222.7 1052.6,164.8 			"/>
			<polygon class="st58" points="1103.2,161.5 1131.5,163.7 1159.7,165.9 1161.4,225 1163.2,256.8 1164.9,288.6 1100.8,287.2 
				1036.6,285.7 1039.6,254.7 1042.6,223.6 1045.6,165.2 			"/>
			<polygon class="st59" points="1096.5,161.8 1125,163.8 1153.6,165.7 1155.1,225.3 1156.7,257 1158.2,288.7 1094.3,287.4 
				1030.4,286.2 1033,255.1 1035.6,224 1038.3,165.1 			"/>
			<polygon class="st60" points="1089.4,161.8 1118.3,163.4 1147.3,165.1 1148.6,225 1149.9,256.6 1151.2,288.2 1087.5,287.2 
				1023.9,286.1 1026.1,255 1028.4,223.9 1030.6,164.6 			"/>
			<polygon class="st61" points="1082,161.2 1111.3,162.6 1140.6,163.9 1141.7,224.2 1142.8,255.8 1143.9,287.3 1080.5,286.4 
				1017,285.5 1018.9,254.4 1020.8,223.3 1022.6,163.5 			"/>
			<polygon class="st62" points="1074.3,160 1103.9,161.1 1133.6,162.2 1134.4,222.9 1135.3,254.4 1136.2,285.8 1073,285.1 
				1009.9,284.4 1011.3,253.3 1012.8,222.2 1014.3,161.9 			"/>
			<polygon class="st63" points="1066.2,158.3 1096.2,159.2 1126.2,160 1126.8,221 1127.5,252.4 1128.2,283.8 1065.2,283.2 
				1002.3,282.7 1003.4,251.6 1004.5,220.5 1005.7,159.7 			"/>
			<polygon class="st64" points="1057.7,156 1088.1,156.6 1118.4,157.1 1118.9,218.6 1119.3,249.8 1119.8,281.1 1057.1,280.8 
				994.4,280.4 995.1,249.3 995.9,218.2 996.6,156.9 			"/>
			<polygon class="st65" points="1048.8,153.1 1079.6,153.4 1110.3,153.6 1110.5,215.5 1110.7,246.7 1111,277.8 1048.5,277.7 
				986.1,277.5 986.4,246.4 986.8,215.3 987.2,153.6 			"/>
			<polygon class="st66" points="977.3,273.9 1039.5,273.9 1101.8,273.9 1101.8,242.8 1101.8,211.7 1101.8,149.5 1070.6,149.5 
				1039.5,149.5 977.3,149.5 977.3,211.7 977.3,242.8 			"/>
			<polygon class="st65" points="971.9,270 1011,271.6 1053.7,272.4 1097.4,271.6 1097.4,147.4 978.8,146.6 973.4,146.6 			"/>
			<polygon class="st64" points="966.5,266.1 1005.1,269.2 1048.6,270.9 1093.1,269.2 1093.1,145.2 974.9,143.5 969.5,143.6 			"/>
			<polygon class="st63" points="961.1,262.1 999.2,266.8 1043.6,269.4 1088.9,266.8 1088.9,143 971.1,140.5 965.6,140.6 			"/>
			<polygon class="st62" points="955.9,258.1 993.4,264.4 1038.6,267.8 1084.8,264.3 1084.8,140.8 967.3,137.4 961.9,137.6 			"/>
			<polygon class="st61" points="950.8,254 987.8,261.9 1033.8,266.1 1080.8,261.8 1080.8,138.5 963.6,134.3 958.2,134.5 			"/>
			<polygon class="st60" points="945.7,249.9 982.1,259.5 1029,264.5 1076.8,259.3 1076.8,136.2 960,131.2 954.7,131.4 			"/>
			<polygon class="st59" points="940.7,245.8 976.6,257 1024.2,262.8 1072.9,256.8 1072.9,133.9 956.5,128.1 951.1,128.3 			"/>
			<polygon class="st58" points="935.7,241.7 971.1,254.4 1019.6,261.1 1069.1,254.3 1069.1,131.6 953,124.9 947.7,125.2 			"/>
			<polygon class="st57" points="930.8,237.6 965.7,251.9 1015,259.5 1065.4,251.7 1065.4,129.2 949.6,121.7 944.3,122.1 			"/>
			<polygon class="st56" points="926,233.5 960.4,249.4 1010.5,257.8 1061.7,249.2 1061.7,126.9 946.3,118.6 941,118.9 			"/>
			<polygon class="st55" points="921.2,229.3 955.1,246.8 1006,256 1058,246.6 1058,124.5 943,115.4 937.7,115.8 			"/>
			<polygon class="st54" points="916.5,225.2 949.8,244.3 1001.6,254.3 1054.5,244 1054.5,122.2 939.8,112.2 934.5,112.6 			"/>
			<polygon class="st53" points="911.9,221.1 944.6,241.7 997.2,252.6 1051,241.5 1051,119.8 936.6,109 931.4,109.5 			"/>
			<polygon class="st52" points="907.3,216.9 939.5,239.2 992.9,250.9 1047.5,238.9 1047.5,117.5 933.5,105.8 928.3,106.4 			"/>
			<polygon class="st51" points="902.8,212.8 934.4,236.6 988.6,249.2 1044.1,236.4 1044.1,115.2 930.4,102.6 925.2,103.2 			"/>
			<polygon class="st50" points="898.2,208.7 929.4,234.1 984.4,247.6 1040.7,233.8 1040.7,112.9 927.4,99.5 922.2,100.1 			"/>
			<polygon class="st49" points="893.8,204.6 924.4,231.6 980.3,245.9 1037.3,231.3 1037.3,110.6 924.4,96.4 919.3,97 			"/>
			<polygon class="st48" points="889.4,200.6 919.5,229.2 976.1,244.3 1034.1,228.8 1034.1,108.3 921.5,93.2 916.4,94 			"/>
			<polygon class="st47" points="885,196.5 914.6,226.7 972,242.7 1030.8,226.3 1030.8,106 918.6,90.2 913.5,90.9 			"/>
			<polygon class="st46" points="880.6,192.5 909.7,224.3 968,241.1 1027.6,223.9 1027.6,103.8 915.7,87.1 910.6,87.9 			"/>
			<polygon class="st45" points="876.3,188.6 904.8,221.9 963.9,239.5 1024.4,221.5 1024.4,101.6 912.9,84.1 907.8,84.9 			"/>
			<polygon class="st44" points="872,184.6 900,219.6 959.9,238 1021.2,219.1 1021.2,99.5 910.1,81.1 905,82 			"/>
			<polygon class="st43" points="867.8,180.7 895.2,217.3 956,236.6 1018.1,216.8 1018.1,97.4 907.3,78.1 902.3,79 			"/>
			<polygon class="st42" points="863.5,176.9 890.4,215 952,235.1 1015,214.5 1015,95.3 904.6,75.2 899.5,76.2 			"/>
			<polygon class="st41" points="859.3,173.1 885.7,212.8 948.1,233.8 1011.9,212.3 1011.9,93.3 901.8,72.4 896.8,73.4 			"/>
			<polygon class="st40" points="855.1,169.3 881,210.6 944.2,232.5 1008.8,210.1 1008.8,91.3 899.1,69.6 894.1,70.6 			"/>
			<polygon class="st39" points="850.9,165.7 876.2,208.5 940.3,231.2 1005.7,208 1005.7,89.4 896.4,66.9 891.4,67.9 			"/>
			<polygon class="st38" points="846.8,162 871.5,206.5 936.4,230 1002.7,205.9 1002.7,87.6 893.7,64.2 888.7,65.3 			"/>
			<polygon class="st37" points="842.6,158.5 866.8,204.5 932.5,228.9 999.7,204 999.7,85.8 891,61.6 886.1,62.7 			"/>
			<polygon class="st36" points="838.4,155 862.2,202.6 928.6,227.8 996.6,202 996.6,84.1 888.4,59 883.4,60.2 			"/>
			<polygon class="st35" points="834.3,151.5 857.5,200.8 924.8,226.8 993.6,200.2 993.6,82.4 885.7,56.5 880.8,57.8 			"/>
			<polygon class="st34" points="830.1,148.2 852.8,199 920.9,225.9 990.6,198.4 990.6,80.9 883,54.1 878.1,55.4 			"/>
			<polygon class="st33" points="826,144.9 848.1,197.3 917,225 987.5,196.7 987.5,79.4 880.3,51.8 875.5,53.1 			"/>
			<polygon class="st32" points="821.8,141.7 843.4,195.7 913.2,224.3 984.5,195.1 984.5,78 877.7,49.6 872.8,50.9 			"/>
			<polygon class="st31" points="817.6,138.6 838.7,194.2 909.3,223.6 981.5,193.5 981.5,76.7 875,47.4 870.1,48.8 			"/>
			<polygon class="st30" points="813.5,135.6 834,192.8 905.4,223 978.4,192.1 978.4,75.4 872.3,45.4 867.4,46.8 			"/>
			<polygon class="st29" points="809.3,132.7 829.3,191.5 901.5,222.5 975.3,190.8 975.3,74.3 869.6,43.4 864.8,44.9 			"/>
			<polygon class="st28" points="805.1,129.9 824.5,190.3 897.6,222.2 972.3,189.5 972.3,73.3 866.8,41.6 862,43 			"/>
			<polygon class="st27" points="800.8,127.2 819.8,189.1 893.6,221.9 969.2,188.4 969.2,72.4 864.1,39.8 859.3,41.3 			"/>
			<polygon class="st26" points="796.6,124.6 815,188.1 889.7,221.7 966,187.4 966,71.5 861.3,38.1 856.6,39.7 			"/>
			<polygon class="st25" points="792.3,122.1 810.2,187.2 885.7,221.6 962.9,186.4 962.9,70.8 858.5,36.6 853.8,38.2 			"/>
			<polygon class="st24" points="788,119.7 805.4,186.4 881.7,221.7 959.7,185.6 959.7,70.2 855.7,35.2 851,36.8 			"/>
			<polygon class="st23" points="783.7,117.5 800.5,185.8 877.6,221.9 956.5,184.9 956.5,69.8 852.9,33.9 848.2,35.6 			"/>
			<polygon class="st22" points="779.3,115.3 795.6,185.2 873.6,222.2 953.3,184.4 953.3,69.4 850,32.7 845.3,34.4 			"/>
			<polygon class="st21" points="774.9,113.3 790.7,184.8 869.4,222.6 950,183.9 950,69.2 847.1,31.6 842.4,33.4 			"/>
			<polygon class="st20" points="770.5,111.5 785.7,184.5 865.3,223.1 946.7,183.6 946.7,69.1 844.1,30.7 839.5,32.5 			"/>
			<polygon class="st19" points="766,109.7 780.7,184.3 861.1,223.8 943.4,183.4 943.4,69.1 841.1,29.9 836.5,31.7 			"/>
			<polygon class="st18" points="761.5,108.1 775.6,184.3 856.9,224.6 940,183.4 940,69.3 838.1,29.2 833.5,31.1 			"/>
			<polygon class="st17" points="756.9,106.6 770.6,184.4 852.6,225.6 936.5,183.5 936.5,69.6 835,28.7 830.4,30.6 			"/>
			<polygon class="st16" points="752.3,105.3 765.4,184.7 848.3,226.7 933,183.7 933,70.1 831.9,28.3 827.3,30.3 			"/>
			<polygon class="st15" points="747.6,104.1 760.2,185.1 843.9,227.9 929.5,184.1 929.5,70.7 828.7,28.1 824.1,30.1 			"/>
			<polygon class="st14" points="742.9,103.1 754.9,185.7 839.4,229.4 925.9,184.7 925.9,71.5 825.4,28.1 820.9,30.1 			"/>
			<polygon class="st13" points="738.1,102.3 749.6,186.4 834.9,230.9 922.2,185.4 922.2,72.4 822.1,28.1 817.6,30.2 			"/>
			<polygon class="st12" points="733.3,101.6 744.3,187.3 830.4,232.6 918.5,186.3 918.5,73.5 818.8,28.4 814.3,30.5 			"/>
			<polygon class="st11" points="728.4,101 738.8,188.4 825.8,234.5 914.7,187.3 914.7,74.7 815.4,28.8 810.8,31 			"/>
			<polygon class="st10" points="723.4,100.7 733.3,189.6 821.1,236.6 910.9,188.5 910.9,76.1 811.9,29.4 807.4,31.6 			"/>
			<polygon class="st9" points="718.3,100.5 727.7,191 816.3,238.8 907,189.9 907,77.7 808.3,30.1 803.8,32.4 			"/>
			<polygon class="st8" points="713.2,100.4 722.1,192.5 811.5,241.2 903,191.4 903,79.5 804.7,31.1 800.2,33.3 			"/>
			<polygon class="st7" points="708,100.6 716.4,194.3 806.6,243.8 898.9,193.1 898.9,81.4 801,32.2 796.5,34.5 			"/>
			<polygon class="st6" points="702.8,100.9 710.6,196.2 801.6,246.6 894.8,195.1 894.8,83.6 797.2,33.5 792.8,35.8 			"/>
			<polygon class="st5" points="697.4,101.5 704.7,198.3 796.6,249.5 890.5,197.2 890.5,85.9 793.3,34.9 788.9,37.3 			"/>
			<polygon class="st4" points="692,102.2 698.7,200.6 791.4,252.7 886.2,199.4 886.2,88.4 789.4,36.6 785,39 			"/>
			<polygon class="st3" points="686.5,103.1 692.7,203.2 786.2,256 881.8,201.9 881.8,91.1 785.3,38.5 781,40.9 			"/>
			<polygon class="st2" points="680.9,104.2 686.5,205.9 780.9,259.6 877.4,204.6 877.4,94 781.2,40.5 776.9,43 			"/>
			<polygon class="st1" points="675.2,105.5 680.3,208.8 775.5,263.3 872.8,207.5 872.8,97.1 777,42.8 772.7,45.4 			"/>
			<polygon class="st0" points="669.4,107.1 674,211.9 770,267.3 868.1,210.6 868.1,100.4 772.7,45.3 			"/>
			<path class="st0" d="M667.1,111.3c0-0.1,4.5,103,4.5,102.8c0-0.1,94.4,54.3,94.3,54.2c-0.1-0.1,96.5-56,96.4-56.1
				c-0.1-0.1-0.2-108.7-0.4-108.7c-0.1,0-94.3-54.3-94.4-54.3c-0.7,0-35.2,20.9-35.2,21.6c0,0.7-33.3,21.6-32.6,21.6
				C700.4,92.3,667.1,112,667.1,111.3z"/>
			<path class="st0" d="M664.6,115.5c0-0.3,4.4,101.1,4.4,100.9c-0.1-0.3,92.9,53.2,92.7,53c-0.2-0.2,94.8-55.4,94.6-55.6
				c-0.2-0.2-0.5-107.2-0.7-107.2c-0.2-0.1-93.1-53.6-93.3-53.6c-1.4,0-36,21.1-36,22.5c0,1.4-32.2,22.5-30.8,22.5
				C696.8,98.1,664.6,116.9,664.6,115.5z"/>
			<path class="st0" d="M661.9,119.6c0-0.4,4.3,99.3,4.2,98.9c-0.1-0.4,91.3,52.1,91.1,51.8c-0.2-0.3,93.2-54.7,92.8-55
				c-0.3-0.2-0.7-105.6-1.1-105.8c-0.4-0.1-91.9-52.8-92.3-52.8c-2.1,0-36.7,21.4-36.7,23.5s-31.1,23.5-29,23.5
				S661.9,121.7,661.9,119.6z"/>
			<path class="st0" d="M659,123.7c0-0.5,4.2,97.4,4.1,96.9c-0.2-0.5,89.7,51,89.4,50.6c-0.3-0.5,91.5-54.1,91.1-54.4
				c-0.4-0.3-0.9-104.1-1.4-104.3c-0.5-0.2-90.7-52-91.2-52c-2.8,0-37.5,21.6-37.5,24.5s-30.1,24.5-27.2,24.5
				C689.1,109.5,659,126.5,659,123.7z"/>
			<path class="st0" d="M656,127.7c0-0.7,4.2,95.6,4,95c-0.2-0.7,88.2,49.9,87.8,49.4c-0.4-0.6,89.8-53.4,89.3-53.9
				c-0.5-0.4-1.1-102.6-1.8-102.8c-0.6-0.2-89.5-51.2-90.2-51.2c-3.5,0-38.2,21.9-38.2,25.4c0,3.5-29,25.4-25.4,25.4
				S656,131.2,656,127.7z"/>
			<path class="st0" d="M652.8,131.6c0-0.8,4.1,93.7,3.8,93c-0.2-0.8,86.6,48.9,86.2,48.2c-0.5-0.7,88.2-52.8,87.5-53.3
				c-0.6-0.5-1.4-101-2.1-101.3c-0.7-0.2-88.3-50.5-89.2-50.5c-4.2,0-39,22.2-39,26.4c0,4.2-27.9,26.4-23.6,26.4
				S652.8,135.9,652.8,131.6z"/>
			<path class="st0" d="M649.5,135.5c0-0.9,4,91.9,3.7,91c-0.3-0.9,85.1,47.8,84.5,47c-0.6-0.8,86.5-52.2,85.7-52.7
				c-0.8-0.6-1.6-99.5-2.5-99.8c-0.9-0.3-87.1-49.7-88.1-49.7c-4.9,0-39.7,22.4-39.7,27.4s-26.8,27.4-21.8,27.4
				C676.3,126.1,649.5,140.4,649.5,135.5z"/>
			<path class="st0" d="M646.1,139.3c0-1.1,3.9,90,3.6,89.1c-0.3-1,83.5,46.7,82.9,45.8c-0.6-0.9,84.8-51.5,84-52.2
				c-0.9-0.6-1.8-98-2.9-98.3c-1-0.3-85.9-48.9-87.1-48.9c-5.7,0-40.5,22.7-40.5,28.3s-25.7,28.3-20,28.3
				C671.7,131.4,646.1,145,646.1,139.3z"/>
			<path class="st0" d="M642.5,143c0-1.2,3.8,88.2,3.5,87.1c-0.4-1.2,82,45.6,81.3,44.6c-0.7-1,83.2-50.9,82.2-51.6
				c-1-0.7-2.1-96.5-3.2-96.8c-1.1-0.4-84.8-48.2-86-48.2c-6.4,0-41.3,22.9-41.3,29.3c0,6.4-24.6,29.3-18.2,29.3
				S642.5,149.4,642.5,143z"/>
			<path class="st0" d="M638.7,146.7c0-1.3,3.7,86.3,3.3,85.1c-0.4-1.3,80.4,44.5,79.6,43.4c-0.8-1.1,81.5-50.2,80.4-51
				c-1.1-0.8-2.3-94.9-3.6-95.3c-1.2-0.4-83.6-47.4-85-47.4c-7.1,0-42,23.2-42,30.3S648.1,142,655.2,142S638.7,153.8,638.7,146.7z"
				/>
			<path class="st0" d="M634.9,150.3c0-1.4,3.6,84.5,3.2,83.2c-0.4-1.4,78.9,43.4,78,42.2c-0.9-1.2,79.9-49.6,78.6-50.5
				c-1.2-0.9-2.5-93.4-3.9-93.9c-1.4-0.4-82.4-46.6-83.9-46.6c-7.8,0-42.8,23.5-42.8,31.2s-22.4,31.2-14.6,31.2
				C657.3,147.2,634.9,158.1,634.9,150.3z"/>
			<path class="st0" d="M630.9,153.8c0-1.6,3.5,82.6,3.1,81.2c-0.5-1.6,77.3,42.3,76.4,41c-1-1.4,78.2-48.9,76.8-49.9
				c-1.3-0.9-2.7-91.9-4.3-92.4c-1.5-0.5-81.2-45.8-82.9-45.8c-8.5,0-43.5,23.7-43.5,32.2s-21.3,32.2-12.8,32.2
				S630.9,162.3,630.9,153.8z"/>
			<path class="st0" d="M626.8,157.2c0-1.7,3.4,80.8,3,79.2c-0.5-1.7,75.7,41.2,74.7,39.8c-1-1.5,76.5-48.3,75.1-49.3
				c-1.4-1-3-90.3-4.6-90.9c-1.6-0.5-80-45.1-81.8-45.1c-9.2,0-44.3,24-44.3,33.2s-20.2,33.2-11,33.2
				C647,157.3,626.8,166.4,626.8,157.2z"/>
			<path class="st0" d="M622.6,160.6c0-1.8,3.3,79,2.8,77.3c-0.6-1.8,74.2,40.1,73.1,38.6c-1.1-1.6,74.9-47.6,73.3-48.8
				c-1.5-1.1-3.2-88.8-5-89.4c-1.7-0.6-78.8-44.3-80.8-44.3c-9.9,0-45,24.2-45,34.1s-19.1,34.1-9.2,34.1S622.6,170.5,622.6,160.6z"
				/>
			<path class="st0" d="M618.4,163.9c0-2,3.3,77.1,2.7,75.3c-0.6-2,72.6,39,71.5,37.4c-1.2-1.7,73.2-47,71.5-48.2
				c-1.6-1.2-3.4-87.3-5.4-87.9c-1.9-0.6-77.6-43.5-79.7-43.5c-10.6,0-45.8,24.5-45.8,35.1c0,10.6-18,35.1-7.4,35.1
				C636.4,167.1,618.4,174.5,618.4,163.9z"/>
			<path class="st0" d="M614,167c0-2.1,3.2,75.3,2.6,73.3c-0.6-2.1,71.1,37.9,69.8,36.2c-1.3-1.8,71.5-46.3,69.7-47.6
				c-1.7-1.3-3.6-85.7-5.7-86.4c-2-0.7-76.4-42.8-78.7-42.8c-11.3,0-46.6,24.8-46.6,36.1c0,11.3-16.9,36.1-5.6,36.1
				C630.9,171.9,614,178.3,614,167z"/>
			<path class="st0" d="M609.9,170.1c0-2.2,3.1,73.4,2.5,71.4c-0.7-2.2,69.5,36.8,68.2,35c-1.4-1.9,69.9-45.7,68-47.1
				c-1.8-1.3-3.9-84.2-6.1-84.9c-2.1-0.7-75.3-42-77.6-42c-12,0-47.3,25-47.3,37s-15.8,37-3.8,37S609.9,182.2,609.9,170.1z"/>
			<path class="st0" d="M606.6,173.2c0-2.4,3,71.6,2.3,69.4c-0.7-2.4,68,35.7,66.6,33.8c-1.4-2,68.2-45,66.2-46.5
				c-1.9-1.4-4.1-82.7-6.4-83.4c-2.2-0.7-74.1-41.2-76.6-41.2c-12.7,0-48.1,25.3-48.1,38c0,12.7-14.7,38-2,38
				S606.6,185.9,606.6,173.2z"/>
			<path class="st0" d="M603.3,176.1c0-2.5,2.9,69.7,2.2,67.4c-0.8-2.5,66.4,34.7,64.9,32.6c-1.5-2.1,66.5-44.4,64.4-45.9
				c-2-1.5-4.3-81.2-6.8-82c-2.4-0.8-72.9-40.4-75.5-40.4c-13.4,0-48.8,25.6-48.8,39c0,13.4-13.6,39-0.2,39
				C616.9,185.7,603.3,189.5,603.3,176.1z"/>
			<path class="st0" d="M599.9,178.9c0-2.6,2.8,67.9,2.1,65.5c-0.8-2.6,64.9,33.6,63.3,31.4c-1.6-2.3,64.9-43.7,62.6-45.4
				c-2.2-1.6-4.6-79.6-7.1-80.5c-2.5-0.8-71.7-39.7-74.5-39.7c-14.1,0-49.6,25.8-49.6,39.9s-12.5,39.9,1.6,39.9
				S599.9,193,599.9,178.9z"/>
			<path class="st0" d="M596.6,181.6c0-2.8,2.7,66,1.9,63.5c-0.8-2.7,63.3,32.5,61.7,30.2c-1.7-2.4,63.2-43.1,60.9-44.8
				c-2.3-1.7-4.8-78.1-7.5-79c-2.6-0.9-70.5-38.9-73.4-38.9c-14.8,0-50.4,26.1-50.4,40.9c0,14.8-11.4,40.9,3.4,40.9
				S596.6,196.5,596.6,181.6z"/>
			<path class="st0" d="M593.2,184.3c0-2.9,2.6,64.2,1.8,61.5c-0.9-2.9,61.7,31.4,60,29c-1.8-2.5,61.5-42.5,59.1-44.3
				c-2.4-1.7-5-76.6-7.9-77.5c-2.7-0.9-69.3-38.1-72.4-38.1c-15.5,0-51.1,26.3-51.1,41.9s-10.3,41.9,5.2,41.9
				C603.5,198.7,593.2,199.8,593.2,184.3z"/>
			<path class="st0" d="M589.8,186.8c0-3,2.5,62.3,1.7,59.6c-0.9-3,60.2,30.3,58.4,27.8c-1.8-2.6,59.9-41.8,57.3-43.7
				c-2.5-1.8-5.2-75-8.2-76c-2.9-0.9-68.1-37.3-71.3-37.3c-16.3,0-51.9,26.6-51.9,42.9s-9.3,42.8,7,42.8S589.8,203.1,589.8,186.8z"
				/>
			<path class="st0" d="M586.4,189.3c0-3.2,2.5,60.5,1.6,57.6c-1-3.1,58.6,29.2,56.8,26.6c-1.9-2.7,58.2-41.2,55.5-43.1
				c-2.6-1.9-5.5-73.5-8.6-74.5c-3-1-66.9-36.6-70.3-36.6c-17,0-52.6,26.9-52.6,43.8s-8.2,43.8,8.8,43.8
				C594.6,206.9,586.4,206.2,586.4,189.3z"/>
			<path class="st0" d="M583.1,191.6c0-3.3,2.4,58.6,1.4,55.6c-1-3.3,57.1,28.1,55.1,25.4c-2-2.8,56.5-40.5,53.7-42.6
				c-2.7-2-5.7-72-8.9-73c-3.1-1-65.8-35.8-69.2-35.8c-17.7,0-53.4,27.1-53.4,44.8s-7.1,44.8,10.6,44.8
				C590.1,210.8,583.1,209.3,583.1,191.6z"/>
			<path class="st0" d="M579.7,193.8c0-3.4,2.3,56.8,1.3,53.7c-1.1-3.4,55.5,27,53.5,24.2c-2.1-2.9,54.9-39.9,52-42
				c-2.8-2-5.9-70.5-9.3-71.6c-3.2-1.1-64.6-35-68.2-35c-18.4,0-54.1,27.4-54.1,45.8s-6,45.8,12.4,45.8
				C585.7,214.6,579.7,212.2,579.7,193.8z"/>
			<path class="st0" d="M576.5,196c0-3.6,2.2,54.9,1.2,51.7c-1.1-3.5,54,25.9,51.9,23c-2.2-3,53.2-39.2,50.2-41.4
				c-2.9-2.1-6.2-68.9-9.6-70.1c-3.4-1.1-63.4-34.3-67.1-34.3c-19.1,0-54.9,27.6-54.9,46.7s-4.9,46.7,14.2,46.7
				C581.3,218.3,576.5,215,576.5,196z"/>
			<path class="st0" d="M573.2,198c0-3.7,2.1,53.1,1.1,49.8c-1.1-3.7,52.4,24.8,50.2,21.8c-2.2-3.2,51.5-38.6,48.4-40.9
				c-3-2.2-6.4-67.4-10-68.6c-3.5-1.1-62.2-33.5-66.1-33.5c-19.8,0-55.7,27.9-55.7,47.7s-3.8,47.7,16,47.7
				C577,222,573.2,217.8,573.2,198z"/>
			<path class="st0" d="M570,199.9c0-3.8,2,51.3,0.9,47.8c-1.2-3.8,50.9,23.7,48.6,20.6c-2.3-3.3,49.9-37.9,46.6-40.3
				c-3.1-2.3-6.6-65.9-10.4-67.1c-3.6-1.2-61-32.7-65-32.7c-20.5,0-56.4,28.2-56.4,48.7s-2.7,48.7,17.8,48.7
				C572.7,225.5,570,220.4,570,199.9z"/>
			<path class="st0" d="M566.8,201.7c0-4,1.9,49.4,0.8,45.8c-1.2-3.9,49.3,22.6,47,19.4c-2.4-3.4,48.2-37.3,44.9-39.7
				c-3.2-2.4-6.8-64.3-10.7-65.6c-3.7-1.2-59.8-31.9-64-31.9c-21.2,0-57.2,28.4-57.2,49.6s-1.6,49.6,19.6,49.6
				S566.8,222.9,566.8,201.7z"/>
			<path class="st0" d="M563.7,203.4c0-4.1,1.8,47.6,0.7,43.9c-1.3-4.1,47.8,21.5,45.3,18.2c-2.5-3.5,46.5-36.6,43.1-39.2
				c-3.3-2.4-7.1-62.8-11.1-64.1c-3.9-1.3-58.6-31.2-62.9-31.2c-21.9,0-57.9,28.7-57.9,50.6s-0.5,50.6,21.4,50.6
				C564.2,232.1,563.7,225.3,563.7,203.4z"/>
			<path class="st0" d="M560.6,204.9c0-4.2,1.7,45.7,0.6,41.9c-1.3-4.2,46.2,20.5,43.7,17c-2.6-3.6,44.9-36,41.3-38.6
				c-3.4-2.5-7.3-61.3-11.4-62.6c-4-1.3-57.4-30.4-61.9-30.4c-22.6,0-58.7,28.9-58.7,51.6s0.6,51.6,23.2,51.6
				C560,235.3,560.6,227.6,560.6,204.9z"/>
			<path class="st0" d="M557.6,206.4c0-4.3,1.6,43.9,0.4,39.9c-1.3-4.3,44.6,19.4,42.1,15.8c-2.6-3.7,43.2-35.3,39.5-38
				c-3.6-2.6-7.5-59.8-11.8-61.1c-4.1-1.3-56.2-29.6-60.8-29.6c-23.3,0-59.4,29.2-59.4,52.5s1.7,52.5,25,52.5
				C555.9,238.3,557.6,229.7,557.6,206.4z"/>
			<path class="st0" d="M554.5,207.7c0-4.5,1.6,42,0.3,38c-1.4-4.4,43.1,18.3,40.4,14.6c-2.7-3.8,41.5-34.7,37.7-37.5
				c-3.7-2.7-7.7-58.2-12.1-59.7c-4.2-1.4-55.1-28.9-59.8-28.9c-24,0-60.2,29.5-60.2,53.5s2.8,53.5,26.8,53.5
				C551.8,241.2,554.5,231.7,554.5,207.7z"/>
			<path class="st0" d="M551.5,208.9c0-4.6,1.5,40.2,0.2,36c-1.4-4.6,41.5,17.2,38.8,13.4c-2.8-3.9,39.9-34,36-36.9
				c-3.8-2.8-8-56.7-12.5-58.2c-4.4-1.4-53.9-28.1-58.7-28.1c-24.7,0-61,29.7-61,54.5s3.9,54.5,28.6,54.5
				C547.7,244,551.5,233.6,551.5,208.9z"/>
			<path class="st0" d="M548.6,210c0-4.7,1.4,38.3,0,34c-1.5-4.7,40,16.1,37.2,12.2c-2.9-4.1,38.2-33.4,34.2-36.3
				c-3.9-2.8-8.2-55.2-12.9-56.7c-4.5-1.5-52.7-27.3-57.7-27.3c-25.4,0-61.7,30-61.7,55.4s5,55.4,30.4,55.4
				C543.6,246.7,548.6,235.4,548.6,210z"/>
			<path class="st0" d="M545.7,210.9c0-4.9,1.3,36.5-0.1,32.1c-1.5-4.8,38.4,15,35.6,11c-3-4.2,36.5-32.8,32.4-35.8
				c-4-2.9-8.4-53.6-13.2-55.2c-4.6-1.5-51.5-26.5-56.6-26.5c-26.1,0-62.5,30.2-62.5,56.4s6.1,56.4,32.2,56.4
				C539.6,249.2,545.7,237.1,545.7,210.9z"/>
			<path class="st0" d="M542.9,211.8c0-5,1.2,34.6-0.2,30.1c-1.5-5,36.9,13.9,33.9,9.8c-3-4.3,34.9-32.1,30.6-35.2
				c-4.1-3-8.7-52.1-13.6-53.7c-4.7-1.5-50.3-25.8-55.6-25.8c-26.9,0-63.2,30.5-63.2,57.4s7.2,57.4,34,57.4S542.9,238.6,542.9,211.8
				z"/>
			<path class="st0" d="M540.1,210.4c0-5.1,1.1,32.8-0.3,28.1c-1.6-5.1,35.3,12.8,32.3,8.6c-3.1-4.4,33.2-31.5,28.9-34.6
				c-4.2-3.1-8.9-50.6-13.9-52.2c-4.9-1.6-49.1-25-54.5-25c-27.6,0-64,30.8-64,58.3s8.3,58.3,35.8,58.3S540.1,237.9,540.1,210.4z"/>
			<path class="st0" d="M537.4,208.6c0-5.3,1,30.9-0.5,26.2c-1.6-5.2,33.8,11.7,30.7,7.4c-3.2-4.5,31.5-30.8,27.1-34.1
				c-4.3-3.1-9.1-49-14.3-50.7c-5-1.6-47.9-24.2-53.5-24.2c-28.3,0-64.8,31-64.8,59.3s9.4,59.3,37.6,59.3S537.4,236.9,537.4,208.6z"
				/>
			<path class="st0" d="M534.7,206.7c0-5.4,0.9,29.1-0.6,24.2c-1.7-5.4,32.2,10.6,29,6.2c-3.3-4.6,29.9-30.2,25.3-33.5
				c-4.4-3.2-9.3-47.5-14.6-49.2c-5.1-1.7-46.7-23.4-52.4-23.4c-29,0-65.5,31.3-65.5,60.3s10.4,60.3,39.4,60.3
				C524.3,251.3,534.7,235.6,534.7,206.7z"/>
			<path class="st0" d="M532.2,204.6c0-5.5,0.8,27.2-0.7,22.2c-1.7-5.5,30.6,9.5,27.4,5c-3.4-4.7,28.2-29.5,23.5-32.9
				c-4.5-3.3-9.6-46-15-47.8c-5.2-1.7-45.6-22.7-51.4-22.7c-29.7,0-66.3,31.6-66.3,61.2s11.5,61.2,41.2,61.2
				C520.7,250.9,532.2,234.3,532.2,204.6z"/>
			<path class="st0" d="M529.8,202.4c0-5.7,0.7,25.4-0.8,20.3c-1.7-5.6,29.1,8.4,25.8,3.7c-3.4-4.9,26.6-28.9,21.7-32.4
				c-4.6-3.4-9.8-44.5-15.4-46.3c-5.4-1.8-44.4-21.9-50.3-21.9c-30.4,0-67,31.8-67,62.2s12.6,62.2,43,62.2S529.8,232.8,529.8,202.4z
				"/>
			<path class="st0" d="M527.4,200.1c0-5.8,0.7,23.6-1,18.3c-1.8-5.8,27.5,7.4,24.1,2.5c-3.5-5,24.9-28.2,20-31.8
				c-4.7-3.5-10-42.9-15.7-44.8c-5.5-1.8-43.2-21.1-49.3-21.1c-31.1,0-67.8,32.1-67.8,63.2s13.7,63.2,44.8,63.2
				S527.4,231.2,527.4,200.1z"/>
			<path class="st0" d="M525.1,197.6c0-5.9,0.6,21.7-1.1,16.3c-1.8-5.9,26,6.3,22.5,1.3c-3.6-5.1,23.2-27.6,18.2-31.3
				c-4.8-3.5-10.3-41.4-16.1-43.3c-5.6-1.8-42-20.4-48.2-20.4c-31.8,0-68.5,32.3-68.5,64.1s14.8,64.1,46.6,64.1
				S525.1,229.4,525.1,197.6z"/>
			<path class="st0" d="M523,195c0-6.1,0.5,19.9-1.2,14.4c-1.9-6,24.4,5.2,20.9,0.1c-3.7-5.2,21.6-26.9,16.4-30.7
				c-4.9-3.6-10.5-39.9-16.4-41.8c-5.7-1.9-40.8-19.6-47.2-19.6c-32.5,0-69.3,32.6-69.3,65.1s15.9,65.1,48.4,65.1S523,227.5,523,195
				z"/>
			<path class="st0" d="M521,192.2c0-6.2,0.4,18-1.3,12.4c-1.9-6.1,22.9,4.1,19.2-1.1c-3.8-5.3,19.9-26.3,14.6-30.1
				c-5.1-3.7-10.7-38.3-16.8-40.3c-5.9-1.9-39.6-18.8-46.1-18.8c-33.2,0-70.1,32.9-70.1,66.1s17,66.1,50.2,66.1S521,225.4,521,192.2
				z"/>
			<path class="st0" d="M519.1,189.3c0-6.3,0.3,16.2-1.5,10.4c-1.9-6.3,21.3,3,17.6-2.3c-3.8-5.4,18.2-25.6,12.9-29.6
				c-5.2-3.8-10.9-36.8-17.1-38.8c-6-2-38.4-18-45.1-18c-33.9,0-70.8,33.1-70.8,67s18.1,67,52,67S519.1,223.2,519.1,189.3z"/>
			<path class="st0" d="M517.3,186.3c0-6.5,0.2,14.3-1.6,8.5c-2-6.4,19.8,1.9,16-3.5c-3.9-5.5,16.6-25,11.1-29
				c-5.3-3.9-11.2-35.3-17.5-37.4c-6.1-2-37.2-17.3-44-17.3c-34.6,0-71.6,33.4-71.6,68s19.2,68,53.8,68S517.3,220.9,517.3,186.3z"/>
			<path class="st0" d="M515.6,183c0-6.6,0.1,12.5-1.7,6.5c-2-6.5,18.2,0.8,14.3-4.7c-4-5.6,14.9-24.3,9.3-28.4
				c-5.4-3.9-11.4-33.8-17.9-35.9c-6.2-2-36.1-16.5-43-16.5c-35.3,0-72.3,33.6-72.3,69s20.3,69,55.6,69S515.6,218.4,515.6,183z"/>
			<path class="st0" d="M514.1,179.7c0-6.7,0,10.6-1.9,4.5c-2.1-6.7,16.6-0.3,12.7-5.9c-4.1-5.8,13.2-23.7,7.5-27.9
				c-5.5-4-11.6-32.2-18.2-34.4c-6.4-2.1-34.9-15.7-41.9-15.7c-36,0-73.1,33.9-73.1,69.9s21.4,69.9,57.4,69.9
				S514.1,215.7,514.1,179.7z"/>
			<path class="st0" d="M512.8,176.2c0-6.8-0.1,8.8-2,2.6c-2.1-6.8,15.1-1.4,11.1-7.1c-4.2-5.9,11.6-23.1,5.8-27.3
				c-5.6-4.1-11.9-30.7-18.6-32.9c-6.5-2.1-33.7-15-40.9-15c-36.7,0-73.8,34.2-73.8,70.9s22.5,70.9,59.2,70.9
				S512.8,212.9,512.8,176.2z"/>
			<path class="st0" d="M511.5,172.5c0-7-0.1,6.9-2.1,0.6c-2.1-6.9,13.5-2.5,9.4-8.3c-4.2-6,9.9-22.4,4-26.7
				c-5.7-4.2-12.1-29.2-18.9-31.4c-6.6-2.2-32.5-14.2-39.8-14.2c-37.5,0-74.6,34.4-74.6,71.9s23.6,71.9,61,71.9
				S511.5,210,511.5,172.5z"/>
			<path class="st0" d="M510.5,168.7c0-7.1-0.2,5.1-2.2-1.4c-2.2-7.1,12-3.6,7.8-9.5c-4.3-6.1,8.2-21.8,2.2-26.2
				c-5.8-4.2-12.3-27.6-19.3-29.9c-6.7-2.2-31.3-13.4-38.8-13.4c-38.2,0-75.4,34.7-75.4,72.8s24.7,72.8,62.8,72.8
				S510.5,206.8,510.5,168.7z"/>
			<path class="st0" d="M509.5,164.7c0-7.2-0.3,3.2-2.4-3.3c-2.2-7.2,10.4-4.7,6.2-10.7c-4.4-6.2,6.6-21.1,0.4-25.6
				c-5.9-4.3-12.5-26.1-19.7-28.4C487.2,94.4,464,84,456.4,84c-38.9,0-76.1,34.9-76.1,73.8s25.8,73.8,64.6,73.8
				S509.5,203.5,509.5,164.7z"/>
			<path class="st0" d="M508.7,160.5c0-7.4-0.4,1.4-2.5-5.3c-2.3-7.3,8.9-5.8,4.5-11.9c-4.5-6.3,4.9-20.5-1.4-25
				c-6-4.4-12.8-24.6-20-26.9c-7-2.3-28.9-11.9-36.7-11.9c-39.6,0-76.9,35.2-76.9,74.8s26.9,74.8,66.4,74.8S508.7,200.1,508.7,160.5
				z"/>
			<path class="st0" d="M507.3,156.2c0-7.5-0.5-0.5-2.6-7.3c-2.3-7.5,7.3-6.8,2.9-13.1c-4.6-6.4,3.2-19.8-3.1-24.5
				c-6.1-4.5-13-23.1-20.4-25.5c-7.1-2.3-27.7-11.1-35.6-11.1c-40.3,0-77.6,35.5-77.6,75.7s28,75.7,68.2,75.7
				S507.3,196.5,507.3,156.2z"/>
			<path class="st0" d="M506,151.7c0-7.6-0.6-2.3-2.7-9.2c-2.3-7.6,5.8-7.9,1.3-14.3c-4.6-6.5,1.6-19.2-4.9-23.9
				c-6.2-4.6-13.2-21.5-20.7-24C471.7,78,452.4,70,444.3,70c-41,0-78.4,35.7-78.4,76.7s29.1,76.7,70,76.7S506,192.7,506,151.7z"/>
			<path class="st0" d="M504.2,147.1c0-7.8-0.7-4.2-2.9-11.2c-2.4-7.7,4.2-9-0.4-15.5c-4.7-6.7-0.1-18.5-6.7-23.3
				c-6.3-4.6-13.4-20-21.1-22.5c-7.4-2.4-25.4-9.5-33.5-9.5c-41.7,0-79.1,36-79.1,77.7s30.1,77.7,71.8,77.7S504.2,188.8,504.2,147.1
				z"/>
			<path class="st0" d="M502.6,142.2c0-7.9-0.8-6-3-13.2c-2.4-7.8,2.6-10.1-2-16.7c-4.8-6.8-1.8-17.9-8.5-22.8
				c-6.5-4.7-13.7-18.5-21.4-21c-7.5-2.4-24.2-8.8-32.5-8.8c-42.4,0-79.9,36.2-79.9,78.6s31.2,78.6,73.6,78.6
				S502.6,184.6,502.6,142.2z"/>
			<path class="st0" d="M501.2,137.2c0-8-0.9-7.8-3.1-15.1c-2.5-8,1.1-11.2-3.6-17.9c-4.9-6.9-3.4-17.2-10.2-22.2
				c-6.6-4.8-13.9-16.9-21.8-19.5c-7.6-2.5-23-8-31.4-8c-43.1,0-80.7,36.5-80.7,79.6s32.3,79.6,75.4,79.6S501.2,180.4,501.2,137.2z"
				/>
			<path class="st0" d="M500.1,132.1c0-8.2-1-9.7-3.2-17.1c-2.5-8.1-0.5-12.3-5.3-19.1c-5-7-5.1-16.6-12-21.6
				c-6.7-4.9-14.1-15.4-22.2-18c-7.7-2.5-21.8-7.2-30.4-7.2c-43.8,0-81.4,36.8-81.4,80.6s33.4,80.6,77.2,80.6
				S500.1,175.9,500.1,132.1z"/>
			<path class="st0" d="M499.1,126.7c0-8.3-1-11.5-3.4-19.1c-2.5-8.2-2-13.4-6.9-20.3c-5-7.1-6.8-15.9-13.8-21.1
				c-6.8-5-14.4-13.9-22.5-16.5c-7.9-2.6-20.6-6.5-29.3-6.5c-44.5,0-82.2,37-82.2,81.6s34.5,81.6,79.1,81.6S499.1,171.3,499.1,126.7
				z"/>
			<path class="st0" d="M498.4,121.2c0-8.4-1.1-13.4-3.5-21c-2.6-8.4-3.6-14.5-8.5-21.5c-5.1-7.2-8.4-15.3-15.6-20.5
				c-6.9-5-14.6-12.4-22.9-15.1c-8-2.6-19.4-5.7-28.3-5.7c-45.2,0-82.9,37.3-82.9,82.5s35.6,82.5,80.9,82.5S498.4,166.4,498.4,121.2
				z"/>
			<path class="st0" d="M498,115.5c0-8.6-1.2-15.2-3.6-23c-2.6-8.5-5.1-15.6-10.2-22.7c-5.2-7.3-10.1-14.6-17.4-20
				c-7-5.1-14.8-10.8-23.2-13.6c-8.1-2.6-18.2-4.9-27.2-4.9c-45.9,0-83.7,37.6-83.7,83.5s36.7,83.5,82.7,83.5S498,161.4,498,115.5z"
				/>
			<circle class="st0" cx="413.3" cy="109.6" r="84.5"/>
			<path class="st0" d="M409.2,186c-45.9,0-81.7-37.2-81.7-83.2s38.7-83.2,84.6-83.2s81.7,39.7,81.7,85.7S455.1,186,409.2,186z"/>
			<path class="st0" d="M404.7,178.6c-45.2,0-79-36.7-79-81.9s39.5-81.9,84.8-81.9s79,41.6,79,86.9S450,178.6,404.7,178.6z"/>
			<path class="st0" d="M400,172c-44.5,0-76.3-36.1-76.3-80.6s40.4-80.6,84.9-80.6s76.3,43.5,76.3,88.1S444.5,172,400,172z"/>
			<path class="st0" d="M395,166.1c-43.8,0-73.6-35.5-73.6-79.3s41.3-79.3,85.1-79.3s73.6,45.5,73.6,89.3S438.8,166.1,395,166.1z"/>
			<path class="st0" d="M389.7,160.8c-43.1,0-70.9-34.9-70.9-78.1S361,4.7,404.1,4.7S475,52.1,475,95.2S432.9,160.8,389.7,160.8z"/>
			<path class="st0" d="M384.2,156.2c-42.4,0-68.2-34.4-68.2-76.8s43-76.8,85.4-76.8s68.2,49.3,68.2,91.7S426.6,156.2,384.2,156.2z"
				/>
			<path class="st0" d="M378.4,152.2c-41.7,0-65.5-33.8-65.5-75.5s43.8-75.5,85.5-75.5S464,52.4,464,94.1S420.1,152.2,378.4,152.2z"
				/>
			<path class="st0" d="M372.4,148.9c-41,0-62.7-33.2-62.7-74.2s44.7-74.2,85.7-74.2c41,0,62.7,53.1,62.7,94.1
				S413.4,148.9,372.4,148.9z"/>
			<path class="st0" d="M366.1,146.1c-40.3,0-60-32.7-60-72.9S351.7,0.2,392,0.2s60,55,60,95.3S406.4,146.1,366.1,146.1z"/>
			<path class="st0" d="M359.7,143.9c-39.6,0-57.3-32.1-57.3-71.7s46.4-71.7,86-71.7s57.3,56.9,57.3,96.5S399.2,143.9,359.7,143.9z"
				/>
			<path class="st0" d="M353,142.3c-38.9,0-54.6-31.5-54.6-70.4s47.3-70.4,86.2-70.4s54.6,58.8,54.6,97.7S391.9,142.3,353,142.3z"/>
			<path class="st0" d="M346.1,141.2c-38.2,0-51.9-30.9-51.9-69.1S342.4,3,380.5,3s51.9,60.7,51.9,98.9S384.3,141.2,346.1,141.2z"/>
			<path class="st0" d="M339,140.5c-37.5,0-49.2-30.4-49.2-67.8s49-67.8,86.5-67.8s49.2,62.7,49.2,100.1S376.5,140.5,339,140.5z"/>
			<path class="st0" d="M331.7,140.3c-36.7,0-46.5-29.8-46.5-66.5s49.9-66.5,86.6-66.5s46.5,64.6,46.5,101.3
				S368.5,140.3,331.7,140.3z"/>
			<path class="st0" d="M324.3,140.3c-36,0-43.7-29.2-43.7-65.3s50.7-65.3,86.8-65.3s43.7,66.5,43.7,102.5S360.4,140.3,324.3,140.3z
				"/>
			<path class="st0" d="M316.7,140.6c-35.3,0-41-28.7-41-64s51.6-64,86.9-64s41,68.4,41,103.7S352.1,140.6,316.7,140.6z"/>
			<path class="st0" d="M309,141.1c-34.6,0-38.3-28.1-38.3-62.7s52.5-62.7,87.1-62.7s38.3,70.3,38.3,104.9S343.6,141.1,309,141.1z"
				/>
			<path class="st0" d="M301.1,141.9c-33.9,0-35.6-27.5-35.6-61.4S318.8,19,352.7,19s35.6,72.2,35.6,106.1S335,141.9,301.1,141.9z"
				/>
			<path class="st0" d="M293.1,142.9c-33.2,0-32.9-26.9-32.9-60.2s54.2-60.2,87.4-60.2s32.9,74.1,32.9,107.3
				S326.3,142.9,293.1,142.9z"/>
			<path class="st0" d="M284.9,144.2c-32.5,0-30.2-26.4-30.2-58.9s55-58.9,87.5-58.9s30.2,76,30.2,108.6S317.4,144.2,284.9,144.2z"
				/>
			<path class="st0" d="M276.7,145.6c-31.8,0-27.5-25.8-27.5-57.6s55.9-57.6,87.7-57.6s27.5,78,27.5,109.8S308.5,145.6,276.7,145.6z
				"/>
			<path class="st0" d="M268.3,147.3c-31.1,0-24.7-25.2-24.7-56.3s56.8-56.3,87.9-56.3s24.7,79.9,24.7,111S299.4,147.3,268.3,147.3z
				"/>
			<path class="st0" d="M259.9,149.2c-30.4,0-22-24.6-22-55s57.6-55,88-55s22,81.8,22,112.2S290.3,149.2,259.9,149.2z"/>
			<path class="st0" d="M251.3,151.3c-29.7,0-19.3-24.1-19.3-53.8s58.5-53.8,88.2-53.8c29.7,0,19.3,83.7,19.3,113.4
				S281,151.3,251.3,151.3z"/>
			<path class="st0" d="M242.7,153.5c-29,0-16.6-23.5-16.6-52.5s59.3-52.5,88.3-52.5c29,0,16.6,85.6,16.6,114.6
				S271.7,153.5,242.7,153.5z"/>
			<path class="st0" d="M234.1,155.9c-28.3,0-13.9-22.9-13.9-51.2s60.2-51.2,88.5-51.2s13.9,87.5,13.9,115.8
				S262.3,155.9,234.1,155.9z"/>
			<path class="st0" d="M225.4,158.5c-27.6,0-11.2-22.4-11.2-49.9s61.1-49.9,88.6-49.9c27.6,0,11.2,89.4,11.2,117
				S252.9,158.5,225.4,158.5z"/>
			<path class="st0" d="M216.6,161.1c-26.9,0-8.5-21.8-8.5-48.6s61.9-48.6,88.8-48.6c26.9,0,8.5,91.3,8.5,118.2
				S243.5,161.1,216.6,161.1z"/>
			<path class="st0" d="M207.8,163.9c-26.1,0-5.7-21.2-5.7-47.4s62.8-47.4,88.9-47.4s5.7,93.2,5.7,119.4S234,163.9,207.8,163.9z"/>
			<path class="st0" d="M199,166.7c-25.4,0-3-20.6-3-46.1s63.7-46.1,89.1-46.1c25.4,0,3,95.2,3,120.6S224.4,166.7,199,166.7z"/>
			<path class="st0" d="M190.2,169.7c-24.7,0-0.3-20.1-0.3-44.8s64.5-44.8,89.3-44.8s0.3,97.1,0.3,121.8S214.9,169.7,190.2,169.7z"
				/>
			<path class="st0" d="M181.4,172.6c-24,0,2.4-19.5,2.4-43.5s65.4-43.5,89.4-43.5s-2.4,99-2.4,123S205.4,172.6,181.4,172.6z"/>
			<path class="st0" d="M172.5,175.6c-23.3,0,5.1-18.9,5.1-42.2s66.2-42.2,89.6-42.2s-5.1,100.9-5.1,124.2S195.9,175.6,172.5,175.6z
				"/>
			<path class="st0" d="M163.7,178.6c-22.6,0,7.8-18.4,7.8-41s67.1-41,89.7-41s-7.8,102.8-7.8,125.4S186.3,178.6,163.7,178.6z"/>
			<path class="st0" d="M155,181.6c-21.9,0,10.5-17.8,10.5-39.7s68-39.7,89.9-39.7S244.8,207,244.8,228.9S176.9,181.6,155,181.6z"/>
			<path class="st0" d="M146.2,184.6c-21.2,0,13.2-17.2,13.2-38.4s68.8-38.4,90-38.4s-13.2,106.6-13.2,127.8
				S167.4,184.6,146.2,184.6z"/>
			<path class="st0" d="M137.5,187.5c-20.5,0,16-16.6,16-37.1s69.7-37.1,90.2-37.1c20.5,0-16,108.5-16,129S158,187.5,137.5,187.5z"
				/>
			<path class="st0" d="M128.9,190.3c-19.8,0,18.7-16.1,18.7-35.9s70.5-35.9,90.3-35.9S219.2,229,219.2,248.8
				S148.7,190.3,128.9,190.3z"/>
			<path class="st0" d="M120.3,193c-19.1,0,21.4-15.5,21.4-34.6s71.4-34.6,90.5-34.6s-21.4,112.4-21.4,131.4S139.4,193,120.3,193z"
				/>
			<path class="st0" d="M111.8,195.6c-18.4,0,24.1-14.9,24.1-33.3s72.3-33.3,90.6-33.3s-24.1,114.3-24.1,132.6
				S130.2,195.6,111.8,195.6z"/>
			<path class="st0" d="M103.4,198c-17.7,0,26.8-14.3,26.8-32s73.1-32,90.8-32s-26.8,116.2-26.8,133.9S121.1,198,103.4,198z"/>
			<path class="st0" d="M95.1,200.3c-17,0,29.5-13.8,29.5-30.7s74-30.7,91-30.7S186.1,257,186.1,273.9S112.1,200.3,95.1,200.3z"/>
			<path class="st0" d="M86.9,202.4c-16.3,0,32.2-13.2,32.2-29.5s74.9-29.5,91.1-29.5S178,263.5,178,279.8
				C178,296,103.2,202.4,86.9,202.4z"/>
			<path class="st0" d="M78.8,204.3c-15.5,0,35-12.6,35-28.2s75.7-28.2,91.3-28.2s-35,121.9-35,137.5S94.4,204.3,78.8,204.3z"/>
			<path class="st0" d="M70.9,206c-14.8,0,37.7-12.1,37.7-26.9c0-14.8,76.6-26.9,91.4-26.9c14.8,0-37.7,123.8-37.7,138.7
				C162.3,305.7,85.7,206,70.9,206z"/>
			<path class="st0" d="M63.1,207.4c-14.1,0,40.4-11.5,40.4-25.6s77.4-25.6,91.6-25.6s-40.4,125.7-40.4,139.9
				C154.6,310.2,77.2,207.4,63.1,207.4z"/>
			<path class="st0" d="M55.4,208.6c-13.4,0,43.1-10.9,43.1-24.3c0-13.4,78.3-24.3,91.7-24.3S147.1,287.5,147.1,301
				C147.1,314.4,68.8,208.6,55.4,208.6z"/>
			<path class="st0" d="M47.9,209.4c-12.7,0,45.8-10.3,45.8-23.1c0-12.7,79.2-23.1,91.9-23.1c12.7,0-45.8,129.6-45.8,142.3
				C139.8,318.3,60.6,209.4,47.9,209.4z"/>
			<path class="st0" d="M40.5,209.9c-12,0,48.5-9.8,48.5-21.8s80-21.8,92-21.8s-48.5,131.5-48.5,143.5
				C132.6,321.9,52.5,209.9,40.5,209.9z"/>
			<path class="st0" d="M33.4,210.1c-11.3,0,51.2-9.2,51.2-20.5c0-11.3,80.9-20.5,92.2-20.5s-51.2,133.4-51.2,144.7
				S44.7,210.1,33.4,210.1z"/>
			<path class="st0" d="M26.4,210c-10.6,0,54-8.6,54-19.2c0-10.6,81.7-19.2,92.3-19.2s-54,135.3-54,145.9C118.7,328,37,210,26.4,210
				z"/>
			<path class="st0" d="M19.6,209.4c-9.9,0,56.7-8.1,56.7-17.9s82.6-17.9,92.5-17.9s-56.7,137.2-56.7,147.1
				C112.1,330.5,29.5,209.4,19.6,209.4z"/>
			<path class="st0" d="M13,208.4c-9.2,0,59.4-7.5,59.4-16.7c0-9.2,83.5-16.7,92.7-16.7s-59.4,139.1-59.4,148.3S22.2,208.4,13,208.4
				z"/>
			<path class="st0" d="M6.6,207c-8.5,0,62.1-6.9,62.1-15.4s84.3-15.4,92.8-15.4s-62.1,141-62.1,149.5S15.1,207,6.6,207z"/>
			<path class="st0" d="M0.5,205.2c-7.8,0,64.8-6.3,64.8-14.1s85.2-14.1,93-14.1S93.4,319.9,93.4,327.7
				C93.4,335.5,8.3,205.2,0.5,205.2z"/>
			<path class="st0" d="M-5.4,202.9c-7.1,0,67.5-5.8,67.5-12.8s86.1-12.8,93.1-12.8c7.1,0-67.5,144.9-67.5,151.9
				C87.7,336.2,1.6,202.9-5.4,202.9z"/>
			<path class="st0" d="M-11.1,200.1c-6.4,0,70.2-5.2,70.2-11.6c0-6.4,86.9-11.6,93.3-11.6S82.2,323.8,82.2,330.1
				S-4.7,200.1-11.1,200.1z"/>
			<path class="st0" d="M-16.5,196.8c-5.7,0,73-4.6,73-10.3c0-5.7,87.8-10.3,93.4-10.3c5.7,0-73,148.7-73,154.3
				C76.9,336.2-10.8,196.8-16.5,196.8z"/>
			<path class="st0" d="M-21.6,192.9c-4.9,0,75.7-4,75.7-9c0-4.9,88.6-9,93.6-9c4.9,0-75.7,150.6-75.7,155.5
				C72,335.4-16.7,192.9-21.6,192.9z"/>
			<path class="st0" d="M-26.5,188.5c-4.2,0,78.4-3.5,78.4-7.7s89.5-7.7,93.7-7.7S67.2,325.5,67.2,329.8S-22.3,188.5-26.5,188.5z"/>
			<path class="st0" d="M-31.1,183.5c-3.5,0,81.1-2.9,81.1-6.4s90.4-6.4,93.9-6.4S62.8,325,62.8,328.5
				C62.8,332.1-27.5,183.5-31.1,183.5z"/>
			<path class="st0" d="M-35.4,177.8c-2.8,0,83.8-2.3,83.8-5.2c0-2.8,91.2-5.2,94.1-5.2c2.8,0-83.8,156.3-83.8,159.2
				C58.7,329.5-32.5,177.8-35.4,177.8z"/>
			<path class="st0" d="M-39.3,171.6c-2.1,0,86.5-1.8,86.5-3.9s92.1-3.9,94.2-3.9S54.9,322.1,54.9,324.2S-37.2,171.6-39.3,171.6z"/>
			<path class="st0" d="M-43,164.7c-1.4,0,89.2-1.2,89.2-2.6s92.9-2.6,94.4-2.6c1.4,0-89.2,160.1-89.2,161.6
				C51.4,322.5-41.6,164.7-43,164.7z"/>
			<path class="st0" d="M-46.3,157.1c-0.7,0,92-0.6,92-1.3c0-0.7,93.8-1.3,94.5-1.3c0.7,0-92,162.1-92,162.8
				C48.2,318-45.6,157.1-46.3,157.1z"/>
			<polygon class="st0" points="45.3,312.7 -49.3,148.8 140,148.8 			"/>
			<polygon class="st0" points="42.6,306.5 -49.9,144.4 137.2,143.6 107.6,198.9 75.1,254.2 			"/>
			<polygon class="st0" points="39.5,300.6 -50.9,140.3 134.1,138.7 106.4,194.6 72.9,250.5 			"/>
			<polygon class="st0" points="36,295 -52.2,136.4 130.7,134.2 104.9,190.7 70.5,247.2 			"/>
			<polygon class="st0" points="32.2,289.7 -53.8,132.8 126.9,129.9 103.1,187 67.6,244.1 			"/>
			<polygon class="st0" points="28.1,284.6 -55.8,129.5 122.8,125.8 100.9,183.6 64.5,241.3 			"/>
			<polygon class="st0" points="23.7,279.8 -58,126.5 118.4,122.1 98.4,180.4 61.1,238.8 			"/>
			<polygon class="st0" points="19,275.2 -60.6,123.7 113.7,118.6 95.6,177.5 57.3,236.5 			"/>
			<polygon class="st0" points="14,271 -63.4,121.2 108.8,115.3 92.6,174.9 53.3,234.5 			"/>
			<polygon class="st0" points="8.8,266.9 -66.5,118.9 103.5,112.3 89.2,172.5 49,232.7 			"/>
			<polygon class="st0" points="3.2,263.1 -69.9,116.9 98,109.6 85.6,170.4 44.4,231.2 			"/>
			<polygon class="st0" points="-2.5,259.6 -73.5,115.1 92.2,107 81.8,168.5 39.6,229.9 			"/>
			<polygon class="st0" points="-8.5,256.2 -77.3,113.5 86.2,104.8 77.7,166.8 34.6,228.8 			"/>
			<polygon class="st0" points="-14.8,253.1 -81.4,112.1 80,102.7 73.4,165.4 29.3,228 			"/>
			<polygon class="st0" points="-21.2,250.2 -85.7,111 73.6,100.8 68.9,164.1 23.8,227.4 			"/>
			<polygon class="st0" points="-27.9,247.6 -90.2,110.1 66.9,99.2 64.2,163.1 18.2,227 			"/>
			<polygon class="st0" points="-34.7,245.1 -94.9,109.4 60.1,97.8 59.3,162.3 12.3,226.8 			"/>
			<polygon class="st0" points="-42.3,242.8 -100.3,108.8 52.5,96.5 53.6,161.6 5.7,226.8 			"/>
			<polygon class="st0" points="-50.4,240.7 -106.3,108.5 44.4,95.5 47.4,161.2 -1.5,226.9 			"/>
			<polygon class="st0" points="-58.7,238.8 -112.4,108.4 36.1,94.6 41.1,161 -8.8,227.3 			"/>
			<polygon class="st0" points="-67.2,237.1 -118.7,108.4 27.7,93.9 34.6,160.9 -16.3,227.8 			"/>
			<polygon class="st0" points="-75.7,235.5 -125.1,108.6 19.1,93.4 27.9,161 -23.9,228.6 			"/>
			<polygon class="st0" points="-84.4,234.1 -131.7,109 10.5,93 21.2,161.2 -31.6,229.4 			"/>
			<polygon class="st0" points="-93.2,232.9 -138.3,109.5 1.7,92.9 14.3,161.7 -39.5,230.5 			"/>
			<polygon class="st0" points="-102.1,231.8 -145,110.2 -7.2,92.8 7.3,162.2 -47.4,231.7 			"/>
			<polygon class="st0" points="-111.1,229.8 -151.8,109.9 -16.2,91.8 0.3,161.9 -55.4,231.9 			"/>
			<polygon class="st0" points="-120.1,227.9 -158.7,109.8 -25.2,91 -6.8,161.6 -63.5,232.3 			"/>
			<polygon class="st0" points="-129.2,226.1 -165.7,109.7 -34.3,90.2 -14,161.5 -71.6,232.7 			"/>
			<polygon class="st0" points="-138.4,224.4 -172.7,109.8 -43.5,89.6 -21.2,161.5 -79.8,233.3 			"/>
			<polygon class="st0" points="-147.6,222.8 -179.7,110 -52.6,89.1 -28.5,161.6 -88,234.1 			"/>
			<polygon class="st0" points="-156.8,221.4 -186.8,110.4 -61.8,88.7 -35.8,161.8 -96.3,234.9 			"/>
			<polygon class="st0" points="-166,220.1 -193.8,110.8 -71.1,88.4 -43,162.1 -104.5,235.8 			"/>
			<polygon class="st0" points="-175.2,218.8 -200.9,111.3 -80.3,88.2 -50.3,162.5 -112.8,236.9 			"/>
			<polygon class="st0" points="-184.4,217.7 -208,112 -89.5,88.1 -57.6,163.1 -121,238 			"/>
			<polygon class="st0" points="-193.6,216.7 -215,112.7 -98.7,88.1 -64.9,163.7 -129.3,239.2 			"/>
			<polygon class="st0" points="-202.8,215.7 -222,113.5 -107.8,88.2 -72.1,164.4 -137.5,240.5 			"/>
			<polygon class="st0" points="-211.9,214.8 -229,114.3 -116.9,88.3 -79.3,165.1 -145.6,241.9 			"/>
			<polygon class="st0" points="-221,214 -235.9,115.3 -126,88.5 -86.4,166 -153.7,243.4 			"/>
			<polygon class="st0" points="-230,213.2 -242.7,116.3 -134.9,88.8 -93.5,166.9 -161.7,244.9 			"/>
			<polygon class="st0" points="-238.9,212.5 -249.5,117.3 -143.8,89.2 -100.5,167.8 -169.7,246.5 			"/>
			<polygon class="st0" points="-247.7,211.9 -256.1,118.5 -152.6,89.6 -107.3,168.8 -177.5,248.1 			"/>
			<polygon class="st0" points="-256.4,211.3 -262.7,119.6 -161.3,90 -114.1,169.9 -185.3,249.8 			"/>
			<polygon class="st0" points="-265,210.7 -269.1,120.8 -169.9,90.5 -120.8,171 -192.9,251.5 			"/>
			<polygon class="st0" points="-273.4,210.2 -275.4,122 -178.4,91 -127.3,172.1 -200.4,253.2 			"/>
			<polygon class="st0" points="-281.7,209.7 -281.5,123.3 -186.6,91.5 -133.6,173.2 -207.6,254.9 			"/>
			<polygon class="st0" points="-288.7,209.2 -286.4,124.5 -193.7,92 -138.8,174.4 -213.8,256.7 			"/>
			<polygon class="st0" points="-295.7,208.7 -291.2,125.8 -200.6,92.6 -143.8,175.6 -219.7,258.5 			"/>
			<polygon class="st0" points="-302.4,208.2 -295.8,127.1 -207.3,93.2 -148.6,176.7 -225.5,260.3 			"/>
			<polygon class="st0" points="-309,207.7 -300.2,128.4 -213.9,93.7 -153.2,177.9 -231.1,262.1 			"/>
			<polygon class="st0" points="-315.3,207.2 -304.4,129.7 -220.2,94.3 -157.6,179.1 -236.5,263.9 			"/>
			<polygon class="st0" points="-321.5,206.7 -308.4,130.9 -226.4,94.8 -161.9,180.2 -241.7,265.6 			"/>
			<polygon class="st0" points="-327.4,206.2 -312.1,132.2 -232.3,95.3 -165.9,181.4 -246.6,267.4 			"/>
			<polygon class="st0" points="-333.1,205.7 -315.7,133.4 -238,95.8 -169.6,182.5 -251.4,269.1 			"/>
			<polygon class="st0" points="-338.6,205.1 -319,134.5 -243.4,96.3 -173.1,183.5 -255.9,270.8 			"/>
			<polygon class="st0" points="-343.8,204.4 -322,135.7 -248.6,96.7 -176.4,184.6 -260.1,272.5 			"/>
			<polygon class="st0" points="-348.7,203.8 -324.8,136.8 -253.5,97.1 -179.4,185.6 -264,274.1 			"/>
			<polygon class="st0" points="-353.3,203.1 -327.3,137.8 -258.1,97.4 -182.1,186.5 -267.7,275.6 			"/>
			<polygon class="st0" points="-357.7,202.3 -329.4,138.8 -262.5,97.6 -184.5,187.4 -271.1,277.1 			"/>
			<polygon class="st0" points="-361.7,201.4 -331.3,139.7 -266.5,97.8 -186.6,188.2 -274.2,278.5 			"/>
			<polygon class="st0" points="-365.4,200.5 -332.9,140.6 -270.2,98 -188.4,188.9 -276.9,279.9 			"/>
			<polygon class="st0" points="-368.8,199.5 -334.1,141.3 -273.6,98 -189.9,189.6 -279.3,281.2 			"/>
			<polygon class="st0" points="-371.9,198.4 -335,142 -276.6,98 -191,190.2 -281.4,282.4 			"/>
			<polygon class="st0" points="-374.6,197.3 -335.6,142.6 -279.3,97.9 -191.8,190.7 -283.2,283.5 			"/>
			<polygon class="st0" points="-376.9,196 -335.7,143.1 -281.7,97.6 -192.2,191 -284.5,284.5 			"/>
			<polygon class="st0" points="-378.8,194.6 -335.5,143.5 -283.6,97.3 -192.2,191.3 -285.5,285.4 			"/>
			<polygon class="st0" points="-380.4,193.2 -335,143.8 -285.2,96.9 -191.8,191.5 -286.1,286.2 			"/>
			
				<rect x="-353.7" y="124.2" transform="matrix(0.7071 -0.7071 0.7071 0.7071 -219.3202 -146.3504)" class="st0" width="134.7" height="134.7"/>
		</g>
	</g>
	<g>
		<polygon class="st67" points="868.4,211.9 868.4,99.6 771.2,43.5 674,99.6 674,211.9 771.2,268 		"/>
		<g>
			<path class="st68" d="M686.5,144.4l2.9-3.5c2.6,2.3,5.3,3.6,8.7,3.6c3,0,4.9-1.4,4.9-3.5V141c0-2-1.1-3-6.2-4.2
				c-5.9-1.4-9.2-3.1-9.2-8.2v-0.1c0-4.7,3.9-8,9.4-8c4,0,7.2,1.2,10,3.5l-2.6,3.7c-2.5-1.8-4.9-2.8-7.5-2.8c-2.8,0-4.5,1.5-4.5,3.3
				v0.1c0,2.1,1.3,3.1,6.5,4.3c5.8,1.4,8.8,3.5,8.8,8.1v0.1c0,5.1-4,8.2-9.8,8.2C693.7,148.8,689.8,147.3,686.5,144.4z"/>
			<path class="st68" d="M718.8,125.4h-8.7v-4.5h22.3v4.5h-8.7v23h-4.9V125.4z"/>
			<path class="st68" d="M765.9,125.4h-8.7v-4.5h22.3v4.5h-8.7v23h-4.9V125.4z"/>
			<path class="st68" d="M783.8,120.9h20.4v4.3h-15.6v7.1h13.8v4.3h-13.8v7.4h15.7v4.3h-20.6V120.9z"/>
			<path class="st68" d="M807.5,144.4l2.9-3.5c2.6,2.3,5.3,3.6,8.7,3.6c3,0,4.9-1.4,4.9-3.5V141c0-2-1.1-3-6.2-4.2
				c-5.9-1.4-9.2-3.1-9.2-8.2v-0.1c0-4.7,3.9-8,9.4-8c4,0,7.2,1.2,10,3.5l-2.6,3.7c-2.5-1.8-4.9-2.8-7.5-2.8c-2.8,0-4.5,1.5-4.5,3.3
				v0.1c0,2.1,1.3,3.1,6.5,4.3c5.8,1.4,8.8,3.5,8.8,8.1v0.1c0,5.1-4,8.2-9.8,8.2C814.7,148.8,810.8,147.3,807.5,144.4z"/>
			<path class="st68" d="M686.4,172.6L686.4,172.6c0-7.9,5.9-14.3,14.2-14.3c5.1,0,8.1,1.8,10.8,4.3l-3.1,3.6
				c-2.2-2-4.6-3.4-7.7-3.4c-5.3,0-9.1,4.3-9.1,9.7v0.1c0,5.4,3.8,9.8,9.1,9.8c3.4,0,5.5-1.4,7.9-3.6l3.1,3.1c-2.9,3-6,4.9-11.2,4.9
				C692.4,186.8,686.4,180.5,686.4,172.6z"/>
			<path class="st68" d="M715.8,158.8h4.8v11.4h13.1v-11.4h4.8v27.5h-4.8v-11.6h-13.1v11.6h-4.8V158.8z"/>
			<path class="st68" d="M775.1,158.8h4.5l14.7,19v-19h4.8v27.5h-4l-15.2-19.6v19.6h-4.8V158.8z"/>
			<path class="st68" d="M804.2,172.6L804.2,172.6c0-7.8,5.9-14.3,14.2-14.3c4.8,0,7.7,1.3,10.6,3.7l-3.1,3.7
				c-2.1-1.8-4.2-2.9-7.7-2.9c-5.1,0-8.9,4.4-8.9,9.7v0.1c0,5.7,3.7,9.8,9.3,9.8c2.6,0,4.9-0.8,6.6-2.1v-5.1h-7V171h11.7v11.5
				c-2.7,2.3-6.6,4.3-11.5,4.3C809.8,186.8,804.2,180.7,804.2,172.6z"/>
			<path class="st68" d="M835.4,158.8h20.4v4.3h-15.6v7.1H854v4.3h-13.8v7.4H856v4.3h-20.6V158.8z"/>
			<path class="st68" d="M758.7,148.4l-14.3-27.7l-14.3,27.7H758.7z"/>
			<path class="st68" d="M771.3,186.4l-14.3-27.7l-14.3,27.7H771.3z"/>
			<g>
				<g>
					<g>
						<path class="st68" d="M833.9,131.7L833.9,131.7c0-3.2,2.5-5.9,5.9-5.9s5.9,2.6,5.9,5.8v0c0,3.2-2.5,5.8-5.9,5.8
							S833.9,134.9,833.9,131.7z M843.7,131.7L843.7,131.7c0-2.2-1.6-4.1-3.8-4.1s-3.8,1.8-3.8,4v0c0,2.2,1.6,4,3.8,4
							C842.1,135.7,843.7,133.9,843.7,131.7z"/>
						<path class="st68" d="M847.4,126h8.4v1.8h-6.4v3.1h5.7v1.8h-5.7v4.6h-2V126z"/>
					</g>
				</g>
				<rect x="834.5" y="141.6" class="st68" width="21.3" height="1.8"/>
			</g>
		</g>
	</g>
</g>
</svg>
